<?xml version="1.0" encoding="utf-8"?>
<!-- Generator: Adobe Illustrator 27.8.0, SVG Export Plug-In . SVG Version: 6.00 Build 0)  -->
<svg version="1.1" id="Layer_1" xmlns="http://www.w3.org/2000/svg" xmlns:xlink="http://www.w3.org/1999/xlink" x="0px" y="0px"
	 viewBox="0 0 170.8 251.75" style="enable-background:new 0 0 170.8 251.75;" xml:space="preserve">
<g>
	<path id="trunk" d="M120.79,54.65c0.18-0.82,0.37-1.65,0.78-2.38c0.52-0.93,1.38-1.64,2.32-2.15c1.11-0.6,2.34-0.93,3.46-1.47
		c0.35-0.17,0.63-0.44,0.95-0.64c0.36-0.23,0.72-0.41,1.05-0.69c0.34-0.27,0.61-0.64,0.97-0.88c0.37-0.25,0.72-0.5,1.05-0.81
		c0.23-0.21,0.1-0.57-0.21-0.59c-0.26-0.01-0.81,0.42-1.05,0.54c-0.93,0.47-1.87,0.94-2.8,1.41c-1.89,0.95-3.79,1.9-5.68,2.85
		c-0.23,0.12-0.51,0.23-0.73,0.11c-0.47-0.25-0.13-0.94-0.11-1.33c0.04-0.67-0.01-1.34-0.03-2.01c-0.01-0.27-0.18-0.51-0.47-0.51
		c-0.27,0-0.54,0.23-0.55,0.51c-0.01,0.56,0,1.1-0.05,1.67c-0.19,1.86-0.45,3.72-0.83,5.55c-0.25,1.18-0.61,2.33-0.97,3.48
		c-0.33,1.06-0.49,2.21-1.07,3.17c-0.09,0.14-0.18,0.28-0.32,0.37c-0.08,0.05-0.65,0.15-0.72,0.05c-0.02-0.04-0.05-0.07-0.08-0.1
		c-0.1-0.11-0.22-0.19-0.34-0.27c-0.15-0.11-0.31-0.31-0.47-0.46c-0.2-0.18-0.42-0.32-0.62-0.5c-0.14-0.12-0.19-0.29-0.37-0.45
		c-0.17-0.16-0.38-0.32-0.57-0.52c-0.18-0.19-0.49-0.21-0.72-0.04c-0.21,0.15-0.34,0.48-0.2,0.7c0.16,0.24,0.22,0.49,0.45,0.68
		c0.05,0.04,0.11,0.08,0.16,0.12c-0.01,0,0.05,0.08,0.03,0.04c0.03,0.04,0.13,0.19,0.2,0.26c0.19,0.2,0.45,0.33,0.66,0.5
		c0.66,0.54,1.25,1.44,1.28,2.3c0.04,1.28-0.94,2.07-1.81,2.85c-0.9,0.81-1.88,1.53-2.93,2.14c-2.09,1.21-4.46,1.92-6.87,2.02
		c-0.48,0.02-0.95,0.02-1.43-0.01c-1.09-0.06-2.54-0.49-2.72-1.79c-0.06-0.41-0.02-0.8-0.14-1.2c-0.04-0.14-0.07-0.29-0.08-0.43
		c0.02-0.29,0.04-0.58,0.05-0.87c0-0.08,0.01-0.15,0.01-0.23c0.03-0.17,0.06-0.34,0.1-0.51c0.05-0.21,0.12-0.43,0.15-0.64
		c0.03-0.24,0.02-0.46,0.11-0.69c0.32-0.85,0.52-1.72,0.91-2.55c0.22-0.46,0.5-0.9,0.75-1.34c0.02-0.04,0.05-0.09,0.07-0.13
		c0.04-0.03,0.08-0.08,0.09-0.09c0.1-0.1,0.18-0.2,0.26-0.31c0.03-0.04,0.06-0.08,0.09-0.12c0.04-0.03,0.08-0.06,0.12-0.1
		c0.45-0.36,0.83-0.78,1.15-1.24c0.22-0.19,0.43-0.38,0.65-0.57c0.47-0.39,0.96-0.76,1.51-1.02c0.53-0.25,1.11-0.42,1.66-0.58
		c0.58-0.17,1.16-0.22,1.75-0.36c0.25-0.06,0.48-0.15,0.72-0.25c0.01,0,0.02-0.01,0.03-0.01c0.23,0.01,0.46,0.01,0.71-0.09
		c0.47-0.18,0.97-0.37,1.39-0.67c0.77-0.56,1.56-1.26,2.07-2.07c0.27-0.42-0.3-0.95-0.66-0.54c-0.27,0.31-0.59,0.56-0.91,0.8
		c-0.39,0.29-0.69,0.67-1.14,0.9c-0.46,0.23-0.98,0.33-1.49,0.43c-1.04,0.2-2.08,0.39-3.12,0.59c-0.31,0.06-0.84,0.28-1.15,0.15
		c-0.38-0.16-0.41-0.55-0.21-0.84c0.12-0.17,0.25-0.33,0.35-0.52c0.11-0.21,0.18-0.43,0.28-0.64c0.21-0.46,0.53-0.86,0.76-1.3
		c0.24-0.44,0.42-0.9,0.63-1.35c0.21-0.45,0.45-0.89,0.63-1.34c0.01-0.04,0.03-0.07,0.04-0.1c0.02-0.01,0.04-0.03,0.05-0.04
		c0.09-0.09,0.15-0.19,0.23-0.29c0.13-0.18,0.29-0.34,0.41-0.53c0.13-0.2,0.23-0.4,0.34-0.61c0.14-0.27,0.29-0.47,0.48-0.67
		c0.61-0.53,1.36-0.86,2.09-1.21c0.24-0.12,0.46-0.26,0.68-0.41c0.05-0.03,0.11-0.05,0.16-0.09c0.57-0.34,1.16-0.67,1.75-0.97
		c0.32-0.16,0.64-0.31,0.95-0.48c0.08-0.04,0.16-0.09,0.24-0.13c0.03-0.01,0.07-0.03,0.1-0.04c0.44-0.19,0.86-0.42,1.31-0.57
		c0.46-0.16,0.91-0.36,1.37-0.52c0.45-0.16,0.97-0.33,1.44-0.4c0.25-0.03,0.51-0.02,0.76-0.01c0.25,0.01,0.49,0.12,0.73,0.1
		c0,0,0.04,0,0.07-0.01c0.03,0.02,0.09,0.05,0.1,0.06c0.09,0.04,0.19,0.06,0.3,0.06c0.25,0.01,0.49-0.02,0.74,0.02
		c0.53,0.09,1.07,0.04,1.6,0.11c0.54,0.07,1.01,0.32,1.57,0.29c0.28-0.02,0.46-0.31,0.28-0.55c-0.17-0.23-0.77-0.14-1.03-0.21
		c-1.07-0.27-2.13-0.58-3.19-0.87c-0.58-0.16-1.17-0.32-1.77-0.33c-0.9-0.02-1.59,0.37-2.35,0.78c-0.31,0.17-0.67,0.25-0.99,0.4
		c-0.05,0.03-0.1,0.05-0.15,0.08c0.06-0.11,0.12-0.22,0.18-0.33c0.11-0.21,0.24-0.39,0.37-0.58c0.14-0.2,0.23-0.43,0.32-0.65
		c0.08-0.19,0.21-0.39,0.23-0.59c0.02-0.21,0.09-0.35,0.23-0.52c0.14-0.16-0.01-0.46-0.22-0.31c-0.17,0.12-0.29,0.24-0.43,0.4
		c-0.13,0.15-0.19,0.33-0.3,0.49c-0.33,0.49-0.51,0.92-0.93,1.34c-0.47,0.48-0.98,0.92-1.51,1.33c-0.66,0.5-1.37,0.95-2.11,1.33
		c-0.44,0.23-1.52,1.02-1.86,0.53c-0.04-0.06-0.08-0.12-0.12-0.18c0-0.01,0.01-0.02,0.01-0.04c0.11-0.49,0.27-1,0.4-1.49
		c0.08-0.27,0.25-0.5,0.3-0.78c0.03-0.15,0.03-0.3,0.05-0.45c0.2-0.38,0.37-0.78,0.58-1.16c0.1-0.17,0.23-0.31,0.33-0.48
		c0.1-0.17,0.18-0.34,0.28-0.5c0.24-0.4,0.39-0.83,0.69-1.19c0.24-0.28,0.54-0.63,0.85-0.83c0.36-0.24,0.79-0.34,1.15-0.58
		c0.18-0.12,0.38-0.17,0.56-0.29c0.19-0.13,0.37-0.28,0.57-0.4c0.82-0.51,1.7-0.91,2.48-1.49c0.39-0.29,0.79-0.66,1.11-1.03
		c0.14-0.17,0.26-0.36,0.4-0.53c0.13-0.16,0.26-0.3,0.35-0.49c0.24-0.48,0.57-0.92,0.83-1.39c0.26-0.49,0.57-0.89,0.57-1.45
		c0-0.36-0.51-0.36-0.57,0c-0.09,0.61-0.78,1.34-1.15,1.83c-0.48,0.64-1.02,1.22-1.62,1.75c-1.16,1.02-2.72,2.09-4.27,2.34
		c-0.22,0.03-0.42,0.09-0.63,0.08c-0.01-0.01-0.03-0.02-0.04-0.03c-0.04-0.02-0.08-0.03-0.12-0.04c-0.08-0.01-0.15-0.03-0.22-0.05
		c-0.02-0.01-0.04-0.01-0.06-0.01c-0.12-0.06-0.23-0.13-0.35-0.18c-0.13-0.06-0.29-0.1-0.42-0.18c-0.04-0.12-0.09-0.23-0.16-0.34
		c-0.07-0.11-0.14-0.22-0.22-0.33c-0.02-0.06-0.04-0.12-0.07-0.17c-0.01-0.01-0.02-0.02-0.02-0.03c-0.13-0.4-0.19-0.85-0.28-1.24
		c-0.08-0.34-0.12-0.71-0.25-1.03c-0.11-0.28-0.33-0.57-0.55-0.77c-0.24-0.22-0.5-0.4-0.74-0.61c-0.28-0.24-0.51-0.49-0.75-0.77
		c-0.23-0.27-0.63,0.12-0.43,0.39c-0.04,0.03-0.06,0.08-0.05,0.14c0.03,0.15,0.1,0.26,0.2,0.37c1.25,1.34,2.13,3.56,2.26,5.38
		c0.07,0.86-0.04,1.74-0.3,2.56c-0.26,0.83-0.77,1.52-1.09,2.31c0,0.01-0.01,0.01-0.01,0.02c-0.05,0.04-0.11,0.07-0.17,0.1
		c-0.38,0.2-0.8,0.16-1.2,0.17c-0.22,0-0.45,0.07-0.67,0.06c-0.07,0-0.14-0.02-0.2-0.04c-1.23-0.89-2.97-1.57-3.57-3.07
		c-0.26-0.64-0.25-1.35-0.17-2.02c0.12-1.01,0.48-2.2,0.06-3.18c-0.38-0.88-1.28-1.17-2.1-1.52c-0.16-0.07-0.37,0.06-0.45,0.21
		c-0.04,0.08-0.05,0.18-0.03,0.27c-0.01,0.09,0.02,0.17,0.12,0.23c0.39,0.23,0.98,0.68,1.26,1.07c0.45,0.63,0.18,1.39,0.1,2.09
		c-0.1,0.91-0.21,1.83-0.13,2.74c0.08,0.91,0.43,1.84,1.11,2.44c0.82,0.72,2.02,0.9,2.8,1.66c0.87,0.83,1.04,2.21,0.72,3.37
		c-0.15,0.54-1.49,3.75-2.29,3.32c-0.16-0.09-0.28-0.25-0.41-0.37c-0.15-0.15-0.27-0.34-0.4-0.5c-0.15-0.19-0.3-0.39-0.42-0.61
		c-0.07-0.13-0.24-0.05-0.26,0.07c-0.03-0.07-0.05-0.15-0.08-0.24c-0.07-0.17-0.17-0.33-0.27-0.49c-0.23-0.34-0.4-0.67-0.57-1.04
		c-0.22-0.49-0.96-0.06-0.77,0.43c0.13,0.35,0.25,0.69,0.45,1.01c0.09,0.14,0.17,0.3,0.24,0.45c0.06,0.15,0.09,0.31,0.16,0.45
		c0.17,0.33,0.48,0.65,0.74,0.92c0.08,0.09,0.17,0.16,0.26,0.24c0.1,0.3,0.19,0.61,0.21,0.94c0.08,1.49-0.2,2.77-0.86,4.12
		c-0.4,0.82-2.45,4.56-3.63,3.36c-0.27-0.28-0.38-0.69-0.47-1.07c0-0.86-0.45-1.92-0.65-2.76c-0.22-0.92-0.48-1.8-0.79-2.69
		c-0.05-0.13-0.09-0.27-0.13-0.41c-0.1-0.51-0.23-1.01-0.35-1.51c-0.01-0.03-0.02-0.06-0.02-0.09c-0.01-0.4-0.02-0.8-0.06-1.18
		c-0.03-0.32-0.08-0.63-0.09-0.95c-0.01-0.3,0.05-0.6,0.03-0.9c-0.02-0.31-0.07-0.59-0.05-0.91c0.01-0.21,0.03-0.41,0.04-0.62
		c0.01-0.06,0.02-0.11,0.02-0.17c0.02-0.26,0.12-0.51,0.23-0.75c0.03-0.03,0.06-0.07,0.07-0.07c0.19-0.2,0.32-0.45,0.47-0.67
		c0.18-0.27,0.35-0.54,0.55-0.79c0.2-0.25,0.32-0.52,0.49-0.8c0.06-0.1,0.15-0.18,0.21-0.28c0.08-0.12,0.12-0.25,0.18-0.38
		c0.14-0.3,0.28-0.61,0.43-0.91c0.2-0.4-0.32-0.75-0.57-0.35c-0.18,0.29-0.34,0.59-0.51,0.88c-0.07,0.12-0.12,0.25-0.21,0.36
		c-0.1,0.12-0.2,0.22-0.28,0.35c-0.16,0.27-0.34,0.49-0.55,0.72c-0.32,0.36-1.03,1.71-1.68,1.45c-0.22-0.09-0.33-0.32-0.43-0.53
		c-0.44-1.03-0.82-2.16-0.88-3.28c-0.03-0.48,0.01-0.99,0.17-1.47c0.04-0.12,0.08-0.24,0.13-0.36c0.15-0.24,0.31-0.49,0.47-0.73
		c0.27-0.38,0.57-0.74,0.81-1.14c0.25-0.42,0.5-0.85,0.7-1.29c0.2-0.42,0.44-0.83,0.65-1.25c0.2-0.4,0.51-0.78,0.61-1.21
		c0.09-0.41-0.01-0.81-0.03-1.22c-0.01-0.24-0.03-0.48-0.05-0.72c-0.02-0.21-0.09-0.42-0.11-0.63c-0.03-0.35-0.62-0.27-0.63,0.08
		c-0.01,0.42,0.04,0.83-0.01,1.26c-0.04,0.36-0.09,0.68-0.29,0.99c-1.28,1.96-2.19,4.09-3.63,5.96c-0.28-0.89-0.54-1.74-0.9-2.59
		c-0.13-0.3-0.15-0.53-0.43-0.74c-0.1-0.08-0.19-0.1-0.26-0.23c-0.23-0.51-0.99-0.24-1.06,0.28c-0.13,1.02,0.66,2.23,1.01,3.16
		c0.45,1.18,0.86,2.37,1.25,3.58c0.44,1.37,0.84,2.76,1.2,4.16c0.18,0.7,0.35,1.4,0.51,2.1c0.13,0.56,0.44,1.27,0.44,1.84
		c-0.06-0.3-1.62-0.47-1.88-0.51c-0.58-0.09-1.19-0.23-1.63-0.61c-0.9-0.77-0.24-1.53,0.02-2.39c0.12-0.38,0.3-0.75,0.39-1.14
		c0.04-0.18,0.07-0.36,0.12-0.53c0.05-0.16,0.04-0.34,0.1-0.49c0.08-0.23-0.04-0.48-0.27-0.55c-0.25-0.07-0.47,0.09-0.57,0.31
		c-0.06,0.13-0.08,0.3-0.12,0.41c-0.07,0.18-0.13,0.36-0.19,0.54c-0.22,0.64-0.51,1.26-0.75,1.89c-0.09,0.22-0.19,0.46-0.4,0.57
		c-0.77,0.39-1.09-0.77-1.31-1.24c-0.38-0.8-0.77-1.61-1.15-2.41c-0.1-0.21-0.2-0.42-0.36-0.59c-0.56-0.59-1.55,0.17-0.99,0.71
		c0.38,0.37,0.59,0.99,0.8,1.47c0.46,1,1.16,2.25,0.72,3.37c-0.41,1.03-1.19,0.93-2.14,0.97c-0.82,0.03-1.63-0.03-2.44-0.13
		c-0.41-0.05-0.8-0.1-1.22-0.07c-0.28,0.02-0.39,0.29-0.3,0.47c-0.08,0.15-0.02,0.38,0.2,0.41c0.6,0.07,1.16,0.22,1.77,0.24
		c0.74,0.03,1.47,0.05,2.21,0.08c1.91,0.09,3.79,0.15,5.69,0.36c0.51,0.06,1.05,0.1,1.55,0.21c0.47,0.11,0.91,0.3,1.35,0.5
		c0.23,0.11,0.47,0.22,0.66,0.38c0.21,0.18,0.33,0.43,0.54,0.61c0.03,0.02,0.05,0.04,0.07,0.07c0.03,0.06,0.07,0.11,0.1,0.17
		c0.19,0.59,0.32,1.2,0.52,1.79c0.63,1.86,1.19,3.61,1.32,5.59c0.08,1.17,0.04,2.34-0.11,3.5c-0.14,1.1-0.32,2.33-0.67,3.38
		c-0.18,0.55-0.3,1.13-0.6,1.62c-0.38,0.63-0.8,1.23-1.19,1.85c-0.79,1.24-1.56,2.49-2.31,3.76c-1.5,2.53-2.93,5.1-4.29,7.7
		c-0.58,1.12-1.08,2.23-1.56,3.4c-0.2,0.47-0.38,0.96-0.55,1.43c-0.1,0.28-0.1,0.57-0.17,0.86c-0.05,0.2-0.15,0.4-0.24,0.59
		c-0.16,0.32-0.32,0.64-0.48,0.96c-0.05-0.11-0.1-0.22-0.13-0.33c-0.04-0.12-0.06-0.26-0.12-0.37c-0.02-0.05-0.15-0.24-0.14-0.22
		c-0.07-0.12-0.13-0.25-0.2-0.36c-0.23-0.38-0.47-0.76-0.73-1.13c-0.6-0.83-1.09-1.59-1.76-2.37c-0.68-0.79-1.32-1.62-1.91-2.47
		c-0.85-1.23-1.62-2.52-2.29-3.86c-0.69-1.39-0.94-2.59-0.86-4.15c0.03-0.58,0.03-1.15,0.07-1.72c0.01-0.06,0.02-0.11,0.03-0.17
		c0.13-0.62,0.34-1.23,0.47-1.86c0.13-0.6,0.17-1.21,0.35-1.8c0.19-0.63,0.37-1.26,0.52-1.89c0.04-0.17,0.09-0.33,0.13-0.5
		c0.04-0.1,0.08-0.2,0.12-0.3c0.14-0.33,0.26-0.67,0.38-1.01c0.15-0.41,0.66-0.75,0.98-1.03c0.41-0.35,0.8-0.71,1.23-1.03
		c0.86-0.64,1.8-1.18,2.78-1.6c0.97-0.42,1.99-0.73,2.94-1.19c1.13-0.55,2.03-1.38,2.82-2.34c0.2-0.25,0.29-0.5,0.39-0.79
		c0.1-0.29,0.21-0.55,0.27-0.86c0.06-0.32,0.09-0.65,0.1-0.96c0.01-0.15,0.02-0.29,0.05-0.44c0.01-0.07,0.02-0.14,0.01-0.21
		c0-0.04,0.02-0.16-0.02-0.11c0.28-0.39-0.27-0.84-0.61-0.49c-0.2,0.21-0.2,0.39-0.26,0.65c-0.06,0.29-0.16,0.58-0.23,0.87
		c0,0.02-0.01,0.03-0.01,0.04c0.01-0.03-0.24,0.31-0.26,0.34c-0.11,0.17-0.21,0.34-0.34,0.5c-0.27,0.34-0.6,0.63-0.94,0.9
		c-0.72,0.56-1.55,0.97-2.36,1.37c-1.12,0.55-2.24,1.1-3.43,1.5c-1.21,0.41-2.27,0.57-3.53,0.37c-0.65-0.11-1.3-0.55-1.52-1.17
		c-0.07-0.2-0.12-0.39-0.23-0.57c-0.1-0.16-0.17-0.31-0.24-0.48c-0.06-0.13-0.14-0.24-0.2-0.36c-0.09-0.2-0.14-0.43-0.21-0.64
		c-0.14-0.4-0.3-0.8-0.4-1.21c-0.04-0.17-0.06-0.32-0.05-0.49c0.01-0.24-0.03-0.46-0.04-0.7c0.03-0.24,0.12-0.48,0.17-0.72
		c0.06-0.28,0.04-0.56,0.08-0.84c0.03-0.23,0.11-0.46,0.14-0.69c0.04-0.28,0.06-0.55,0.13-0.83c0.05-0.19,0.08-0.38,0.09-0.57
		c0.14-0.54,0.29-1.07,0.45-1.6c0.3-0.96,0.68-1.9,0.95-2.88c0.04-0.16,0.09-0.32,0.14-0.49c0.02-0.06,0.05-0.12,0.07-0.19
		c0.02-0.07,0.06-0.14,0.08-0.22c0.05-0.11,0.1-0.23,0.15-0.34c0.21-0.43,0.58-0.75,0.82-1.16c0.27-0.45,0.54-0.9,0.84-1.33
		c0.3-0.42,0.62-0.89,1.02-1.24c0.37-0.32,0.8-0.66,1.22-0.9c0.43-0.25,0.72-0.63,0.98-1.04c0.47-0.76,0.77-1.63,1.37-2.3
		c0.66-0.72,1.48-1.29,2.18-1.98c0.77-0.76,1.48-1.59,2.12-2.46c0.55-0.75,1.44-1.78,1.58-2.72c0.02-0.12-0.01-0.24,0.07-0.34
		c0.34-0.4-0.32-0.8-0.65-0.4c-0.02,0.03-0.04,0.06-0.06,0.09c-0.13-0.06-0.3-0.05-0.44,0.09c-0.39,0.37-0.6,0.93-0.86,1.41
		c-0.32,0.58-0.68,1.13-1.07,1.65c-0.48,0.63-1.01,1.22-1.59,1.76c-0.3,0.28-0.6,0.56-0.94,0.8c-0.17,0.12-0.63,0.44-0.81,0.44
		c-0.06,0-0.12,0-0.18,0.01c-0.14,0-0.22-0.05-0.3-0.22c-0.05-0.1-0.08-0.21-0.12-0.32c-0.04-0.12-0.11-0.23-0.15-0.36
		c-0.09-0.23-0.16-0.49-0.19-0.74c-0.03-0.23-0.02-0.48-0.03-0.71c0.01-0.08,0.01-0.17,0.02-0.25c0.01-0.09-0.04-0.14-0.1-0.17
		c-0.02-0.04-0.03-0.08-0.05-0.12c-0.04-0.08-0.12-0.11-0.19-0.11c-0.01-0.04-0.03-0.07-0.05-0.11c-0.21-0.31-0.73-0.04-0.56,0.31
		c0.03,0.06-0.02,0.21-0.01,0.29c0.01,0.11,0.06,0.2,0.09,0.3c0.13,0.47,0.15,1.11,0.19,1.6c0.04,0.56,0.01,1.12-0.09,1.67
		c-0.17,0.94-0.55,1.84-1.1,2.62c-0.49,0.69-1.44,0.95-1.86,1.66c-0.07-0.06-0.13-0.15-0.2-0.23c-0.27-0.33-0.57-0.58-0.9-0.85
		c-0.33-0.27-0.54-0.59-0.79-0.92c-0.25-0.34-0.51-0.63-0.72-1c-0.21-0.37-0.41-0.75-0.54-1.17c-0.14-0.46-0.32-0.91-0.39-1.4
		c-0.07-0.49-0.08-1-0.13-1.49c-0.02-0.23-0.09-0.46-0.11-0.69c-0.03-0.24,0.05-0.49-0.07-0.72c-0.01-0.02-0.03-0.04-0.05-0.07
		c0.02-0.03,0.04-0.11,0.05-0.13c0.03-0.11,0.05-0.22,0.05-0.33c0.01-0.17-0.06-0.44,0.02-0.6c0.12-0.22,0.1-0.49-0.12-0.62
		c-0.19-0.12-0.51-0.06-0.64,0.16c-0.22,0.39-0.15,0.74-0.22,1.14c-0.3,1.65-0.16,3.23,0.4,4.82c0.4,1.13,0.97,2.2,1.67,3.17
		c0.57,0.79,0.66,1.87,0.5,2.83c-0.12,0.73-0.29,1.46-0.5,2.17c-0.23,0.78-0.51,1.54-0.85,2.28c-0.25,0.56-0.6,1.69-1.15,2.02
		c-0.22,0.13-0.48,0.15-0.7,0.25c-0.29-0.41-0.69-0.72-0.94-1.15c-0.33-0.57-0.65-1.02-1.23-1.37c-0.64-0.39-1.37-0.6-2.08-0.83
		c-0.71-0.23-1.43-0.5-2.01-0.97c-1.02-0.84-1.57-2.31-2.03-3.51c-0.12-0.31-0.68-0.09-0.59,0.24c0.08,0.27,0.09,0.54,0.22,0.79
		c0.33,0.64,0.18,1.41,0.41,2.08c0.25,0.72,0.74,1.35,1.39,1.74c1.64,0.98,3.93,1.04,4.91,2.92c0.5,0.95,0.73,2.02,0.83,3.08
		c0.15,1.51,0.07,3.03,0.29,4.53c0.18,1.24,0.55,2.46,1.1,3.59c0.43,0.87,0.99,1.6,1.28,2.54c0.29,0.96,0.37,1.98,0.32,2.98
		c-0.08,1.49-0.45,2.95-0.81,4.4c-0.32,1.25-0.63,2.51-0.95,3.76c-0.13,0.5-0.27,0.81-0.53,1.23c-0.29,0.47-0.42,1.02-0.71,1.5
		c-0.11-0.05-0.23-0.1-0.34-0.14c-0.14-0.04-0.28-0.07-0.43-0.09c-0.04-0.02-0.09-0.04-0.13-0.06c-0.12-0.06-0.11-0.06-0.2-0.14
		c-0.55-0.45-1.24-0.75-1.82-1.17c-0.65-0.46-1.24-1.01-1.74-1.64c-0.53-0.66-0.96-1.4-1.33-2.17c-0.34-0.7-0.77-1.47-0.84-2.24
		c-0.03-0.36-0.03-0.74-0.01-1.1c0.01-0.42,0.04-0.84,0.08-1.26c0.04-0.44,0.19-0.87,0.33-1.29c0.07-0.22,0.13-0.45,0.19-0.67
		c0.26-0.46,0.51-0.92,0.71-1.42c0.29-0.69,0.54-1.41,0.78-2.12c0.26-0.77,0.36-1.56,0.47-2.34c0.23-1.57,0.01-3.55-0.81-4.93
		c-0.03-0.05-0.07-0.07-0.11-0.08c-0.16-0.04-0.19-0.33-0.48-0.34c-0.23,0-0.43,0.14-0.53,0.35c-0.08,0.17-0.09,0.37-0.1,0.56
		c-0.04,0.76-0.18,1.47,0.12,2.17c0.02,0.05,0.04,0.1,0.07,0.15c-0.08-0.17,0.03,0.11,0.04,0.16c0.03,0.14,0.05,0.28,0.07,0.42
		c0,0.04,0.01,0.08,0.01,0.12c0,0.01,0,0.08,0,0.13c-0.03-0.02-0.06-0.04-0.1-0.06c-0.37-0.18-0.73-0.37-1.1-0.55
		c-1.67-0.83-2.99-1.95-3.23-3.91c-0.06-0.45-0.14-0.79-0.42-1.12c0.23-0.39-0.25-0.84-0.64-0.49c-0.92,0.82-0.2,2.95,0.23,3.89
		c0.74,1.58,1.9,2.45,3.38,3.23c0.28,0.28,0.62,0.49,0.86,0.82c0.1,0.14,0.11,0.32,0.16,0.48c0.01,0.02,0.02,0.05,0.02,0.07
		c0.02,0.31-0.02,0.6-0.09,0.92c-0.3,1.33-0.82,2.6-1.45,3.79c-0.32,0.61-0.68,1.21-1.06,1.79c-0.12,0.19-1,1.43-0.83,1.63
		c-0.07-0.09-0.15-0.17-0.22-0.26c-0.06-0.08-0.12-0.16-0.18-0.24c-0.01-0.01-0.04-0.05-0.05-0.07c-0.8-1.13-1.54-2.42-2.07-3.72
		c-0.28-0.68-0.5-1.38-0.66-2.1c-0.15-0.7,0.02-1.31-0.03-2.03c-0.16-2.39-0.25-4.78-0.33-7.17c-0.04-1.12-0.27-2.4-0.11-3.51
		c0.14-1.02,0.25-2.07,0.39-3.1c0.17-1.27,0.07-2.75,0.74-3.89c0.55-0.95,1.49-1.39,2.13-2.22c0.74-0.95,1.25-2.03,1.63-3.17
		c0.25-0.78,0.33-1.72,0.67-2.46c0.33-0.71,1.02-0.66,1.68-0.82c1.13-0.27,2.76-0.29,3.7-1.04c0.36-0.25,0.77-0.62,0.87-1.06
		c0.02-0.03,0.04-0.06,0.07-0.09c0.08-0.09,0.07-0.19,0.02-0.26c0-0.07-0.01-0.13-0.04-0.19c-0.19-0.36-0.61-0.15-0.89,0.02
		c-0.59,0.35-0.98,0.8-1.68,0.99c-0.49,0.13-1,0.11-1.48,0.22c-0.4,0.09-0.77,0.29-1.18,0.36c-0.3,0.05-0.75,0.08-1.07-0.02
		c-0.09-0.09-0.16-0.18-0.22-0.31c-0.28-0.64-0.36-1.3-0.2-2c0.05-0.22,0.13-0.44,0.16-0.66c0.03-0.28-0.08-0.89-0.48-0.83
		c-0.1,0.01-0.19,0.06-0.24,0.15c-0.03,0.04-0.06,0.09-0.08,0.13c0-0.01,0-0.03,0.01-0.04c0.06-0.19-0.2-0.31-0.31-0.13
		c-0.22,0.35-0.24,0.68-0.24,1.06c0,0.08-0.01,0.17-0.01,0.25c-0.3,1.17,0.14,2.25,0.09,3.42c-0.08,1.86-0.96,3.63-2.08,5.08
		c-0.37,0.48-0.78,0.92-1.22,1.34c-0.11,0.1-1.39,1.06-1.37,1.1c-0.04-0.08-0.08-0.17-0.11-0.26c-0.07-0.18-0.09-0.38-0.14-0.57
		c-0.07-0.25-0.22-0.42-0.32-0.65c-0.09-0.2-0.08-0.44-0.18-0.65c-0.08-0.18-0.22-0.34-0.27-0.54c-0.03-0.12-0.03-0.26-0.05-0.38
		c-0.11-0.49-0.17-0.73-0.07-1.24c0.1-0.5,0.23-0.98,0.4-1.46c0.21-0.6,0.48-1.17,0.79-1.72c0.31-0.54,0.69-0.95,0.74-1.59
		c0.02-0.36,0.03-0.72,0.02-1.08c0-0.3-0.43-0.3-0.47,0c-0.02,0.14-0.04,0.28-0.07,0.43c-0.04,0.13-0.08,0.26-0.11,0.39
		c-0.01,0.03-0.02,0.06-0.03,0.09c-0.12,0.25-0.33,0.39-0.5,0.59c-0.24,0.28-0.43,0.61-0.64,0.91c-0.64,0.91-1.26,1.81-1.94,2.69
		c-0.03,0.04-0.06,0.09-0.09,0.13c-0.27-0.11-0.54-0.14-0.84-0.15c-0.02,0-0.05,0-0.06,0c-0.85-0.14-1.62-0.69-2.28-1.21
		c-0.68-0.53-1.39-1.04-2.05-1.59c-0.21-0.18-0.51-0.22-0.75,0c-0.21,0.19-0.25,0.55-0.06,0.74c0.22,0.21,0.45,0.41,0.68,0.6
		c0.11,0.09,0.23,0.17,0.32,0.28c0.42,0.47,0.71,1.02,1.17,1.47c0.68,0.66,1.57,1.24,2.5,1.44c0.27,0.22,0.51,0.45,0.73,0.75
		c0.83,1.11,1.48,2.37,1.8,3.72c0.34,1.42,0.14,2.77-0.02,4.18c-0.04,0.32-0.14,0.63-0.17,0.96c-0.01,0.16-0.02,0.31-0.07,0.47
		c-0.02,0.06-0.04,0.13-0.05,0.19c-0.03-0.03-0.07-0.07-0.1-0.1c-0.24-0.21-0.5-0.36-0.76-0.52c-0.06-0.03-0.11-0.07-0.17-0.11
		c-0.01-0.01-0.09-0.08-0.1-0.09c-1.2-1.23-2.62-2.23-4.08-3.14c-0.75-0.46-1.51-0.9-2.28-1.32c-0.31-0.17-0.64-0.31-0.88-0.56
		c-0.26-0.27-0.45-0.61-0.73-0.88c-0.19-0.18-0.52-0.28-0.62-0.53c-0.16-0.4-0.83-0.12-0.74,0.3c0.09,0.41,0.5,0.78,0.7,1.16
		c0.26,0.5,0.6,0.96,0.98,1.38c0.78,0.86,1.72,1.55,2.67,2.19c1.46,0.98,2.94,1.9,4.1,3.24c0.22,0.25,0.46,0.44,0.62,0.73
		c0.22,0.41,0.38,0.88,0.58,1.31c0.4,0.87,0.8,1.74,1.05,2.66c0.41,1.48,0.61,3.01,0.7,4.54c0.05,0.77,0.08,1.53,0.09,2.3
		c0.01,0.35,0.11,1.38-0.33,1.54c-0.17,0.06-0.35,0-0.51-0.05c-0.65-0.22-1.32-0.42-1.96-0.67c-0.07-0.03-0.14-0.05-0.21-0.08
		c-1.26-0.71-2.72-1.19-4.04-1.81c-0.43-0.21-0.87-0.41-1.3-0.62c-0.3-0.14-0.96-0.6-1.01,0.04c-0.06,0.8,0.43,1.42,1.02,1.86
		c0.67,0.5,1.55,0.59,2.32,0.91c0.49,0.2,0.94,0.46,1.42,0.65c1.5,0.59,2.7,1.6,3.73,2.81c0.95,1.11,1.68,2.4,2.49,3.61
		c0.89,1.33,1.77,2.66,2.81,3.87c0.36,0.41,0.76,0.76,1.13,1.15c0.35,0.36,0.6,0.81,0.93,1.19c0.02,0.02,0.04,0.04,0.05,0.06
		c-0.36,0-0.73,0.05-1.09,0.18c-0.14,0.05-0.29,0.09-0.43,0.16c-0.02,0.01-0.05,0.01-0.08,0.02c-0.07,0-0.13,0-0.2-0.01
		c-0.95-0.03-1.7,0.45-2.53,0.85c-0.93,0.45-1.86,0.91-2.79,1.36c-1.09,0.53-2.19,1.06-3.35,1.4c-0.69,0.2-1.41,0.33-2.13,0.33
		c-0.76,0.01-1.46-0.23-2.21-0.26c-0.73-0.03-1.49-0.4-2.21-0.61c-0.91-0.27-1.4,1.14-0.51,1.43c0.66,0.22,1.32,0.56,2.01,0.68
		c0.33,0.06,0.67,0.04,0.93,0.14c1.71,0.66,3.64,0.61,5.37,0.06c1.47-0.47,2.84-1.22,4.24-1.88c2.25-1.07,4.34-1.76,6.79-0.99
		c1.23,0.38,2.4,0.94,3.48,1.63c1.14,0.74,1.99,1.73,3.03,2.56c0.05,0.04,0.1,0.08,0.16,0.12c0.02,0.01,0.11,0.08,0.14,0.11
		c0.09,0.08,0.19,0.16,0.28,0.25c0.36,0.34,0.71,0.67,1.11,0.94c0.04,0.05,0.07,0.1,0.1,0.15c0.12,0.21,0.22,0.44,0.35,0.65
		c0.13,0.22,0.23,0.45,0.31,0.68c0,0-0.13,0.02-0.17,0.03c-0.03,0-0.08,0.01-0.08,0.01c-0.07,0.01-0.15,0.01-0.22,0.02
		c-0.11,0.01-0.22,0.02-0.33,0.03c-1.65,0.18-3.33,0.99-4.94,1.43c-1.75,0.48-3.71,0.67-5.39,1.29c-1.5,0.55-2.94,1.58-4.33,2.37
		c-0.09,0.05-0.17,0.09-0.26,0.13c-0.04,0.02-0.09,0.04-0.14,0.06c-0.1,0.04-0.21,0.07-0.31,0.11c-0.21,0.07-0.42,0.13-0.64,0.18
		c-1.87,0.45-3.21-0.4-4.94-0.94c-1.3-0.41-2.66-0.49-3.98-0.78c-1.34-0.29-2.1-1.02-3.25-1.68c-0.39-0.22-0.79-0.42-1.18-0.63
		c-0.35-0.19-0.83-0.09-1.07,0.27c-0.23,0.35-0.16,0.85,0.19,1.04c0.76,0.43,1.52,0.84,2.18,1.38c1.4,1.15,3.26,1.38,4.98,1.7
		c0.91,0.17,1.83,0.36,2.69,0.73c0.4,0.17,0.76,0.48,1.16,0.63c0.44,0.17,0.96,0.13,1.42,0.2c0.46,0.07,0.91,0.02,1.38-0.05
		c0.46-0.06,0.92-0.13,1.37-0.26c1.58-0.43,2.98-1.37,4.55-1.78c0.83-0.22,1.7-0.26,2.54-0.44c2.09-0.45,4.05-1.33,6.18-1.64
		c1.45-0.22,2.94-0.38,4.41-0.23c1.63,0.17,2.72,0.82,3.86,1.95c0.03,0.03,0.07,0.07,0.1,0.1c0.03,0.08,0.07,0.15,0.11,0.22
		c0.24,0.41,0.48,0.8,0.75,1.19c0.36,0.79,0.66,1.6,1.02,2.38c0.39,0.83,0.82,1.64,1.17,2.49c0.04,0.11,0.09,0.22,0.13,0.32
		c0.01,0.03,0.05,0.13,0.07,0.18c0.01,0.03,0.03,0.08,0.03,0.09c0.02,0.05,0.03,0.1,0.04,0.14c0.04,0.13,0.08,0.26,0.12,0.39
		c0.14,0.41,0.3,0.8,0.48,1.19c0.06,0.14,0.12,0.29,0.17,0.43c1.49,4.11,1.85,9.15,0.65,13.6c-0.65,2.42-1.94,4.7-2.37,7.15
		c-0.01,0.07-0.02,0.14-0.03,0.2c-0.26,0.51-0.44,1.03-0.31,1.44c0.23,0.74,1.65,1.1,2.28,1.46c1.43,0.83,2,2.77,2.74,4.15
		c0.8,1.53,1.48,2.95,1.32,4.72c-0.16,1.76-0.25,4.24-1.26,5.74c-0.91,1.35-2.57,2.03-3.79,3.02c-0.99,0.8-1.89,2.02-1.7,3.38
		c0.08,0.59,0.35,1.22,0.59,1.82c2.68,0.02,5.35-0.14,7.98-0.52c1.03-0.15,2.07-0.27,3.1-0.41c0.29-0.67,0.59-1.35,0.93-2.01
		c0.77-1.52,2.3-2.92,0.37-3.97c-0.79,1.15-2.46,1.81-3.53,2.69c-0.83,0.68-1.87,1.37-2.82,1.87c0.36-0.19,0.79-1.02,0.97-1.38
		c0.23-0.46,0.48-0.81,0.88-1.16c1.18-1.04,2.75-2.31,3.33-3.82c1.02-2.68-0.08-4.81-0.86-7.35c-0.02-0.07-0.04-0.14-0.06-0.21
		c-0.22-0.78-0.31-1.6-0.54-2.37c-0.19-0.65-0.09-1.08,0.35-1.6c0.93-1.1,1.21-2.64,1.38-4.02c0.19-1.58,0.15-3.12,0.17-4.7
		c0.02-1.24,0.03-2.49,0.05-3.73c0.37-3.68,0.21-7.54-0.59-10.85c-0.04-0.16-0.07-0.31-0.11-0.47c0.09-0.12,0.19-0.23,0.27-0.34
		C95,98.69,97,96.9,99.2,95.4c0.55-0.38,1.14-0.71,1.7-1.08c0.37-0.25,0.66-0.6,1.06-0.8c1.33-0.67,2.89-1.06,4.29-1.56
		c1.54-0.56,3.08-1.11,4.62-1.67c2.26-0.82,4.51-1.63,6.74-2.53c1.29-0.52,2.59-1.07,3.74-1.87c1.68-1.16,2.58-2.83,3.54-4.57
		c0.57-1.03,1.19-2.04,1.84-3.03c0.33-0.5,0.68-1,1.03-1.49c0.28-0.38,0.73-0.79,0.94-1.21c0.1-0.13,0.16-0.27,0.27-0.38
		c0.13-0.13,0.26-0.24,0.36-0.39c0.1-0.16,0.17-0.32,0.28-0.47c0.12-0.17,0.25-0.34,0.36-0.52c0.06-0.06,0.12-0.13,0.17-0.21
		c0.14-0.22,0.3-0.43,0.48-0.63c0.06-0.07,0.06-0.16,0.03-0.22c0.08-0.1,0.15-0.2,0.21-0.31c0.18-0.29-0.21-0.52-0.42-0.26
		c-0.64,0.78-1.41,1.48-2.09,2.23c-0.77,0.85-1.54,1.69-2.31,2.54c0.09-0.1-1.95-2.78-2.14-3.06c-0.6-0.85-1.37-1.82-1.5-2.88
		c-0.03-0.28-0.49-0.23-0.52,0.04c-0.09,0.05-0.15,0.14-0.15,0.26c0.01,0.2,0.04,0.37,0.1,0.55c0.05,0.17,0.06,0.36,0.13,0.52
		c0.39,0.93,1.01,1.72,1.35,2.69c0.35,1.02,0.51,2.11,0.43,3.18c-0.16,2.42-1.42,4.58-3.39,5.96c-2.22,1.56-4.61,2.2-7.2,2.81
		c-1.11,0.26-2.22,0.52-3.33,0.78c-0.64,0.15-1.52,0.36-2.08-0.11c-0.78-0.66,0.19-2.29,0.56-2.94c0.27-0.49,0.48-0.98,0.7-1.49
		c0.22-0.49,0.47-0.97,0.68-1.47c0.23-0.51,0.36-1.05,0.57-1.56c0.11-0.26,0.21-0.53,0.31-0.79c0.02-0.03,0.04-0.06,0.05-0.09
		c0.14-0.26,0.29-0.51,0.44-0.77c0.16-0.27,0.25-0.55,0.4-0.82c0.32-0.56-0.46-1.05-0.81-0.49c-2.12,3.42-3.77,7.2-5.57,10.82
		c-0.38,0.76-0.77,1.53-1.39,2.1c-0.54,0.49-1.25,0.75-1.9,1.07c-0.75,0.36-1.5,0.73-2.25,1.09c-2.27,1.1-4.57,2.14-6.69,3.52
		c-0.28,0.18-0.56,0.37-0.84,0.56c-0.05-0.05-0.11-0.07-0.18-0.07c-0.08,0-0.59-1.67-0.64-1.82c-0.23-0.72-0.41-1.46-0.53-2.21
		c-0.66-4.03,0.27-8.39,2.24-11.95c0.6-1.08,1.09-2.17,1.89-3.14c0.79-0.95,1.74-1.77,2.8-2.41c1.43-0.86,3.04-1.37,4.63-1.87
		c2.24-0.71,4.48-1.42,6.72-2.13c1.12-0.35,2.24-0.71,3.36-1.06c0.95-0.3,1.81-0.73,2.78-0.95c0.76-0.17,1.51-0.33,2.26-0.39
		c0.2-0.02,0.38-0.09,0.58-0.11c0.23-0.02,0.46-0.05,0.69-0.11c0.43-0.1,0.81-0.18,1.25-0.12c0.27,0.04,0.54-0.06,0.64-0.35
		c0.09-0.25-0.04-0.55-0.3-0.61c-0.42-0.1-0.93-0.19-1.37-0.19c-0.55-0.01-1.04,0.31-1.61,0.23c-0.53-0.07-1.06-0.53-1-1.07
		c0.03-0.26,0.18-0.48,0.33-0.7c0.8-1.14,1.59-2.28,2.45-3.38c0.43-0.54,0.85-1.11,1.34-1.6c0.36-0.37,0.88-0.63,1.31-0.93
		c0.1-0.05,0.2-0.1,0.3-0.15c0.32-0.16,0.67-0.24,1-0.38c0.34-0.14,0.69-0.34,0.99-0.58c0.28-0.22,0.58-0.33,0.9-0.48
		c0.37-0.17,0.72-0.36,1.06-0.57c0.55-0.34,0.15-1.16-0.43-0.85c-0.34,0.19-0.69,0.36-1.06,0.5c-1.56,0.6-3.1,1.41-4.63,2.1
		c0.11-0.51,0.23-1.01,0.34-1.52C120.35,56.63,120.57,55.64,120.79,54.65z M121.35,51.76c-0.09,0.11-0.18,0.23-0.25,0.35
		c-0.03,0-0.05,0-0.07,0.01C121.12,51.99,121.23,51.87,121.35,51.76z M112.69,35.96c0.01,0,0.02,0.01,0.03,0.01
		c-0.01,0.01-0.02,0.01-0.04,0.02c-0.01-0.02-0.03-0.03-0.04-0.05C112.66,35.94,112.68,35.95,112.69,35.96z M112.16,35.37
		c0,0.01,0,0.01,0,0.02c-0.01-0.01-0.02-0.02-0.02-0.04C112.14,35.36,112.15,35.36,112.16,35.37z M111.38,36.23
		c0,0.01,0,0.01,0,0.02C111.38,36.25,111.38,36.24,111.38,36.23C111.38,36.23,111.38,36.23,111.38,36.23z M109.55,31.17
		c0.06,0.07,0.11,0.13,0.16,0.2c0.02,0.02,0.03,0.05,0.04,0.08C109.69,31.36,109.62,31.27,109.55,31.17z M108.18,42.39
		c-0.03,0.03-0.05,0.05-0.07,0.08c-0.01-0.02-0.01-0.03-0.02-0.05C108.12,42.41,108.15,42.4,108.18,42.39z M107.97,41.5
		c0.04,0,0.08,0.01,0.12,0.01c-0.09,0.04-0.18,0.06-0.26,0.05c-0.05-0.01-0.09-0.04-0.12-0.08C107.8,41.49,107.89,41.49,107.97,41.5
		z M104.82,49.08c-0.02,0.05-0.04,0.1-0.06,0.15c-0.03-0.05-0.05-0.09-0.08-0.14c0,0,0-0.01-0.01-0.01
		C104.72,49.08,104.77,49.08,104.82,49.08z M104.24,55.13C104.24,55.13,104.24,55.14,104.24,55.13c0.03,0.02,0.05,0.04,0.07,0.06
		c-0.04,0.02-0.07,0.04-0.11,0.07C104.22,55.21,104.23,55.17,104.24,55.13z M87.92,48.76c0.02-0.01,0.03-0.01,0.05-0.02
		c0,0.01,0,0.02,0,0.03C87.95,48.76,87.93,48.76,87.92,48.76z M89.11,48.35c0.04-0.03,0.09-0.05,0.13-0.08
		c0.05,0.04,0.11,0.08,0.16,0.13C89.31,48.37,89.21,48.36,89.11,48.35z M89.93,47.26c-0.02-0.01-0.03-0.03-0.04-0.04
		c0-0.01,0.01-0.01,0.01-0.02c0-0.01,0.01-0.02,0.01-0.02C89.91,47.21,89.92,47.23,89.93,47.26C89.93,47.26,89.93,47.26,89.93,47.26
		z M95.46,42.78C95.46,42.78,95.46,42.78,95.46,42.78C95.49,42.75,95.48,42.77,95.46,42.78z M82.95,35.71
		c-0.04,0.03-0.08,0.06-0.12,0.08c0-0.03-0.01-0.05-0.01-0.08c0-0.01,0-0.03,0-0.04C82.86,35.69,82.9,35.7,82.95,35.71z
		 M73.45,48.62C73.39,48.64,73.41,48.63,73.45,48.62L73.45,48.62z M62.9,28.65C62.9,28.65,62.9,28.65,62.9,28.65
		C62.9,28.65,62.9,28.65,62.9,28.65C62.9,28.65,62.9,28.65,62.9,28.65z M60.61,65.55c0,0.01,0.01,0.01,0.01,0.02
		C60.62,65.59,60.62,65.6,60.61,65.55z M64.63,67.94c0.01-0.09,0.01-0.19,0.02-0.28c0,0.11,0,0.23,0,0.34
		C64.65,67.98,64.64,67.96,64.63,67.94z M64.6,67.25c0.02-0.1,0.04-0.2,0.07-0.3c0,0.13,0,0.26,0,0.4
		C64.66,67.31,64.63,67.27,64.6,67.25z M98.71,69.54C98.71,69.54,98.71,69.53,98.71,69.54C98.71,69.53,98.71,69.54,98.71,69.54
		C98.71,69.54,98.71,69.54,98.71,69.54z M98.99,58.64c0,0-0.01,0.01-0.01,0.01c-0.02-0.07-0.04-0.13-0.06-0.2
		c0.05,0.02,0.1,0.05,0.16,0.07C99.05,58.57,99.02,58.6,98.99,58.64z M101.01,72.3c-0.03,0.01-0.05,0.02-0.08,0.02
		c0-0.02,0-0.03,0-0.05c0.06-0.02,0.11-0.05,0.17-0.07c0.11,0.01,0.23,0.01,0.34,0.02C101.29,72.24,101.15,72.26,101.01,72.3z
		 M114.88,67.28c-0.04,0.01-0.07,0.02-0.11,0.02c0.06-0.06,0.11-0.12,0.17-0.18C114.92,67.17,114.89,67.23,114.88,67.28z"/>
	<g id="leaves2">
		<path d="M132.71,78.42c-0.51-0.23-1.04-0.38-1.59-0.44c-0.26-0.03-0.53-0.05-0.79-0.04c-0.12,0-0.24-0.01-0.35,0
			c-0.08,0.01-0.4,0.15-0.45,0.12c0.96,0.55,1.93,1.12,2.8,1.82c0.87,0.7,1.66,1.54,2.2,2.54c-0.54-0.33-0.97-0.81-1.44-1.24
			c-1.2-1.09-2.66-1.8-4.11-2.5c-0.12-0.06-0.26-0.12-0.38-0.07c0.62,1.48,1.65,2.74,2.9,3.68c1.25,0.94,2.71,1.55,4.22,1.86
			c-0.38-1.1-0.27-2.35-0.7-3.44C134.58,79.65,133.7,78.87,132.71,78.42z"/>
		<path d="M129.25,85.14c-0.39-0.33-0.82-0.61-1.29-0.82c-0.22-0.1-0.46-0.18-0.69-0.25c-0.1-0.03-0.21-0.08-0.31-0.1
			c-0.08-0.02-0.39,0.02-0.44-0.02c0.7,0.74,1.4,1.49,1.98,2.34c0.58,0.84,1.05,1.78,1.25,2.8c-0.39-0.43-0.63-0.97-0.93-1.47
			c-0.76-1.27-1.87-2.29-2.96-3.28c-0.09-0.08-0.2-0.17-0.32-0.16c0.14,1.45,0.7,2.83,1.55,3.98c0.85,1.15,1.98,2.08,3.24,2.76
			c-0.03-1.06,0.42-2.11,0.34-3.17C130.58,86.72,130.01,85.8,129.25,85.14z"/>
		<path d="M125.81,59.24c0.58,1.23,1.53,2.23,2.69,2.9c1.15,0.67,2.5,1.04,3.89,1.12c-0.36-0.93-0.26-2.05-0.66-2.96
			c-0.39-0.89-1.21-1.47-2.12-1.74c-0.47-0.14-0.96-0.2-1.46-0.19c-0.24,0-0.48,0.02-0.73,0.06c-0.11,0.02-0.22,0.02-0.32,0.04
			c-0.08,0.02-0.36,0.18-0.42,0.16c0.89,0.37,1.77,0.75,2.58,1.26c0.81,0.51,1.53,1.15,2.03,1.98c-0.5-0.22-0.89-0.6-1.33-0.92
			c-1.11-0.82-2.46-1.26-3.79-1.7C126.05,59.22,125.92,59.18,125.81,59.24z"/>
		<path d="M108.68,78.36c-0.05-0.04-0.03-0.34-0.06-0.41c-0.03-0.09-0.08-0.19-0.12-0.29c-0.08-0.22-0.18-0.43-0.29-0.63
			c-0.24-0.42-0.53-0.81-0.88-1.15c-0.69-0.67-1.6-1.14-2.6-1.14c-1.01-0.01-1.98,0.48-2.99,0.52c0.75,1.13,1.72,2.13,2.88,2.84
			c1.16,0.72,2.52,1.16,3.91,1.19c0-0.12-0.09-0.21-0.18-0.29c-1.03-0.95-2.09-1.92-3.36-2.55c-0.5-0.25-1.03-0.44-1.47-0.78
			c0.98,0.12,1.91,0.49,2.76,0.98C107.15,77.15,107.92,77.75,108.68,78.36z"/>
		<path d="M111.28,61.07c-1.43,0.46-2.87,0.93-4.15,1.74c-0.5,0.32-0.98,0.69-1.52,0.91c0.67-0.79,1.53-1.42,2.44-1.93
			c0.91-0.51,1.88-0.9,2.85-1.29c-0.06,0.02-0.31-0.12-0.39-0.13c-0.1-0.02-0.21-0.01-0.32-0.03c-0.24-0.03-0.48-0.03-0.72-0.03
			c-0.5,0.01-1.02,0.09-1.51,0.24c-0.98,0.29-1.91,0.87-2.49,1.72c-0.59,0.86-0.72,1.91-1.27,2.79c1.42-0.14,2.84-0.53,4.14-1.21
			c1.3-0.68,2.46-1.64,3.29-2.82C111.54,60.99,111.4,61.03,111.28,61.07z"/>
		<path d="M110,58.13c-0.04,0-0.12-0.15-0.15-0.18c-0.04-0.04-0.1-0.07-0.15-0.1c-0.11-0.08-0.22-0.15-0.35-0.21
			c-0.25-0.13-0.53-0.23-0.81-0.28c-0.56-0.11-1.18-0.06-1.7,0.24c-0.53,0.3-0.88,0.82-1.4,1.14c0.74,0.31,1.54,0.49,2.37,0.48
			c0.83-0.01,1.67-0.21,2.4-0.61c-0.04-0.06-0.11-0.07-0.18-0.09c-0.83-0.14-1.67-0.29-2.52-0.2c-0.33,0.03-0.67,0.1-1,0.07
			c0.55-0.24,1.15-0.34,1.74-0.36C108.83,58.02,109.41,58.07,110,58.13z"/>
		<path d="M38.93,91.07c-0.62,0.2-1.23,0.47-1.88,0.54c0.94-0.7,2.03-1.14,3.15-1.42c1.11-0.28,2.25-0.4,3.39-0.51
			c-0.07,0.01-0.3-0.25-0.37-0.3c-0.1-0.06-0.22-0.09-0.33-0.15c-0.24-0.12-0.5-0.21-0.75-0.29c-0.54-0.17-1.1-0.25-1.67-0.25
			c-1.12,0-2.28,0.35-3.13,1.15c-0.87,0.82-1.31,2.02-2.14,2.87c1.54,0.34,3.17,0.39,4.74,0.05c1.57-0.34,3.08-1.08,4.29-2.18
			c-0.09-0.1-0.25-0.1-0.39-0.1C42.19,90.53,40.51,90.57,38.93,91.07z"/>
		<path d="M42.01,76.64c-0.02-0.18-0.16-0.29-0.29-0.39c-1.58-1.18-3.19-2.38-5.05-3.03c-0.73-0.25-1.5-0.43-2.16-0.82
			c1.39-0.04,2.74,0.31,3.99,0.84c1.25,0.53,2.42,1.25,3.56,1.99c-0.07-0.04-0.1-0.49-0.14-0.59c-0.06-0.13-0.14-0.27-0.21-0.4
			c-0.15-0.3-0.32-0.59-0.5-0.87c-0.39-0.57-0.86-1.09-1.4-1.51c-1.06-0.83-2.4-1.33-3.78-1.12c-1.41,0.21-2.68,1.15-4.08,1.43
			c1.21,1.51,2.71,2.76,4.43,3.57C38.11,76.55,40.07,76.9,42.01,76.64z"/>
		<path d="M43.57,38.38c0.04-0.17-0.06-0.34-0.15-0.48c-1.12-1.69-2.26-3.41-3.81-4.7c-0.61-0.51-1.28-0.95-1.77-1.56
			c1.31,0.47,2.47,1.28,3.49,2.24c1.01,0.96,1.88,2.06,2.74,3.17c-0.05-0.07,0.06-0.5,0.05-0.61c-0.01-0.15-0.05-0.3-0.07-0.45
			c-0.05-0.34-0.11-0.68-0.21-1c-0.19-0.69-0.47-1.34-0.85-1.94c-0.73-1.17-1.84-2.12-3.21-2.43c-1.39-0.31-2.87,0.12-4.27-0.13
			c0.67,1.87,1.7,3.6,3.07,4.99C39.94,36.88,41.67,37.92,43.57,38.38z"/>
		<path d="M127.85,35.57c-1.3,1.04-2.29,2.43-3.27,3.8c-0.08,0.11-0.17,0.25-0.15,0.39c1.53-0.37,2.96-1.21,4.12-2.34
			c1.16-1.12,2.07-2.53,2.7-4.04c-1.13,0.2-2.29-0.15-3.41,0.1c-1.1,0.24-2.03,1.01-2.68,1.96c-0.33,0.48-0.59,1.01-0.77,1.57
			c-0.09,0.27-0.16,0.54-0.21,0.81c-0.02,0.12-0.06,0.25-0.08,0.37c-0.01,0.09,0.05,0.44,0.01,0.49c0.74-0.9,1.48-1.79,2.34-2.57
			s1.82-1.44,2.89-1.82C128.91,34.81,128.36,35.16,127.85,35.57z"/>
		<path d="M126.9,44.99c-0.04,0.09-0.09,0.19-0.06,0.28c1.03-0.44,1.92-1.18,2.59-2.08c0.67-0.9,1.13-1.96,1.39-3.06
			c-0.76,0.27-1.61,0.17-2.36,0.48c-0.74,0.3-1.29,0.93-1.63,1.65c-0.17,0.37-0.29,0.76-0.35,1.16c-0.03,0.19-0.05,0.38-0.05,0.58
			c0,0.08-0.01,0.18-0.01,0.26c0,0.06,0.09,0.29,0.07,0.33c0.4-0.7,0.82-1.39,1.32-2.02c0.5-0.63,1.09-1.19,1.79-1.58
			c-0.24,0.39-0.58,0.7-0.89,1.04C127.93,42.89,127.41,43.95,126.9,44.99z"/>
		<path d="M131.45,40.04c0.4-0.7,0.82-1.39,1.32-2.02c0.5-0.63,1.09-1.19,1.79-1.58c-0.24,0.39-0.58,0.7-0.89,1.04
			c-0.78,0.86-1.3,1.92-1.82,2.97c-0.04,0.09-0.09,0.19-0.06,0.28c1.03-0.44,1.92-1.18,2.59-2.08c0.67-0.9,1.13-1.96,1.39-3.06
			c-0.76,0.27-1.61,0.17-2.36,0.48c-0.74,0.3-1.29,0.93-1.63,1.65c-0.17,0.37-0.29,0.76-0.35,1.16c-0.03,0.19-0.05,0.38-0.05,0.58
			c0,0.08-0.01,0.18-0.01,0.26C131.39,39.77,131.48,39.99,131.45,40.04z"/>
		<path d="M107.24,24.95c0.4-0.7,0.82-1.39,1.32-2.02c0.5-0.63,1.09-1.19,1.79-1.58c-0.24,0.39-0.58,0.7-0.89,1.04
			c-0.78,0.86-1.3,1.92-1.82,2.97c-0.04,0.09-0.09,0.19-0.06,0.28c1.03-0.44,1.92-1.18,2.59-2.08c0.67-0.9,1.13-1.96,1.39-3.06
			c-0.76,0.27-1.61,0.17-2.36,0.48c-0.74,0.3-1.29,0.93-1.63,1.65c-0.17,0.37-0.29,0.76-0.35,1.16c-0.03,0.19-0.05,0.38-0.05,0.58
			c0,0.08-0.01,0.18-0.01,0.26C107.17,24.68,107.26,24.91,107.24,24.95z"/>
		<path d="M114.65,25.54c0.29-0.5,0.59-1,0.95-1.45c0.36-0.45,0.79-0.86,1.29-1.13c-0.17,0.28-0.42,0.5-0.64,0.74
			c-0.56,0.62-0.94,1.38-1.31,2.13c-0.03,0.06-0.06,0.14-0.04,0.2c0.74-0.31,1.38-0.85,1.86-1.49c0.48-0.65,0.81-1.41,1-2.2
			c-0.55,0.19-1.16,0.13-1.7,0.34c-0.53,0.21-0.93,0.67-1.17,1.19c-0.12,0.26-0.21,0.54-0.25,0.83c-0.02,0.14-0.03,0.28-0.04,0.41
			c0,0.06-0.01,0.13-0.01,0.19C114.6,25.35,114.67,25.51,114.65,25.54z"/>
		<path d="M92.51,57.63c-0.48-0.2-0.99-0.32-1.51-0.37c-0.25-0.03-0.5-0.03-0.75-0.03c-0.11,0-0.23-0.01-0.34,0
			c-0.08,0.01-0.38,0.14-0.43,0.11c0.91,0.48,1.83,0.97,2.65,1.58c0.83,0.61,1.57,1.34,2.07,2.23c-0.51-0.28-0.92-0.71-1.36-1.08
			c-1.13-0.95-2.52-1.56-3.89-2.16c-0.12-0.05-0.25-0.1-0.37-0.05c0.58,1.31,1.55,2.42,2.73,3.23c1.18,0.82,2.57,1.34,4.01,1.6
			c-0.36-0.97-0.24-2.09-0.64-3.05C94.28,58.7,93.45,58.02,92.51,57.63z"/>
		<path d="M89.43,62.16c-0.39-0.33-0.82-0.61-1.29-0.82c-0.22-0.1-0.46-0.18-0.69-0.25c-0.1-0.03-0.21-0.08-0.31-0.1
			c-0.08-0.02-0.39,0.02-0.44-0.02c0.7,0.74,1.4,1.49,1.98,2.34c0.58,0.84,1.05,1.78,1.25,2.8c-0.39-0.43-0.63-0.97-0.93-1.47
			c-0.76-1.27-1.87-2.29-2.96-3.28c-0.09-0.08-0.2-0.17-0.32-0.16c0.14,1.45,0.7,2.83,1.55,3.98c0.85,1.15,1.98,2.08,3.24,2.76
			c-0.03-1.06,0.42-2.11,0.34-3.17C90.75,63.74,90.19,62.82,89.43,62.16z"/>
		<path d="M72.58,61.96c-0.39-0.33-0.82-0.61-1.29-0.82c-0.22-0.1-0.46-0.18-0.69-0.25c-0.1-0.03-0.21-0.08-0.31-0.1
			c-0.08-0.02-0.39,0.02-0.44-0.02c0.7,0.74,1.4,1.49,1.98,2.34c0.58,0.84,1.05,1.78,1.25,2.8c-0.39-0.43-0.63-0.97-0.93-1.47
			c-0.76-1.27-1.87-2.29-2.96-3.28c-0.09-0.08-0.2-0.17-0.32-0.16c0.14,1.45,0.7,2.83,1.55,3.98c0.85,1.15,1.98,2.08,3.24,2.76
			c-0.03-1.06,0.42-2.11,0.34-3.17C73.91,63.53,73.34,62.62,72.58,61.96z"/>
		<path d="M84.15,65.65c-0.39-0.33-0.82-0.61-1.29-0.82c-0.22-0.1-0.46-0.18-0.69-0.25c-0.1-0.03-0.21-0.08-0.31-0.1
			c-0.08-0.02-0.39,0.02-0.44-0.02c0.7,0.74,1.4,1.49,1.98,2.34s1.05,1.78,1.25,2.8c-0.39-0.43-0.63-0.97-0.93-1.47
			c-0.76-1.27-1.87-2.29-2.96-3.28c-0.09-0.08-0.2-0.17-0.32-0.16c0.14,1.45,0.7,2.83,1.55,3.98c0.85,1.15,1.98,2.08,3.24,2.76
			c-0.03-1.06,0.42-2.11,0.34-3.17C85.47,67.22,84.91,66.31,84.15,65.65z"/>
		<path d="M123.96,43.78c-0.07-0.16-0.15-0.32-0.25-0.47c-0.04-0.07-0.08-0.14-0.12-0.2c-0.03-0.05-0.22-0.17-0.22-0.22
			c0.03,0.75,0.05,1.51-0.04,2.26c-0.08,0.75-0.27,1.51-0.64,2.18c-0.01-0.43,0.11-0.85,0.19-1.28c0.19-1.08,0.07-2.18-0.04-3.26
			c-0.01-0.09-0.02-0.19-0.1-0.24c-0.6,0.89-0.93,1.95-1.02,3c-0.08,1.06,0.08,2.12,0.43,3.09c0.47-0.62,1.19-1.01,1.64-1.66
			c0.44-0.63,0.56-1.42,0.47-2.15C124.22,44.48,124.11,44.12,123.96,43.78z"/>
		<path d="M118.61,44.73c-0.09-0.21-0.2-0.42-0.33-0.61c-0.05-0.09-0.1-0.19-0.16-0.27c-0.04-0.06-0.28-0.22-0.29-0.28
			c0.04,0.99,0.06,1.98-0.05,2.97c-0.11,0.99-0.36,1.98-0.83,2.86c-0.01-0.56,0.15-1.12,0.24-1.67c0.24-1.42,0.09-2.86-0.06-4.27
			c-0.01-0.12-0.03-0.25-0.13-0.32c-0.78,1.17-1.22,2.55-1.34,3.94c-0.11,1.38,0.11,2.77,0.56,4.06c0.62-0.81,1.57-1.33,2.15-2.17
			c0.57-0.83,0.74-1.86,0.61-2.82C118.95,45.65,118.81,45.17,118.61,44.73z"/>
		<path d="M110.33,25.35c-0.22,0.24-0.4,0.51-0.54,0.8c-0.07,0.14-0.13,0.28-0.18,0.43c-0.02,0.06-0.05,0.13-0.07,0.2
			c-0.01,0.05,0,0.25-0.03,0.27c0.47-0.44,0.95-0.87,1.47-1.23c0.53-0.36,1.1-0.64,1.72-0.77c-0.27,0.24-0.6,0.39-0.91,0.58
			c-0.79,0.47-1.44,1.15-2.08,1.83c-0.05,0.06-0.11,0.12-0.11,0.2c0.87-0.08,1.71-0.43,2.43-0.95c0.72-0.53,1.32-1.22,1.78-2.01
			c-0.63,0.02-1.24-0.27-1.87-0.22C111.32,24.53,110.76,24.88,110.33,25.35z"/>
		<path d="M70.24,26.71c0.04,0.1,0.07,0.21,0.11,0.3c0.03,0.07,0.24,0.28,0.23,0.34c0.14-1.01,0.29-2.02,0.58-3.01
			c0.29-0.99,0.71-1.95,1.34-2.76c-0.09,0.57-0.35,1.11-0.54,1.66c-0.5,1.4-0.61,2.89-0.71,4.36c-0.01,0.12-0.01,0.26,0.07,0.35
			c0.99-1.05,1.67-2.37,2.03-3.76c0.36-1.39,0.39-2.84,0.17-4.23c-0.76,0.72-1.79,1.07-2.52,1.82c-0.72,0.74-1.06,1.76-1.11,2.76
			c-0.02,0.51,0.03,1.02,0.14,1.5C70.08,26.26,70.16,26.49,70.24,26.71z"/>
		<path d="M62,23.62c-0.44,0.28-0.86,0.63-1.22,1.02c-0.17,0.19-0.33,0.38-0.48,0.59c-0.06,0.09-0.15,0.18-0.2,0.27
			c-0.04,0.07-0.12,0.37-0.18,0.4c0.93-0.49,1.87-0.97,2.84-1.32c0.98-0.35,2-0.57,2.99-0.53c-0.53,0.27-1.11,0.37-1.67,0.54
			c-1.43,0.42-2.75,1.23-4.06,2.02c-0.11,0.07-0.23,0.15-0.27,0.27c1.36,0.2,2.81-0.02,4.17-0.55c1.35-0.53,2.61-1.38,3.69-2.4
			c-0.97-0.21-1.76-0.86-2.74-1.03C63.91,22.74,62.87,23.06,62,23.62z"/>
		<path d="M50.39,82.17c-0.57,0.32-1.09,0.73-1.56,1.2c-0.22,0.23-0.43,0.47-0.62,0.72c-0.08,0.11-0.19,0.22-0.26,0.33
			c-0.06,0.08-0.17,0.48-0.24,0.51c1.18-0.53,2.37-1.05,3.61-1.4c1.23-0.35,2.52-0.51,3.76-0.34c-0.67,0.29-1.4,0.36-2.11,0.51
			c-1.81,0.39-3.49,1.28-5.15,2.17c-0.14,0.07-0.29,0.16-0.34,0.32c1.7,0.43,3.53,0.32,5.24-0.22c1.71-0.54,3.32-1.5,4.7-2.71
			c-1.21-0.39-2.17-1.35-3.4-1.69C52.81,81.24,51.51,81.53,50.39,82.17z"/>
		<path d="M52.11,69.9c-1.06,0.23-2.17-0.03-3.21,0.24c-1.03,0.27-1.87,1-2.44,1.88c-0.29,0.45-0.51,0.94-0.66,1.44
			c-0.07,0.24-0.13,0.49-0.16,0.74c-0.02,0.11-0.05,0.23-0.06,0.33c-0.01,0.08,0.07,0.39,0.03,0.44c0.65-0.84,1.32-1.68,2.09-2.41
			c0.77-0.74,1.65-1.37,2.64-1.76c-0.38,0.47-0.89,0.81-1.35,1.2c-1.18,0.99-2.05,2.29-2.91,3.56c-0.07,0.11-0.15,0.23-0.12,0.35
			c1.43-0.4,2.74-1.22,3.79-2.28C50.8,72.59,51.59,71.29,52.11,69.9z"/>
		<path d="M100.77,39.89c-0.26,0.54-0.74,0.95-0.98,1.5c-0.23,0.54-0.21,1.15-0.03,1.68c0.09,0.27,0.22,0.53,0.39,0.75
			c0.08,0.11,0.16,0.21,0.26,0.31c0.04,0.04,0.08,0.09,0.12,0.13c0.03,0.03,0.19,0.09,0.2,0.13c-0.13-0.56-0.26-1.12-0.31-1.7
			c-0.05-0.58-0.02-1.17,0.15-1.74c0.07,0.32,0.04,0.66,0.05,0.99c0.02,0.84,0.27,1.64,0.52,2.43c0.02,0.07,0.05,0.14,0.11,0.17
			c0.31-0.76,0.41-1.61,0.31-2.41C101.46,41.33,101.17,40.56,100.77,39.89z"/>
		<path d="M92.96,30.88c0.46-0.4,0.98-0.75,1.54-0.95c-0.23,0.25-0.53,0.44-0.8,0.65c-0.7,0.54-1.25,1.24-1.79,1.94
			c-0.05,0.06-0.09,0.13-0.09,0.19c0.8-0.22,1.55-0.66,2.18-1.24c0.63-0.58,1.14-1.29,1.5-2.04c-0.58,0.12-1.17-0.02-1.75,0.12
			c-0.57,0.14-1.07,0.54-1.43,1.02c-0.18,0.24-0.33,0.51-0.44,0.79c-0.05,0.13-0.1,0.27-0.13,0.4c-0.02,0.06-0.04,0.12-0.05,0.18
			c-0.01,0.04,0.01,0.21-0.01,0.24C92.09,31.74,92.5,31.28,92.96,30.88z"/>
		<path d="M114.04,28.5c-0.57-0.06-1.17,0.14-1.67,0.48c-0.25,0.17-0.48,0.37-0.69,0.6c-0.1,0.11-0.19,0.22-0.27,0.34
			c-0.04,0.05-0.08,0.1-0.11,0.16c-0.02,0.04-0.06,0.21-0.1,0.23c0.53-0.3,1.07-0.59,1.63-0.81c0.56-0.22,1.15-0.37,1.74-0.38
			c-0.3,0.16-0.64,0.24-0.96,0.35c-0.83,0.27-1.58,0.76-2.32,1.23c-0.06,0.04-0.13,0.09-0.15,0.16c0.8,0.07,1.65-0.09,2.43-0.42
			c0.78-0.33,1.49-0.84,2.1-1.43C115.1,28.91,114.62,28.57,114.04,28.5z"/>
		<path d="M99.25,37.83c-0.03-0.02-0.02-0.2-0.03-0.24c-0.02-0.06-0.05-0.11-0.07-0.17c-0.05-0.13-0.1-0.25-0.17-0.37
			c-0.14-0.25-0.31-0.47-0.51-0.67c-0.4-0.39-0.93-0.66-1.51-0.67c-0.59,0-1.15,0.28-1.74,0.3c0.43,0.66,1,1.24,1.67,1.66
			c0.68,0.42,1.46,0.68,2.27,0.7c0-0.07-0.05-0.12-0.1-0.17c-0.6-0.56-1.21-1.12-1.95-1.49c-0.29-0.14-0.6-0.26-0.85-0.45
			c0.57,0.07,1.11,0.29,1.61,0.57C98.36,37.13,98.81,37.48,99.25,37.83z"/>
		<path d="M107.92,31.94c-0.02-0.07-0.1-0.12-0.17-0.15c-0.85-0.41-1.72-0.83-2.67-1c-0.37-0.07-0.76-0.09-1.11-0.22
			c0.67-0.1,1.35-0.04,1.99,0.12c0.65,0.15,1.26,0.39,1.87,0.64c-0.04-0.01-0.08-0.2-0.11-0.25c-0.04-0.05-0.09-0.11-0.13-0.16
			c-0.09-0.12-0.2-0.24-0.31-0.34c-0.23-0.22-0.5-0.42-0.79-0.57c-0.57-0.3-1.26-0.42-1.91-0.25c-0.66,0.18-1.21,0.66-1.87,0.87
			c0.7,0.58,1.52,1.02,2.42,1.27C106.03,32.13,107,32.17,107.92,31.94z"/>
		<path d="M85.46,54.86c-1.03-0.95-2.09-1.92-3.36-2.55c-0.5-0.25-1.03-0.44-1.47-0.78c0.98,0.12,1.91,0.49,2.76,0.98
			c0.85,0.49,1.62,1.09,2.38,1.7c-0.05-0.04-0.03-0.34-0.06-0.41c-0.03-0.09-0.08-0.19-0.12-0.29c-0.08-0.22-0.18-0.43-0.29-0.63
			c-0.24-0.42-0.53-0.81-0.88-1.15c-0.69-0.67-1.6-1.14-2.6-1.14c-1.01-0.01-1.98,0.48-2.99,0.52c0.75,1.13,1.72,2.13,2.88,2.84
			c1.16,0.72,2.52,1.16,3.91,1.19C85.64,55.04,85.55,54.94,85.46,54.86z"/>
		<path d="M81.56,46.49c1.16,0.72,2.52,1.16,3.91,1.19c0-0.12-0.09-0.21-0.18-0.29c-1.03-0.95-2.09-1.92-3.36-2.55
			c-0.5-0.25-1.03-0.44-1.47-0.78c0.98,0.12,1.91,0.49,2.76,0.98c0.85,0.49,1.62,1.09,2.38,1.7c-0.05-0.04-0.03-0.34-0.06-0.41
			c-0.03-0.09-0.08-0.19-0.12-0.29c-0.08-0.22-0.18-0.43-0.29-0.63c-0.24-0.42-0.53-0.81-0.88-1.15c-0.69-0.67-1.6-1.14-2.6-1.14
			c-1.01-0.01-1.98,0.48-2.99,0.52C79.42,44.78,80.39,45.77,81.56,46.49z"/>
		<path d="M32.5,37.69c1.02,0.5,2.21,0.76,3.41,0.68c0-0.1-0.09-0.17-0.16-0.23c-0.92-0.7-1.85-1.42-2.97-1.83
			c-0.44-0.16-0.9-0.28-1.29-0.52c0.85,0.02,1.67,0.26,2.41,0.59c0.75,0.34,1.43,0.77,2.1,1.21c-0.04-0.03-0.04-0.27-0.06-0.33
			c-0.03-0.08-0.08-0.15-0.11-0.23c-0.08-0.17-0.17-0.34-0.27-0.49c-0.21-0.33-0.48-0.63-0.79-0.88c-0.61-0.49-1.41-0.81-2.27-0.74
			c-0.87,0.07-1.7,0.55-2.57,0.65C30.61,36.45,31.48,37.19,32.5,37.69z"/>
		<path d="M33.48,61.96c-0.01-0.13-0.12-0.21-0.23-0.28c-1.23-0.8-2.48-1.6-3.94-2c-0.57-0.15-1.17-0.24-1.69-0.51
			c1.08-0.09,2.14,0.1,3.11,0.43c0.98,0.34,1.88,0.81,2.78,1.3c-0.05-0.03-0.08-0.35-0.11-0.43c-0.04-0.1-0.11-0.19-0.16-0.28
			c-0.11-0.22-0.25-0.42-0.39-0.62c-0.3-0.4-0.67-0.76-1.09-1.05c-0.82-0.57-1.87-0.87-2.95-0.65c-1.1,0.22-2.09,0.97-3.19,1.24
			c0.94,1.05,2.11,1.91,3.46,2.42C30.44,62.07,31.97,62.24,33.48,61.96z"/>
		<path d="M91.72,14.24c-0.63,0.39-1.39,0.51-2.01,0.92c-0.61,0.4-1.02,1.03-1.22,1.67c-0.1,0.33-0.16,0.66-0.16,0.99
			c0,0.16,0.01,0.31,0.03,0.46c0.01,0.07,0.01,0.14,0.02,0.2c0.01,0.05,0.11,0.21,0.1,0.25c0.27-0.64,0.55-1.28,0.91-1.89
			c0.36-0.61,0.81-1.19,1.38-1.65c-0.16,0.36-0.42,0.68-0.65,1.02c-0.58,0.86-0.91,1.81-1.23,2.75c-0.03,0.08-0.05,0.17-0.01,0.23
			c0.84-0.58,1.53-1.36,2.01-2.23C91.35,16.1,91.63,15.16,91.72,14.24z"/>
		<path d="M95.06,16.11c-0.44,0.66-0.53,1.47-0.39,2.21c0.07,0.38,0.2,0.74,0.38,1.08c0.09,0.16,0.18,0.32,0.29,0.46
			c0.05,0.06,0.09,0.14,0.14,0.2c0.04,0.04,0.24,0.16,0.25,0.21c-0.07-0.76-0.13-1.53-0.08-2.3c0.05-0.77,0.22-1.55,0.58-2.25
			c0.03,0.43-0.08,0.87-0.14,1.31c-0.15,1.11,0.03,2.22,0.21,3.31c0.02,0.09,0.04,0.19,0.12,0.24c0.6-0.94,0.91-2.02,0.95-3.1
			c0.04-1.08-0.2-2.15-0.62-3.13C96.27,15.01,95.51,15.44,95.06,16.11z"/>
		<path d="M134.46,48.71c1.02,0.73,2.26,1.18,3.57,1.4c-0.25-0.88-0.05-1.9-0.34-2.76c-0.29-0.85-1-1.46-1.84-1.8
			c-0.43-0.17-0.89-0.28-1.37-0.32c-0.23-0.02-0.46-0.02-0.69-0.01c-0.1,0.01-0.21,0-0.31,0.01c-0.07,0.01-0.36,0.13-0.41,0.11
			c0.81,0.42,1.61,0.86,2.32,1.4s1.34,1.2,1.73,2c-0.45-0.25-0.79-0.63-1.17-0.97c-0.97-0.85-2.2-1.39-3.42-1.91
			c-0.1-0.04-0.22-0.09-0.33-0.04C132.63,46.99,133.44,47.98,134.46,48.71z"/>
		<path d="M134.44,70.83c-0.48,0.21-0.93,0.49-1.34,0.83c-0.2,0.16-0.38,0.34-0.55,0.53c-0.08,0.08-0.17,0.16-0.24,0.25
			c-0.05,0.06-0.17,0.37-0.23,0.39c0.99-0.32,1.99-0.64,3.02-0.8c1.02-0.17,2.08-0.18,3.07,0.08c-0.57,0.17-1.16,0.16-1.74,0.22
			c-1.49,0.15-2.91,0.72-4.32,1.29c-0.12,0.05-0.25,0.11-0.3,0.23c1.35,0.51,2.84,0.59,4.26,0.31c1.43-0.28,2.79-0.91,3.99-1.77
			c-0.95-0.43-1.67-1.31-2.64-1.69C136.46,70.3,135.39,70.42,134.44,70.83z"/>
		<path d="M45.97,22.9c0.18,0.12,0.37,0.23,0.56,0.32c0.08,0.04,0.17,0.1,0.25,0.13c0.06,0.03,0.33,0.04,0.36,0.09
			c-0.53-0.73-1.06-1.48-1.49-2.28c-0.42-0.8-0.74-1.66-0.84-2.55c0.29,0.42,0.46,0.91,0.67,1.38c0.54,1.19,1.39,2.21,2.23,3.22
			c0.07,0.08,0.15,0.18,0.26,0.19c-0.01-1.24-0.38-2.49-1.01-3.59c-0.63-1.1-1.5-2.06-2.5-2.83c-0.05,0.9-0.5,1.72-0.51,2.62
			c-0.01,0.89,0.4,1.74,0.98,2.42C45.25,22.35,45.6,22.65,45.97,22.9z"/>
	</g>
	<g id="leaves1">
		<path d="M45.45,94.97c-0.39,0.56-0.73,1.16-1.22,1.65c0.32-1.13,0.94-2.19,1.7-3.13c0.76-0.95,1.64-1.79,2.54-2.63
			c-0.05,0.05-0.43,0.01-0.52,0.03c-0.12,0.03-0.26,0.08-0.38,0.11c-0.29,0.08-0.57,0.18-0.84,0.29c-0.57,0.24-1.12,0.55-1.6,0.93
			c-0.96,0.74-1.7,1.77-1.87,2.92c-0.17,1.17,0.28,2.34,0.16,3.52c1.55-0.78,2.96-1.83,4.06-3.12c1.1-1.29,1.88-2.84,2.15-4.45
			c-0.15-0.01-0.28,0.09-0.4,0.18C47.84,92.4,46.45,93.54,45.45,94.97z"/>
		<path d="M41.62,84.27c-1.49-0.72-3.01-1.44-4.65-1.69c-0.64-0.1-1.3-0.12-1.91-0.35c1.13-0.23,2.3-0.15,3.42,0.1
			c1.12,0.25,2.19,0.65,3.26,1.07c-0.06-0.03-0.16-0.37-0.21-0.45c-0.07-0.1-0.16-0.19-0.24-0.29c-0.17-0.22-0.36-0.43-0.56-0.62
			c-0.42-0.4-0.89-0.74-1.4-1c-1.01-0.51-2.19-0.71-3.29-0.35c-1.12,0.37-2.01,1.3-3.12,1.72c1.24,1.03,2.68,1.81,4.23,2.21
			c1.55,0.4,3.21,0.39,4.76-0.09C41.88,84.4,41.75,84.33,41.62,84.27z"/>
		<path d="M46.28,55.78c0.1,0.09,0.22,0.18,0.36,0.16c-0.16-1.63-0.8-3.16-1.76-4.4c-0.95-1.25-2.22-2.22-3.62-2.9
			c0.05,1.2-0.45,2.43-0.35,3.62c0.09,1.17,0.73,2.17,1.58,2.86c0.43,0.35,0.92,0.63,1.44,0.83c0.25,0.1,0.51,0.18,0.77,0.23
			c0.12,0.03,0.23,0.07,0.35,0.09c0.09,0.01,0.44-0.05,0.49-0.01c-0.79-0.79-1.57-1.59-2.22-2.51c-0.65-0.91-1.18-1.95-1.41-3.09
			c0.43,0.46,0.71,1.05,1.05,1.6C43.82,53.66,45.06,54.73,46.28,55.78z"/>
		<path d="M47.05,61.02c-1.65,0-3.33,0-4.96,0.48c-0.64,0.19-1.27,0.45-1.92,0.51c0.99-0.69,2.12-1.12,3.26-1.38
			c1.14-0.26,2.29-0.36,3.44-0.44c-0.07,0-0.28-0.27-0.35-0.31c-0.1-0.06-0.22-0.1-0.32-0.16c-0.24-0.13-0.48-0.23-0.73-0.32
			c-0.53-0.18-1.09-0.29-1.66-0.3c-1.12-0.03-2.31,0.3-3.22,1.11c-0.93,0.82-1.46,2.04-2.36,2.9c1.52,0.39,3.14,0.48,4.74,0.17
			c1.6-0.31,3.17-1.03,4.47-2.13C47.34,61.03,47.19,61.02,47.05,61.02z"/>
		<path d="M47.7,66.65c-0.64,0.19-1.27,0.45-1.92,0.51c0.99-0.69,2.12-1.12,3.26-1.38c1.14-0.26,2.29-0.36,3.44-0.44
			c-0.07,0-0.28-0.27-0.35-0.31c-0.1-0.06-0.22-0.1-0.32-0.16c-0.24-0.13-0.48-0.23-0.73-0.32c-0.53-0.18-1.09-0.29-1.66-0.3
			c-1.12-0.03-2.31,0.3-3.22,1.11c-0.93,0.82-1.46,2.04-2.36,2.9c1.52,0.39,3.14,0.48,4.74,0.17s3.17-1.03,4.47-2.13
			c-0.09-0.11-0.24-0.11-0.38-0.11C51,66.17,49.33,66.17,47.7,66.65z"/>
		<path d="M47.29,45.9c-1.16,0-2.33-0.01-3.47,0.33c-0.45,0.13-0.89,0.32-1.35,0.36c0.69-0.5,1.49-0.8,2.28-0.99
			c0.8-0.18,1.6-0.25,2.41-0.31c-0.05,0-0.19-0.19-0.25-0.23c-0.07-0.04-0.15-0.07-0.22-0.11c-0.16-0.09-0.34-0.17-0.51-0.23
			c-0.37-0.13-0.76-0.21-1.16-0.22c-0.79-0.02-1.61,0.21-2.26,0.79c-0.65,0.59-1.02,1.46-1.65,2.08c1.06,0.28,2.2,0.35,3.32,0.13
			c1.12-0.22,2.22-0.73,3.13-1.52C47.49,45.9,47.38,45.9,47.29,45.9z"/>
		<path d="M40.44,57.75c-0.03-0.15-0.16-0.23-0.29-0.3c-1.5-0.8-3.03-1.61-4.75-1.91c-0.68-0.12-1.38-0.16-2.01-0.41
			c1.25-0.22,2.49-0.11,3.66,0.18c1.17,0.29,2.26,0.75,3.35,1.22c-0.07-0.03-0.12-0.41-0.16-0.49c-0.06-0.11-0.15-0.21-0.21-0.31
			c-0.15-0.24-0.32-0.47-0.51-0.68c-0.39-0.44-0.85-0.82-1.36-1.11c-1.01-0.57-2.25-0.81-3.49-0.44c-1.26,0.38-2.35,1.36-3.6,1.79
			c1.19,1.13,2.62,2,4.23,2.46C36.91,58.21,38.7,58.24,40.44,57.75z"/>
		<path d="M35.77,69.1c1.71-0.1,3.46-0.66,4.98-1.67c-0.07-0.13-0.23-0.16-0.38-0.18c-1.72-0.25-3.47-0.49-5.24-0.21
			c-0.69,0.11-1.39,0.3-2.08,0.27c1.14-0.61,2.38-0.91,3.61-1.03c1.23-0.12,2.44-0.05,3.65,0.03c-0.07,0-0.25-0.34-0.32-0.4
			c-0.09-0.08-0.21-0.14-0.31-0.22c-0.23-0.17-0.47-0.32-0.72-0.46c-0.52-0.28-1.09-0.48-1.68-0.58c-1.17-0.2-2.45-0.01-3.53,0.73
			c-1.1,0.76-1.83,2.02-2.9,2.82C32.37,68.87,34.05,69.21,35.77,69.1z"/>
		<path d="M33.52,43.8c1.52,0.39,3.14,0.48,4.74,0.17c1.6-0.31,3.17-1.03,4.47-2.13c-0.09-0.11-0.24-0.11-0.38-0.11
			c-1.65,0-3.33,0-4.96,0.48c-0.64,0.19-1.27,0.45-1.92,0.51c0.99-0.69,2.12-1.12,3.26-1.38c1.14-0.26,2.29-0.36,3.44-0.44
			c-0.07,0-0.28-0.27-0.35-0.31c-0.1-0.06-0.22-0.1-0.32-0.16c-0.24-0.13-0.48-0.23-0.73-0.32c-0.53-0.18-1.09-0.29-1.66-0.3
			c-1.12-0.03-2.31,0.3-3.22,1.11C34.96,41.72,34.43,42.94,33.52,43.8z"/>
		<path d="M36.04,48.29c0.98,0.34,1.88,0.81,2.78,1.3c-0.05-0.03-0.08-0.35-0.11-0.43c-0.04-0.1-0.11-0.19-0.16-0.28
			c-0.11-0.22-0.25-0.42-0.39-0.62c-0.3-0.4-0.67-0.76-1.09-1.05c-0.82-0.57-1.87-0.87-2.95-0.65c-1.1,0.22-2.09,0.97-3.19,1.24
			c0.94,1.05,2.11,1.91,3.46,2.42c1.35,0.51,2.87,0.68,4.38,0.4c-0.01-0.13-0.12-0.21-0.23-0.28c-1.23-0.8-2.48-1.6-3.94-2
			c-0.57-0.15-1.17-0.24-1.69-0.51C34.01,47.76,35.07,47.96,36.04,48.29z"/>
		<path d="M44.84,29.95c1.27,0.88,2.81,1.43,4.45,1.49c0.02-0.14-0.08-0.25-0.17-0.35c-1.08-1.16-2.19-2.33-3.6-3.1
			c-0.55-0.3-1.15-0.54-1.63-0.95c1.15,0.16,2.19,0.62,3.13,1.22c0.93,0.6,1.76,1.33,2.57,2.07c-0.05-0.05,0.01-0.4-0.01-0.48
			c-0.02-0.11-0.07-0.23-0.1-0.34c-0.07-0.26-0.15-0.51-0.25-0.76c-0.22-0.51-0.51-0.98-0.87-1.39c-0.72-0.81-1.73-1.38-2.9-1.41
			c-1.19-0.03-2.41,0.54-3.61,0.56C42.57,27.87,43.57,29.07,44.84,29.95z"/>
		<path d="M76.89,26.69c-0.25,0.49-0.42,1.02-0.53,1.57c-0.05,0.26-0.08,0.52-0.1,0.79c-0.01,0.11-0.03,0.24-0.03,0.35
			c0,0.08,0.11,0.4,0.07,0.46c0.58-0.94,1.17-1.87,1.88-2.71c0.71-0.84,1.53-1.59,2.49-2.08c-0.34,0.52-0.82,0.93-1.24,1.38
			c-1.09,1.15-1.85,2.58-2.6,3.98c-0.06,0.12-0.13,0.25-0.09,0.38c1.39-0.55,2.63-1.53,3.58-2.73c0.95-1.2,1.63-2.63,2.03-4.12
			c-1.03,0.34-2.17,0.17-3.19,0.55C78.15,24.88,77.38,25.72,76.89,26.69z"/>
		<path d="M77.28,21.53c0.47-0.55,1.01-1.05,1.64-1.37c-0.22,0.34-0.54,0.61-0.82,0.91c-0.72,0.76-1.22,1.7-1.71,2.63
			c-0.04,0.08-0.08,0.17-0.06,0.25c0.92-0.36,1.73-1.01,2.36-1.8c0.63-0.79,1.07-1.74,1.34-2.72c-0.68,0.22-1.43,0.11-2.1,0.36
			c-0.66,0.25-1.17,0.8-1.5,1.44c-0.16,0.33-0.28,0.67-0.35,1.03c-0.03,0.17-0.06,0.34-0.07,0.52c0,0.08-0.02,0.16-0.02,0.23
			c0,0.06,0.07,0.26,0.05,0.3C76.43,22.7,76.82,22.08,77.28,21.53z"/>
		<path d="M83.03,21.41c0.03,0.07,0.05,0.15,0.08,0.22c0.02,0.05,0.17,0.21,0.16,0.26c0.1-0.72,0.21-1.44,0.41-2.13
			c0.2-0.69,0.5-1.36,0.95-1.92c-0.07,0.41-0.25,0.78-0.38,1.16c-0.35,0.98-0.43,2.05-0.51,3.09c-0.01,0.09-0.01,0.19,0.05,0.25
			c0.69-0.71,1.18-1.62,1.43-2.6c0.25-0.98,0.28-2.02,0.13-3.03c-0.53,0.48-1.26,0.68-1.77,1.18c-0.51,0.49-0.75,1.21-0.78,1.93
			c-0.02,0.36,0.02,0.73,0.1,1.09C82.92,21.08,82.96,21.24,83.03,21.41z"/>
		<path d="M105.19,17.54c-0.7,0.13-1.3,0.59-1.73,1.16c-0.22,0.29-0.39,0.62-0.52,0.96c-0.06,0.16-0.12,0.33-0.16,0.5
			c-0.02,0.07-0.05,0.15-0.06,0.22c-0.01,0.05,0.02,0.27-0.01,0.3c0.48-0.54,0.98-1.08,1.53-1.54c0.55-0.46,1.18-0.85,1.85-1.06
			c-0.28,0.3-0.64,0.51-0.97,0.75c-0.84,0.62-1.5,1.46-2.15,2.29c-0.05,0.07-0.11,0.15-0.1,0.24c0.97-0.2,1.88-0.69,2.64-1.36
			c0.76-0.67,1.36-1.52,1.79-2.44C106.62,17.64,105.9,17.41,105.19,17.54z"/>
		<path d="M93.81,22.03c-0.96-0.38-2.12-0.22-3.1-0.55c0.17,1.49,0.63,2.92,1.39,4.13c0.77,1.2,1.85,2.18,3.16,2.73
			c0.06-0.13,0.01-0.26-0.03-0.38c-0.53-1.41-1.07-2.84-1.98-3.98c-0.36-0.45-0.77-0.86-1.03-1.38c0.88,0.5,1.59,1.24,2.17,2.08
			c0.58,0.84,1.02,1.77,1.46,2.71c-0.03-0.06,0.13-0.37,0.14-0.46c0.02-0.11,0.01-0.24,0.02-0.35c0.03-0.26,0.03-0.53,0.02-0.79
			c-0.02-0.54-0.12-1.07-0.29-1.57C95.41,23.25,94.76,22.41,93.81,22.03z"/>
		<path d="M85.33,26.47c0.52,0.82,1.26,1.49,2.16,1.87c0.04-0.09,0.01-0.18-0.02-0.26c-0.36-0.96-0.73-1.94-1.35-2.72
			c-0.24-0.31-0.53-0.59-0.7-0.94c0.6,0.34,1.08,0.85,1.48,1.42c0.39,0.57,0.7,1.21,0.99,1.85c-0.02-0.04,0.09-0.25,0.1-0.31
			c0.01-0.08,0.01-0.16,0.02-0.24c0.02-0.18,0.02-0.36,0.01-0.54c-0.01-0.37-0.08-0.73-0.2-1.07c-0.23-0.66-0.67-1.24-1.32-1.5
			c-0.66-0.26-1.45-0.15-2.12-0.38C84.5,24.67,84.81,25.65,85.33,26.47z"/>
		<path d="M85.19,38.44c-0.1,0.33-0.16,0.66-0.16,0.99c0,0.16,0.01,0.31,0.03,0.46c0.01,0.07,0.01,0.14,0.02,0.2
			c0.01,0.05,0.11,0.21,0.1,0.25c0.27-0.64,0.55-1.28,0.91-1.89c0.36-0.61,0.81-1.19,1.38-1.65c-0.16,0.36-0.42,0.68-0.65,1.02
			c-0.58,0.86-0.91,1.81-1.23,2.75c-0.03,0.08-0.05,0.17-0.01,0.23c0.84-0.58,1.53-1.36,2.01-2.23c0.48-0.86,0.75-1.8,0.84-2.72
			c-0.63,0.39-1.39,0.51-2.01,0.92C85.8,37.17,85.39,37.8,85.19,38.44z"/>
		<path d="M83.87,29.09c-0.47,0.31-0.78,0.78-0.93,1.28c-0.08,0.25-0.12,0.5-0.13,0.75c0,0.12,0,0.24,0.02,0.35
			c0.01,0.05,0.01,0.11,0.02,0.16c0.01,0.04,0.09,0.16,0.08,0.19c0.2-0.49,0.42-0.98,0.69-1.44c0.28-0.47,0.62-0.91,1.05-1.26
			c-0.12,0.28-0.32,0.52-0.5,0.78c-0.44,0.65-0.69,1.38-0.94,2.1c-0.02,0.06-0.04,0.13-0.01,0.18c0.64-0.44,1.17-1.04,1.54-1.7
			c0.37-0.66,0.58-1.37,0.64-2.08C84.92,28.69,84.34,28.78,83.87,29.09z"/>
		<path d="M101.39,25.41c-0.23,0.44-0.4,0.91-0.5,1.39c-0.05,0.23-0.08,0.47-0.1,0.7c-0.01,0.1-0.03,0.21-0.03,0.32
			c0,0.08,0.1,0.36,0.06,0.41c0.54-0.83,1.1-1.65,1.76-2.39c0.66-0.74,1.43-1.39,2.32-1.81c-0.32,0.46-0.76,0.82-1.16,1.21
			c-1.02,1.01-1.73,2.27-2.43,3.52c-0.06,0.1-0.12,0.22-0.09,0.34c1.3-0.46,2.45-1.31,3.34-2.37c0.89-1.06,1.52-2.33,1.91-3.66
			c-0.96,0.28-2.01,0.1-2.96,0.42C102.58,23.81,101.85,24.55,101.39,25.41z"/>
		<path d="M98.26,22.32c-0.58,0.54-0.86,1.31-0.89,2.06c-0.02,0.38,0.03,0.77,0.12,1.14c0.05,0.18,0.11,0.35,0.18,0.52
			c0.03,0.07,0.05,0.16,0.09,0.23c0.03,0.05,0.2,0.22,0.19,0.26c0.11-0.76,0.23-1.52,0.45-2.26c0.23-0.74,0.57-1.46,1.08-2.06
			c-0.07,0.43-0.28,0.83-0.43,1.24c-0.4,1.05-0.48,2.17-0.55,3.27c-0.01,0.09-0.01,0.2,0.06,0.26c0.8-0.77,1.35-1.76,1.63-2.8
			c0.28-1.04,0.3-2.14,0.11-3.19C99.69,21.52,98.85,21.77,98.26,22.32z"/>
		<path d="M117.17,29.34c0.56-0.9,1.13-1.8,1.81-2.61c0.68-0.81,1.47-1.53,2.39-2c-0.33,0.5-0.79,0.89-1.2,1.33
			c-1.05,1.1-1.78,2.48-2.5,3.83c-0.06,0.11-0.12,0.24-0.09,0.37c1.34-0.53,2.53-1.47,3.44-2.63c0.92-1.16,1.56-2.53,1.95-3.97
			c-0.99,0.32-2.08,0.17-3.06,0.53c-0.97,0.36-1.71,1.17-2.18,2.11c-0.24,0.47-0.41,0.98-0.51,1.51c-0.05,0.25-0.08,0.5-0.1,0.76
			c-0.01,0.11-0.03,0.23-0.03,0.34C117.1,28.98,117.2,29.28,117.17,29.34z"/>
		<path d="M112.91,75.14c-0.03,0.09-0.08,0.19-0.11,0.28c-0.02,0.07,0,0.34-0.04,0.38c0.74-0.65,1.48-1.3,2.31-1.85
			c0.83-0.55,1.74-1.01,2.71-1.24c-0.43,0.36-0.95,0.6-1.43,0.89c-1.24,0.73-2.25,1.74-3.25,2.74c-0.08,0.08-0.17,0.18-0.17,0.29
			c1.38-0.2,2.71-0.77,3.84-1.57c1.13-0.8,2.07-1.83,2.77-2.95c-1,0.09-1.98-0.24-2.98-0.11c-0.99,0.13-1.88,0.67-2.54,1.36
			c-0.34,0.35-0.62,0.75-0.84,1.16C113.08,74.73,112.99,74.93,112.91,75.14z"/>
		<path d="M114.22,57.57c0.01,0.05,0.11,0.21,0.1,0.25c0.27-0.64,0.55-1.28,0.91-1.89c0.36-0.61,0.81-1.19,1.38-1.65
			c-0.16,0.36-0.42,0.68-0.65,1.02c-0.58,0.86-0.91,1.81-1.23,2.75c-0.03,0.08-0.05,0.17-0.01,0.23c0.84-0.58,1.53-1.36,2.01-2.23
			c0.48-0.86,0.75-1.8,0.84-2.72c-0.63,0.39-1.39,0.51-2.01,0.92c-0.61,0.4-1.02,1.03-1.22,1.67c-0.1,0.33-0.16,0.66-0.16,0.99
			c0,0.16,0.01,0.31,0.03,0.46C114.21,57.43,114.21,57.5,114.22,57.57z"/>
		<path d="M111.25,48.55c-0.61,0.4-1.02,1.03-1.22,1.67c-0.1,0.33-0.16,0.66-0.16,0.99c0,0.16,0.01,0.31,0.03,0.46
			c0.01,0.07,0.01,0.14,0.02,0.2c0.01,0.05,0.11,0.21,0.1,0.25c0.27-0.64,0.55-1.28,0.91-1.89c0.36-0.61,0.81-1.19,1.38-1.65
			c-0.16,0.36-0.42,0.68-0.65,1.02c-0.58,0.86-0.91,1.81-1.23,2.75c-0.03,0.08-0.05,0.17-0.01,0.23c0.84-0.58,1.53-1.36,2.01-2.23
			c0.48-0.86,0.75-1.8,0.84-2.72C112.63,48.02,111.87,48.14,111.25,48.55z"/>
		<path d="M121.27,34.99c-1.09,0.93-1.91,2.14-2.71,3.33c-0.07,0.1-0.14,0.22-0.12,0.33c1.31-0.36,2.51-1.11,3.48-2.1
			c0.97-0.99,1.71-2.21,2.21-3.52c-0.96,0.2-1.96-0.07-2.92,0.17c-0.94,0.24-1.72,0.92-2.25,1.75c-0.27,0.42-0.48,0.88-0.62,1.36
			c-0.07,0.23-0.13,0.46-0.16,0.7c-0.02,0.1-0.05,0.21-0.06,0.31c-0.01,0.08,0.06,0.37,0.02,0.42c0.61-0.79,1.23-1.57,1.94-2.26
			c0.71-0.69,1.53-1.28,2.43-1.63C122.16,34.3,121.69,34.62,121.27,34.99z"/>
		<path d="M126.61,30.53c1.34,0.03,2.71-0.28,4.02-0.83c-0.72-0.58-1.12-1.53-1.87-2.07c-0.74-0.54-1.72-0.64-2.67-0.45
			c-0.48,0.1-0.96,0.27-1.41,0.5c-0.22,0.11-0.43,0.24-0.63,0.37c-0.09,0.06-0.19,0.11-0.28,0.18c-0.06,0.05-0.25,0.31-0.31,0.31
			c0.97-0.1,1.93-0.19,2.88-0.14c0.95,0.05,1.89,0.24,2.69,0.68c-0.55,0.04-1.07-0.08-1.6-0.15c-1.36-0.16-2.77,0.08-4.17,0.33
			c-0.12,0.02-0.25,0.05-0.33,0.15C123.98,30.14,125.27,30.5,126.61,30.53z"/>
		<path d="M123.34,26.53c0.39-0.51,0.79-1.02,1.25-1.46c0.46-0.44,0.99-0.83,1.57-1.05c-0.23,0.28-0.53,0.49-0.81,0.72
			c-0.7,0.6-1.23,1.38-1.75,2.16c-0.04,0.06-0.09,0.14-0.08,0.22c0.84-0.23,1.62-0.72,2.25-1.36c0.63-0.64,1.1-1.43,1.43-2.28
			c-0.62,0.13-1.27-0.04-1.88,0.11c-0.61,0.15-1.11,0.59-1.45,1.13c-0.17,0.27-0.31,0.57-0.4,0.88c-0.05,0.15-0.08,0.3-0.11,0.45
			c-0.01,0.07-0.03,0.14-0.04,0.2C123.32,26.31,123.36,26.5,123.34,26.53z"/>
		<path d="M128.64,66.8c-1.01,0.57-1.74,1.52-2.15,2.53c-0.21,0.51-0.34,1.04-0.4,1.57c-0.03,0.25-0.04,0.5-0.03,0.75
			c0,0.11-0.01,0.23,0,0.33c0.01,0.08,0.15,0.35,0.12,0.41c0.51-1,1.04-2,1.69-2.93c0.65-0.93,1.44-1.81,2.39-2.48
			c-0.3,0.56-0.76,1.04-1.16,1.55c-1.02,1.3-1.68,2.8-2.32,4.27c-0.05,0.12-0.11,0.26-0.06,0.37c1.4-0.82,2.59-2,3.46-3.32
			c0.87-1.33,1.44-2.8,1.71-4.28C130.86,66.12,129.66,66.22,128.64,66.8z"/>
		<path d="M128.99,49.69c-0.13,0.01-0.26,0-0.39,0.01c-0.09,0.01-0.45,0.17-0.51,0.13c1.01,0.53,2.02,1.08,2.91,1.76
			c0.89,0.68,1.68,1.51,2.17,2.51c-0.56-0.31-0.99-0.8-1.47-1.22c-1.22-1.07-2.76-1.74-4.29-2.4c-0.13-0.06-0.28-0.11-0.42-0.05
			c0.53,1.48,1.55,2.74,2.84,3.65c1.29,0.91,2.84,1.49,4.48,1.76c-0.31-1.11-0.06-2.39-0.43-3.47c-0.36-1.07-1.25-1.83-2.31-2.26
			c-0.54-0.21-1.12-0.35-1.72-0.4C129.58,49.68,129.28,49.68,128.99,49.69z"/>
		<path d="M133.85,43.38c-0.09,0.07-0.19,0.16-0.21,0.28c1.29,0.08,2.61-0.24,3.8-0.87c1.19-0.62,2.25-1.54,3.13-2.61
			c-0.92-0.12-1.74-0.69-2.67-0.77c-0.92-0.08-1.84,0.32-2.58,0.93c-0.38,0.31-0.72,0.68-1,1.08c-0.14,0.19-0.26,0.4-0.38,0.61
			c-0.05,0.09-0.11,0.19-0.16,0.28c-0.03,0.07-0.07,0.37-0.12,0.4c0.8-0.55,1.61-1.09,2.48-1.51c0.86-0.42,1.78-0.72,2.71-0.75
			c-0.46,0.3-0.98,0.45-1.48,0.66C136.09,41.63,134.96,42.51,133.85,43.38z"/>
		<path d="M125.68,64.54c-0.51-0.75-1.38-1.2-2.29-1.37c-0.46-0.09-0.95-0.11-1.43-0.07c-0.23,0.02-0.46,0.06-0.68,0.11
			c-0.1,0.02-0.21,0.03-0.3,0.06c-0.07,0.02-0.32,0.18-0.37,0.17c0.9,0.26,1.81,0.53,2.65,0.92c0.85,0.39,1.64,0.9,2.24,1.58
			c-0.51-0.16-0.95-0.46-1.41-0.71c-1.18-0.63-2.54-0.92-3.87-1.21c-0.11-0.02-0.24-0.05-0.34,0.02c0.74,1.03,1.8,1.83,3.01,2.34
			c1.2,0.51,2.54,0.72,3.88,0.7C126.29,66.29,126.2,65.3,125.68,64.54z"/>
		<path d="M114.72,78.29c-0.4,0.24-0.77,0.53-1.1,0.87c-0.16,0.16-0.31,0.34-0.44,0.52c-0.06,0.08-0.13,0.16-0.19,0.24
			c-0.04,0.06-0.12,0.34-0.17,0.36c0.83-0.4,1.67-0.78,2.53-1.05c0.87-0.26,1.77-0.4,2.64-0.3c-0.47,0.21-0.98,0.28-1.48,0.39
			c-1.27,0.3-2.45,0.96-3.62,1.62c-0.1,0.05-0.21,0.12-0.24,0.23c1.18,0.27,2.47,0.17,3.67-0.24c1.2-0.41,2.33-1.11,3.31-1.99
			c-0.84-0.26-1.51-0.92-2.37-1.14C116.42,77.59,115.5,77.82,114.72,78.29z"/>
		<path d="M51.69,51.83c-0.97,0.2-1.83,0.87-2.46,1.7c-0.32,0.42-0.58,0.89-0.78,1.38c-0.1,0.23-0.18,0.47-0.24,0.72
			c-0.03,0.11-0.07,0.22-0.1,0.32c-0.02,0.08,0.02,0.39-0.03,0.44c0.7-0.79,1.42-1.57,2.21-2.24c0.8-0.68,1.68-1.25,2.63-1.57
			c-0.41,0.44-0.91,0.74-1.38,1.1c-1.2,0.91-2.16,2.12-3.11,3.32c-0.08,0.1-0.16,0.22-0.16,0.34c1.36-0.31,2.65-1.03,3.74-2.01
			c1.09-0.98,1.97-2.21,2.63-3.54C53.66,51.95,52.68,51.62,51.69,51.83z"/>
		<path d="M65.99,46.95c-0.97,0.2-1.83,0.87-2.46,1.7c-0.32,0.42-0.58,0.89-0.78,1.38c-0.1,0.23-0.18,0.47-0.24,0.72
			c-0.03,0.11-0.07,0.22-0.1,0.32c-0.02,0.08,0.02,0.39-0.03,0.44c0.7-0.79,1.42-1.57,2.21-2.24c0.8-0.68,1.68-1.25,2.63-1.57
			c-0.41,0.44-0.91,0.74-1.38,1.1c-1.2,0.91-2.16,2.12-3.11,3.32c-0.08,0.1-0.16,0.22-0.16,0.34c1.36-0.31,2.65-1.03,3.74-2.01
			c1.09-0.98,1.97-2.21,2.63-3.54C67.95,47.08,66.97,46.75,65.99,46.95z"/>
		<path d="M71.3,37.65c-0.97,0.2-1.83,0.87-2.46,1.7c-0.32,0.42-0.58,0.89-0.78,1.38c-0.1,0.23-0.18,0.47-0.24,0.72
			c-0.03,0.11-0.07,0.22-0.1,0.32c-0.02,0.08,0.02,0.39-0.03,0.44c0.7-0.79,1.42-1.57,2.21-2.24c0.8-0.68,1.68-1.25,2.63-1.57
			c-0.41,0.44-0.91,0.74-1.38,1.1c-1.2,0.91-2.16,2.12-3.11,3.32c-0.08,0.1-0.16,0.22-0.16,0.34c1.36-0.31,2.65-1.03,3.74-2.01
			c1.09-0.98,1.97-2.21,2.63-3.54C73.27,37.77,72.29,37.45,71.3,37.65z"/>
		<path d="M65.36,38.41c0.02,0.07,0.16,0.29,0.14,0.35c0.29-0.86,0.59-1.72,0.99-2.53c0.41-0.81,0.92-1.57,1.59-2.16
			c-0.17,0.48-0.48,0.91-0.73,1.35c-0.65,1.13-0.99,2.42-1.33,3.69c-0.03,0.11-0.05,0.23,0,0.32c1-0.73,1.8-1.76,2.34-2.91
			c0.53-1.15,0.81-2.42,0.85-3.68c-0.76,0.48-1.69,0.59-2.42,1.11c-0.73,0.51-1.19,1.33-1.4,2.2c-0.11,0.44-0.15,0.9-0.13,1.35
			c0.01,0.22,0.03,0.43,0.06,0.64C65.33,38.22,65.34,38.32,65.36,38.41z"/>
		<path d="M67.32,19.75c0.02,0.07,0.16,0.29,0.14,0.35c0.29-0.86,0.59-1.72,0.99-2.53c0.41-0.81,0.92-1.57,1.59-2.16
			c-0.17,0.48-0.48,0.91-0.73,1.35c-0.65,1.13-0.99,2.42-1.33,3.69c-0.03,0.11-0.05,0.23,0,0.32c1-0.73,1.8-1.76,2.34-2.91
			c0.53-1.15,0.81-2.42,0.85-3.68c-0.76,0.48-1.69,0.59-2.42,1.11c-0.73,0.51-1.19,1.33-1.4,2.2c-0.11,0.44-0.15,0.9-0.13,1.35
			c0.01,0.22,0.03,0.43,0.06,0.64C67.29,19.56,67.3,19.66,67.32,19.75z"/>
		<path d="M59.95,17.23c-0.73,0.51-1.19,1.33-1.4,2.2c-0.11,0.44-0.15,0.9-0.13,1.35c0.01,0.22,0.03,0.43,0.06,0.64
			c0.02,0.09,0.02,0.19,0.04,0.28c0.02,0.07,0.16,0.29,0.14,0.35c0.29-0.86,0.59-1.72,0.99-2.53s0.92-1.57,1.59-2.16
			c-0.17,0.48-0.48,0.91-0.73,1.35c-0.65,1.13-0.99,2.42-1.33,3.69c-0.03,0.11-0.05,0.23,0,0.32c1-0.73,1.8-1.76,2.34-2.91
			c0.53-1.15,0.81-2.42,0.85-3.68C61.62,16.61,60.69,16.72,59.95,17.23z"/>
		<path d="M55.93,25.21c-0.97,0.2-1.83,0.87-2.46,1.7c-0.32,0.42-0.58,0.89-0.78,1.38c-0.1,0.23-0.18,0.47-0.24,0.72
			c-0.03,0.11-0.07,0.22-0.1,0.32c-0.02,0.08,0.02,0.39-0.03,0.44c0.7-0.79,1.42-1.57,2.21-2.24c0.8-0.68,1.68-1.25,2.63-1.57
			c-0.41,0.44-0.91,0.74-1.38,1.1c-1.2,0.91-2.16,2.12-3.11,3.32c-0.08,0.1-0.16,0.22-0.16,0.34c1.36-0.31,2.65-1.03,3.74-2.01
			c1.09-0.98,1.97-2.21,2.63-3.54C57.9,25.34,56.92,25.01,55.93,25.21z"/>
		<path d="M50.21,26.1c0.04,0.1,0.07,0.21,0.11,0.3c0.03,0.07,0.24,0.29,0.23,0.35c0.14-1.01,0.29-2.02,0.58-3
			c0.28-0.98,0.71-1.93,1.34-2.73c-0.09,0.57-0.35,1.1-0.54,1.65c-0.49,1.39-0.6,2.88-0.71,4.35c-0.01,0.12-0.01,0.26,0.07,0.35
			c0.98-1.02,1.67-2.33,2.03-3.71c0.36-1.38,0.39-2.84,0.17-4.24c-0.76,0.69-1.79,1.01-2.52,1.74c-0.72,0.72-1.06,1.73-1.11,2.73
			c-0.02,0.51,0.03,1.02,0.14,1.51C50.05,25.64,50.12,25.87,50.21,26.1z"/>
		<path d="M50.06,39.16c1.38-0.27,2.73-0.86,3.96-1.66c-0.86-0.39-1.45-1.18-2.33-1.53c-0.86-0.34-1.9-0.22-2.83,0.17
			c-0.48,0.2-0.93,0.46-1.35,0.78c-0.2,0.15-0.39,0.31-0.58,0.49c-0.08,0.08-0.17,0.15-0.25,0.23c-0.06,0.06-0.2,0.34-0.26,0.36
			c0.97-0.31,1.95-0.6,2.93-0.77c0.98-0.16,1.98-0.19,2.9,0.04c-0.55,0.16-1.11,0.16-1.67,0.22c-1.42,0.15-2.83,0.69-4.21,1.22
			c-0.12,0.04-0.24,0.1-0.3,0.21C47.28,39.37,48.68,39.43,50.06,39.16z"/>
	</g>
	<g id="stones2">
		<path d="M109.08,130.57c0.49,0.27,0.69,0.33,0.87,0.8c0.35,0.92,0.23,2.31,0.39,3.29c0.21,1.24,0.34,2.63,0.63,3.89
			c3.23-1.28,6.33-2.79,9.3-4.86c-0.42-0.87-0.88-1.73-1.31-2.6c-0.29-0.58-0.48-1.41-1.12-1.69c-1.1-1.12-2.21-1.49-3.38-1.89
			c-1.62-0.55-3.11-1.43-4.63-2.25c-1.4-0.75-2.68-1.71-3.52-3.11c-0.65-1.07-0.92-2.31-1.45-3.45c-0.25-0.53-0.55-1.06-1.17-1.14
			c-0.17-0.02-1.81,0.45-1.8,0.32c-0.09,1.36-0.31,3.57,0.31,4.77c0.5,0.96,1.85,2.25,2.74,2.87c-1.07-0.41-3.25-1.17-3.89-2.01
			c-0.61-0.8-0.73-2.6-0.87-3.57c-0.12-0.85-0.09-1.76-0.9-2.23c-0.69-0.41-1.93-0.58-2.3,0.34c-0.38,0.95-0.31,2.57-0.41,3.62
			c-0.11,1.14-0.19,2.01,0.74,2.75c2.09,1.68,4.87,2.32,7.21,3.59C106.05,128.86,107.56,129.73,109.08,130.57z"/>
		<path d="M58.55,138.93c1.07,0.29,2.31,0.38,3.41,0.49c0.17,0.02,0.48-0.01,0.63,0.08c0.21,0.13,0.34,0.5,0.47,0.7
			c0.19,0.29,0.41,0.56,0.62,0.84c0.24,0.34,0.44,0.7,0.62,1.07c1.89,0.63,3.85,1.18,5.88,1.59c0.26,0.05,0.53,0.1,0.79,0.15
			c1.19-1.69,2.36-3.4,3.37-5.21c0.9-1.63,2.19-3.74,1.98-5.67c-0.06-0.55-0.11-1.1-0.16-1.66c-0.06-0.77-0.12-1.53-0.2-2.3
			c-0.06-0.58-0.14-1.15-0.25-1.72c-0.1-0.47-0.17-1.2-0.46-1.6c-0.29-0.4-0.94-0.23-1.38-0.21c-0.65,0.04-1.31,0.1-1.95,0.23
			c-0.37,0.08-0.82,0.11-1.16,0.29c-0.2,0.1-0.24-0.01-0.3,0.25c-0.06,0.24,0.21,0.63,0.3,0.85c0.14,0.35,0.52,0.84,0.57,1.18
			c0.04,0.29-0.27,0.84-0.35,1.12c-0.12,0.42-0.27,0.81-0.44,1.21c-0.57,1.39-1,2.86-1.66,4.21c-0.45,0.93-0.92,1.85-1.3,2.81
			c-0.16,0.41-0.38,0.77-0.56,1.17c-0.12,0.28-0.31,0.62-0.5,0.84c-0.29-0.23,0.51-1.75,0.62-2.11c0.25-0.8,0.45-1.62,0.64-2.44
			c0.38-1.66,0.81-3.31,1.09-4.99c0.12-0.69,0.35-1.45,0.34-2.15c-0.52-0.16-1.05-0.46-1.58-0.56c-0.65-0.12-1.37,0.02-2.03,0.01
			c-0.34,0-0.63-0.14-0.92,0.03c-0.28,0.18-0.4,0.56-0.57,0.82c-0.3,0.47-0.67,0.91-0.98,1.38c-0.22,0.33-0.37,0.73-0.62,1.04
			c-0.17,0.21-0.37,0.35-0.53,0.57c-0.4,0.59-0.69,1.25-1.09,1.84c-0.48,0.69-0.97,1.25-1.31,2.01c-0.43,0.97-0.93,1.9-1.33,2.88
			C58,138.55,57.87,138.75,58.55,138.93z"/>
		<path d="M50.83,135.22c0.03-0.44,0.01-0.88,0.08-1.3c0.24-1.35,1.04-2.57,1.5-3.84c0.25-0.69,0.41-1.43,0.61-2.14
			c0.18-0.63,0.44-1.29,0.54-1.94c-0.34-0.18-0.68-0.39-1.04-0.52c-0.42-0.15-0.4-0.08-0.68,0.25c-0.86,1.01-1.84,2.09-2.95,2.81
			c-1.22,0.79-2.32,1.03-3.71,1.28c-0.18,0.03-0.47,0.08-0.8,0.15C46.45,131.86,48.58,133.62,50.83,135.22z"/>
	</g>
	<g id="stones1">
		<path d="M83.63,126.18c-0.34,0.54-1.14,0.99-1.64,1.36c0.18,0.33,0.23,0.71,0.31,1.08c0.23,1.01,0.58,1.92,0.66,2.97
			c-0.36-0.42-0.65-1.07-0.94-1.57c-0.29-0.51-0.5-1.06-0.77-1.58c-0.13-0.25-0.27-0.4-0.24-0.66c0.05-0.47,0.43-0.99,0.56-1.44
			c0.16-0.56,0.33-1.13,0.45-1.7c0.08-0.39,0.37-1.04,0.01-1.23c-0.14-0.08-0.54,0-0.69,0c-0.94,0-1.54-0.12-2.06,0.75
			c-0.69,1.15-0.79,2.54-1.37,3.73c-0.28,0.57-1.02,1.53-1.03,2.2c-0.01,0.61,0.7,1.25,0.98,1.8c0.36,0.71,0.72,1.4,0.53,2.2
			c-0.37,1.55-1.06,3.01-1.51,4.54c-0.59,2.03-1.46,3.89-2.3,5.81c1.9,0.25,3.81,0.41,5.73,0.48c0-0.08,0.01-0.17,0.01-0.25
			c0.03-0.82,0.04-1.5-0.07-2.31c-0.09-0.73,0.08-1.49,0.2-2.22c0.14-0.82,0.14-2.01,0.58-2.74c0.03-0.05,0.07-0.1,0.1-0.15
			c0.45-0.56,1.39-0.86,1.94-1.23c1.7-1.12,2.66-3.35,3.26-5.23c0.4-1.26-0.07-1.49-0.86-2.4
			C85.33,128.22,83.65,126.15,83.63,126.18z"/>
		<path d="M45.19,118.11c0.48,0.4,0.56,0.32,1.16,0.04c1.08-0.5,1.98-0.77,3.14-0.96c0.07,0.03,0.31,0.05,0.55-0.03
			c-0.72-0.48-1.53-0.91-2.27-1.38c-0.45-0.28-0.9-0.86-1.37-1.01c-0.53-0.18-2.49-0.16-2.91,0.23c-0.43,0.4-0.21,0.38,0.18,0.93
			C44.12,116.55,44.62,117.64,45.19,118.11z"/>
		<path d="M67.69,113.79c-0.86-0.21-1.71-0.45-2.57-0.67c-0.88-0.22-3.04-1.05-3.96-0.66c-0.43,0.19-0.52,0.67-0.77,1.08
			c-0.84,1.36-2.13,1.26-3.63,1.32c-1.51,0.06-3.02-0.06-4.52-0.16c-0.42-0.03-1.69-0.31-1.96,0.01c-0.31,0.37,0.01,1.18,0.34,1.4
			c0.87,0.59,1.61,0.63,2.63,0.63c3.08,0,6.13,0.39,9.22,0.49c1.33,0.04,2.58,0.19,3.76-0.4c0.66-0.33,1.27-0.73,1.92-1.06
			c0.31-0.16,0.94-0.52,0.93-0.96C69.06,114.14,68.17,113.91,67.69,113.79z M63.47,115.99c-0.47,0-0.93-0.01-1.4-0.04
			c-1.13-0.07-2.24-0.05-3.38-0.08c-0.74-0.02-1.48,0-2.22,0c-0.64,0-1.3,0.11-1.92-0.04c0.65,0.07,1.56-0.18,2.29-0.26
			c0.5-0.06,1.02,0,1.53-0.04c0.54-0.04,1.07-0.33,1.6-0.3c0.72,0.04,1-0.19,1.61-0.49c0.11-0.05,0.23-0.1,0.35-0.15
			c0.45-0.17,0.93-0.27,1.4-0.34c0.48-0.07,1.05-0.35,1.54-0.19c-0.04-0.01-0.62,0.33-0.73,0.38c-0.43,0.17-0.9,0.27-1.32,0.46
			c-0.43,0.19-0.79,0.5-1.26,0.6c0.51,0.29,1.06,0.18,1.62,0.16c0.5-0.02,1.01,0.02,1.52-0.01c0.41-0.02,1.72-0.41,2-0.12
			C65.69,115.99,64.54,115.99,63.47,115.99z"/>
		<path d="M66.36,121.39c-0.1-0.36-0.11-0.84-0.45-1.07c-0.58-0.41-2.74,0.28-3.5,0.2c-2.39-0.24-4.97-1.2-6.96,0.83
			c-2.67,2.72,1.82,5.6,0.51,8.63c-0.7,1.62-2.01,2.92-2.6,4.61c-0.14,0.4-0.3,0.76-0.46,1.15c-0.08,0.19-0.26,0.47-0.29,0.71
			c0.99,0.65,2,1.25,3.03,1.83c0.24-0.44,0.44-0.92,0.67-1.36c0.47-0.89,1.09-1.69,1.57-2.57c0.47-0.87,1.05-1.76,1.39-2.7
			c0.47-1.31,0.82-2.68,1.52-3.9c0.33-0.58,0.62-1.03,1.18-1.39c0.04-0.02,0.08-0.05,0.12-0.07c0.66-0.4,1.32-0.78,1.99-1.17
			c0.78-0.45,1.72-0.69,2.23-1.47C66.8,122.9,66.58,122.18,66.36,121.39z M62.36,122.84c-1.35,0.12-2.81,0.17-4.13,0.41
			c0.19,1.05,0,2.18-0.18,3.23c-0.19,1.08-0.48,2.19-0.72,3.26c-0.12,0.5-0.3,1.03-0.46,1.53c-0.13,0.43-0.55,1-0.61,1.41
			c0.22-1.58,0.55-3.13,0.73-4.72c0.17-1.49,0.03-2.9-0.04-4.38c0-0.08,0-0.16,0-0.24c0.02-0.44,0.14-0.86-0.01-1.3
			c0.97,0.04,2.02,0.17,3.02,0.21c1,0.04,1.93,0,2.92-0.12c0.67-0.08,1.68-0.22,2.29,0.16C64.26,122.33,63.3,122.76,62.36,122.84z"
			/>
		<path d="M82.6,116.39c-0.59-0.77-1.25-1.14-2.16-1.35c-0.97-0.22-1.96-0.39-2.96-0.44c-0.47-0.03-1.93-0.37-2.26-0.26
			c-0.36,0.13-0.75,0.81-1.01,1.09c-1.37,1.43-2.99,2.81-4.77,3.71c-0.87,0.44-0.94,0.28-0.89,1.14c0.09,1.37,0.36,2.43,1.86,2.67
			c1.09,0.17,2.2-0.08,3.28-0.23c0.96-0.14,1.93-0.13,2.89-0.23c0.47-0.05,0.84-0.13,1.31-0.04c0.58-0.58,1.23-0.97,1.7-1.64
			c0.55-0.78,1.26-1.49,1.89-2.2C81.92,118.12,83.14,117.1,82.6,116.39z M77.84,119.11c-1.09,0.39-2.08,0.95-3.25,0.98
			c-1.32,0.03-2.61,0.38-3.94,0.22c0.79,0.1,1.77-0.36,2.49-0.64c0.74-0.29,1.47-0.47,2.25-0.62c0.66-0.12,1.38-0.2,1.99-0.47
			c-0.14-0.95-0.99-1.89-0.94-2.9c0.51,0.17,0.88,0.71,1.25,1.13c0.08,0.09,0.15,0.17,0.23,0.24c0.47,0.46,1.05,0.98,1.17,1.66
			C78.7,118.9,78.26,118.97,77.84,119.11z"/>
		<path d="M51.24,118.51c-0.28-0.41-1.05-0.11-1.49,0.01c-0.99,0.28-1.92,0.77-2.89,1.13c-0.64,0.24-1.59,0.79-2.27,0.69
			c-0.57-1.27-1.37-2.41-2.13-3.58c-0.27-0.41-0.7-1.46-1.2-1.64c-0.76-0.28-1.67,0.8-2.2,1.18c-1.07,0.78-2.04,1.73-3.08,2.57
			c-0.14,0.11-0.28,0.23-0.38,0.38c-0.32,0.52,0.02,1.18,0.37,1.68c1.48,2.14,3.15,4.18,4.24,6.54c0.62,1.33,1.34,1.56,2.5,0.77
			c1.33-0.91,2.68-1.82,3.96-2.8c1.32-1.01,2.7-2,3.98-3.07c0.63-0.53,1.1-1.12,1.81-1.56C52.49,120.8,51.36,118.68,51.24,118.51z
			 M46.77,122.09c-0.46,0.2-0.89,0.42-1.34,0.65c-0.61,0.31-1.22,0.61-1.79,1.01c-0.34,0.24-0.76,0.79-1.16,0.84
			c-0.63-2.37-2.28-4.65-2.31-7.16c1.24,0.96,1.47,2.69,2.25,3.97c0.05,0.07,0.09,0.15,0.14,0.22c0.45,0.68,0.83,1.07,1.69,0.74
			c0.69-0.26,1.44-0.43,2.11-0.74c1.13-0.52,2.18-1.26,3.38-1.63C48.97,120.97,47.93,121.59,46.77,122.09z"/>
		<g>
			<path d="M105.45,139.91c-0.99-0.04-1.94-0.11-2.92-0.22c-0.7-0.08-1.61-0.34-2.17,0.24c-0.4,0.41-0.71,1.05-1.03,1.53
				c-0.36,0.53-0.6,1.22-0.99,1.72c0.38-0.08,0.75-0.16,1.13-0.26c0.92-0.24,1.82-0.51,2.73-0.8c0.3-0.44,0.76-0.8,1.39-1
				c1.13-0.36,2.23-0.73,3.32-1.1C106.41,140.01,105.93,139.93,105.45,139.91z"/>
			<path d="M96.14,142.82c-0.03,0.26-0.09,0.53-0.13,0.8c0.77-0.12,1.53-0.27,2.29-0.44c0.18-0.32,0.25-0.92,0.34-1.22
				c0.14-0.51,0.27-1.02,0.35-1.54c0.15-0.89,0.29-2,0.12-2.88c-0.18-0.94-0.56-1.86-0.88-2.76c-0.48-1.37-1.15-2.63-1.66-3.97
				c-0.34-0.89-1.02-1.98-1.06-2.94c0.3,0.15,0.47,0.68,0.61,0.96c0.23,0.48,0.4,0.99,0.64,1.47c0.15,0.3,0.31,0.61,0.47,0.91
				c0.39,0.74,0.79,1.48,1.13,2.24c0.52,1.17,1.05,2.31,1.62,3.45c0.14,0.29,0.35,0.54,0.5,0.83c0.09,0.17,0.15,0.51,0.27,0.64
				c0.35,0.38,1.42,0.34,1.93,0.44c0.76,0.16,1.52,0.42,2.25,0.67c0.69,0.23,1.47,0.19,2.14,0.49c0.44-0.15,0.9-0.29,1.33-0.44
				c-0.01-0.09-0.02-0.17-0.03-0.26c-0.16-1.06-0.27-2.2-0.26-3.27c0.01-0.62,0.03-1.25,0.07-1.87c0.03-0.42,0.31-1.38,0.16-1.75
				c-0.37-0.95-1.9-0.83-3.05-1.29c-1.55-0.61-3.11-1.36-4.71-1.81c-0.03,0.55-0.02,1.12-0.04,1.68c-0.03,0.73-0.31,1.97,0.05,2.55
				c0.56,0.9,1.51,1.5,2.22,2.26c0.69,0.75,1.4,1.45,1.94,2.32c-0.86-0.43-1.52-1.1-2.32-1.63c-0.58-0.39-1.11-0.83-1.68-1.23
				c-0.36-0.25-0.78-0.5-1.06-0.84c-0.55-0.68-0.61-2-0.79-2.82c-0.19-0.86-0.44-1.68-0.72-2.52c-0.15-0.44-0.31-1.05-0.69-1.35
				c-0.37-0.29-0.99-0.39-1.42-0.6c-0.52-0.26-1.32-1.02-1.68-0.48c-0.23,0.35-0.06,0.94-0.05,1.32c0.02,0.5-0.05,0.99,0,1.49
				c0.11,1.11,0.45,2.18,0.89,3.2c0.32,0.76,0.89,1.4,1.2,2.16c0.57,1.4,0.21,3,0.11,4.46C96.48,140.46,96.3,141.63,96.14,142.82z
				 M104.53,133.06c-0.57-0.35-1.86-0.89-2.11-1.55c-0.01-0.02-0.01-0.04-0.02-0.06c1.07,0.42,2.04,1.03,3.09,1.48
				c0.44,0.19,1,0.33,1.29,0.76c0.4,0.59,0.03,1.12-0.24,1.69c-0.3,0.63-0.62,1.25-0.85,1.91c-0.03-0.39,0.14-0.83,0.18-1.24
				c0.05-0.58,0.27-1.71-0.1-2.21C105.54,133.53,104.86,133.26,104.53,133.06z"/>
		</g>
		<path d="M121.01,126.56c-0.74-0.91-2.05-1.43-3.04-2c-1.25-0.72-2.57-1.32-3.85-1.99c-0.76-0.4-1.47-0.88-2.2-1.32
			c-0.07-0.04-0.15-0.09-0.22-0.13c-0.6-0.35-1.45-0.67-1.85-1.27c0.54,0.02,1.19,0.4,1.7,0.61c0.62,0.25,1.22,0.56,1.82,0.86
			c1.52,0.74,2.93,1.62,4.4,2.43c1.42,0.78,2.88,1.43,4.26,2.28c1.19,0.73,2.37,1.28,3.72,1.6c0.17,0.04,1.02,0.44,1.12,0.4
			c-1.03,0.41-3.04-0.36-3.82,0.63c-0.26,0.33-0.03,1.07-0.03,1.44c0,0.51-0.05,1.05-0.09,1.56c1.71-1.36,3.37-2.78,5.03-4.2
			c-0.26-0.63-0.74-1.01-1.67-1.51c-0.89,0.18-2.24-0.66-3.37-1.24c-1.51-0.78-3-1.66-4.48-2.49c-1.78-0.98-3.49-1.94-5.34-2.77
			c-1.16-0.53-2.87-1.84-4.21-1.71c0,1.33-0.17,2.95,0.44,4.2c0.46,0.94,1.5,1.61,2.32,2.2c1.36,0.98,2.99,1.61,4.55,2.16
			c1.23,0.43,2.97,0.91,3.85,1.92c0.83,0.95,1,2.6,1.59,3.71c0.1,0.18,0.18,0.38,0.25,0.57c0.35-0.27,0.68-0.56,1.03-0.83
			C122.58,129.96,122.15,127.97,121.01,126.56z"/>
		<path d="M136.97,116.34c-0.55-0.74-1.11-1.47-1.66-2.21c-0.15-0.19-0.3-0.39-0.5-0.52c-0.21-0.13-0.49-0.18-0.78-0.18
			c-0.49,0-1.04,0.13-1.43,0.18c-0.75,0.09-1.5,0.19-2.25,0.31c-1.29,0.2-2.57,0.45-3.84,0.71c-2.73,0.55-5.65,0.49-8.41,0.39
			c-0.77-0.03-5.25-0.54-4.94,0.9c0.07,0.35,1.73,1.1,2.03,1.26c0.63,0.32,1.29,0.63,1.94,0.88c1.4,0.56,3.33,1.7,4.82,1.44
			c1.85-0.32,3.71-1.28,5.62-1.07c-0.72,0.35-2.84,1.36-3.02,2.25c-0.19,0.99,1.44,1.36,2.03,1.79c1.48,1.08,2.84,2.37,4.25,3.54
			c0.04,0.04,0.09,0.07,0.15,0.07c0.06,0,0.11-0.06,0.15-0.12c1.67-2.43,3.34-4.86,5.01-7.3c0.34-0.49,0.68-0.99,0.95-1.52
			c0.06-0.13,0.12-0.26,0.11-0.4C137.16,116.6,137.07,116.47,136.97,116.34z M132,117.4c-0.45,0.95-0.9,1.93-1.19,2.95
			c-0.21,0.75-0.46,1.52-0.84,2.19c-0.08-1.12,0.56-2.18,0.53-3.26c-0.63,0.62-1.56,0.63-2.35,0.9c-0.71,0.25-1.48,0.6-2.21,0.7
			c0.93-0.18,1.82-0.84,2.63-1.29c0.43-0.24,0.97-0.4,1.33-0.74c0.66-0.63,1.17-1.53,1.68-2.28c0,0-1.18-0.16-1.3-0.16
			c-0.46,0-0.89-0.04-1.35-0.04c-0.99,0-1.94,0.32-2.93,0.37c-1,0.05-2.02,0.08-3.01,0.22c-0.91,0.13-1.89,0.13-2.81,0.05
			c-0.55-0.05-1.11-0.18-1.67-0.17c1.78,0.07,3.54-0.29,5.32-0.34c1.44-0.05,2.91-0.23,4.35-0.43c0.09-0.01,0.18-0.03,0.27-0.04
			c1.45-0.2,3.02-0.42,4.34-1C132.92,115.83,132.32,116.71,132,117.4z"/>
	</g>
	<g id="roots_x5F_ascent2">
		<path d="M93.09,144.04c0.29-0.67,0.59-1.35,0.93-2.01c0.59-1.17,1.63-2.27,1.19-3.2c-0.7,1.05-1.65,1.86-2.4,2.87
			c-0.65,0.89-1.2,1.77-1.87,2.61C91.66,144.22,92.37,144.13,93.09,144.04z"/>
		<path d="M82,144.96c0.45,0,0.89,0,1.34-0.01c-0.13-0.92-0.18-1.85,0.04-2.68c0.51-1.97,2.82-2.18,3.93-3.75
			c0.51-0.72,0.71-1.92,1.02-2.76c0.33-0.89,0.52-1.87,0.67-2.81c0.18-1.05,0.25-1.99-0.06-3.01c-0.25-0.82-0.57-1.64-0.78-2.47
			c-0.51-1.96-0.74-3.8-2.77-4.86c-0.03,0.18-0.25,0.11-0.48,0.18c0.87,0.96,1.35,2.39,1.93,3.48c0.8,1.53,1.48,2.95,1.32,4.72
			c-0.16,1.76-0.25,4.24-1.26,5.74c-0.91,1.35-2.57,2.03-3.79,3.02c-0.99,0.8-1.89,2.02-1.7,3.38
			C81.49,143.74,81.76,144.36,82,144.96z"/>
		<path d="M50.83,135.22c0.03-0.44,0.01-0.88,0.08-1.3c0.24-1.35,1.04-2.57,1.5-3.84c0.25-0.69,0.41-1.43,0.61-2.14
			c0.14-0.5,0.34-1.04,0.46-1.56c-0.04-0.17-0.09-0.33-0.15-0.5c-0.03-0.02-0.06-0.03-0.09-0.05c-0.41,1.44-1.34,2.84-2.04,4.14
			c-0.49,0.92-0.84,1.5-1.55,2.24c-0.24,0.25-0.37,0.4-0.57,0.73c-0.17,0.27-0.34,0.47-0.51,0.61
			C49.31,134.11,50.07,134.67,50.83,135.22z"/>
		<path d="M70.17,143.7c0.26,0.05,0.53,0.1,0.79,0.15c1.19-1.69,2.36-3.4,3.37-5.21c0.9-1.63,2.19-3.74,1.98-5.67
			c-0.06-0.55-0.11-1.1-0.16-1.66c-0.06-0.77-0.12-1.53-0.2-2.3c-0.06-0.58-0.14-1.15-0.25-1.72c-0.09-0.43-0.16-1.09-0.4-1.5
			c-0.32,0.31-0.62,0.65-0.86,0.76c0.5,2.2,0.81,5.12,0.53,7.38c-0.16,1.26-0.79,2.15-1.53,3.12c-0.88,1.16-1.59,2.54-2.29,3.81
			c-0.48,0.88-0.86,2.25-1.9,2.61C69.56,143.56,69.86,143.64,70.17,143.7z"/>
		<path d="M63.06,140.2c0.19,0.29,0.41,0.56,0.62,0.84c0.24,0.34,0.44,0.7,0.62,1.07c1.05,0.35,2.12,0.68,3.22,0.97
			c-0.25-0.15-0.49-0.31-0.72-0.43c-0.69-0.38-0.82-0.64-1.08-1.36c-0.45-1.26-1.46-2.19-2.9-1.88c-0.1,0.02-0.25,0.02-0.39,0.05
			c0.06,0.01,0.12,0.03,0.16,0.05C62.8,139.63,62.93,140,63.06,140.2z"/>
		<path d="M109.08,130.57c0.49,0.27,0.69,0.33,0.87,0.8c0.35,0.92,0.23,2.31,0.39,3.29c0.21,1.24,0.34,2.63,0.63,3.89
			c0.92-0.36,1.83-0.74,2.72-1.15c-0.39-0.19-0.71-0.46-0.89-0.84c-0.76-1.64-0.74-3.82-0.77-5.57c-0.02-1.33-1.32-1.6-2.45-1.99
			c-0.96-0.33-1.91-0.67-2.9-0.92c-0.66-0.17-1.5-0.15-1.93-0.76c-0.41,0.07-0.77,0.16-1.09,0.27c0.29,0.14,0.57,0.28,0.85,0.43
			C106.05,128.86,107.56,129.73,109.08,130.57z"/>
		<path d="M120.27,133.7c-0.19-0.39-0.38-0.77-0.57-1.15c-0.13-0.03-0.24-0.02-0.34,0.04c-0.31,0.17-0.42,1.36-0.47,2.03
			C119.35,134.33,119.81,134.02,120.27,133.7z"/>
		<path d="M65.71,128.45c0.33,0.16,0.89,0.35,1.1,0.67c0.15,0.23,0.06,0.62,0.05,0.9c-0.17,3.19-0.53,6.33-0.53,9.54
			c0.27-0.88,0.73-1.86,1.07-2.7c0.73-1.8,1.06-3.66,1.52-5.54c0.16-0.67,0.24-1.39,0.31-2.08c0.04-0.43,0.29-1.23,0.01-1.6
			c-0.57-0.75-2.38-0.59-3.19-0.59c-0.37,0-1.07-0.2-1.36,0.13C64.14,127.79,65.34,128.27,65.71,128.45z"/>
		<path d="M47.42,129.61l-0.62,0.04c0.98-0.34,2.26-0.28,3.13-0.9c0.93-0.66,1.49-1.75,2.17-2.63c0.17-0.22,0.38-0.43,0.46-0.72
			c-0.61-0.3-0.77,0.04-1.21,0.42c-0.57,0.49-1.06,1.02-1.65,1.48c-1.13,0.88-2.27,1.81-3.58,2.4
			C46.41,129.9,47.09,129.65,47.42,129.61z"/>
		<path d="M70.35,131.48c-0.4,1.08-1.04,2.16-1.35,3.24c0.36-0.31,0.63-0.9,0.88-1.3l-0.54,0.58c0.75-1.32,1.65-2.53,2.38-3.85
			c0.18-0.32,0.42-0.71,0.48-1.08c0.06-0.38-0.07-0.75-0.2-1.1c-0.08-0.19-0.47-0.77-0.42-0.99c0.13-0.54,1.81-0.85,2.28-1
			c0.29-0.09,0.67-0.18,0.89-0.37c-0.43-0.22-0.94-0.13-1.39-0.05c-0.74,0.13-1.49,0.13-2.23,0.23c-0.32,0.05-0.42,0.03-0.54,0.31
			c-0.18,0.45,0.26,1.11,0.42,1.5c0.15,0.39,0.2,0.51,0.11,0.93C70.89,129.52,70.7,130.53,70.35,131.48z"/>
		<path d="M92.98,136.85c0.3-0.43,0.71-0.98,0.85-1.49c0.2-0.68-0.08-1.64-0.17-2.32c-0.3-2.2-1.1-4.32-1.58-6.49
			c-0.08-0.35-0.12-0.67-0.09-1.04c0.08-0.91,0.75-1.61,0.96-2.45c-0.41,0.73-1.22,1.28-1.76,1.92c-0.41,0.49-0.64,0.5-0.42,1.18
			c0.18,0.55,0.49,1.06,0.64,1.63c0.42,1.67,0.73,3.36,1,5.06c0.18,1.1-0.03,2.26,0.18,3.32c-0.22,0.37-0.59,0.66-0.87,0.99
			c-0.45,0.55-0.88,1.1-1.3,1.67c-0.4,0.56-0.97,1.04-1.28,1.65C90.45,139.29,91.98,138.31,92.98,136.85z"/>
		<path d="M102.11,124.25c0.16,0.11,0.31,0.2,0.44,0.26C102.41,124.41,102.27,124.33,102.11,124.25z"/>
		<path d="M100.97,123.2c-0.32-0.44-0.27-1.08-0.36-1.62c-0.09-0.58-0.23-1.15-0.33-1.73c-0.11-0.62-0.06-1.46-0.56-1.92
			c-0.49-0.46-1.35-0.48-1.99-0.44c-0.73,0.04-0.69,1.42-0.77,2.02c0.09-0.48,0.4-0.94,0.47-1.1c0.35-0.08,0.83-0.19,1.2-0.11
			c0.36,0.08,0.38,0.19,0.49,0.59c0.32,1.05,0.39,2.13,0.5,3.22c0.14,1.36,1.45,1.61,2.48,2.13
			C101.69,123.96,101.22,123.54,100.97,123.2z"/>
		<path d="M107.04,124.46c0.37,0.4,0.97,0.96,1.5,1.11c0.32,0.09,0.71,0.09,1.08,0.21c0.58,0.2,1.13,0.38,1.65,0.7
			c1.12,0.68,2.46,1.32,3.73,1.66c-0.14-0.04-0.43-0.46-0.57-0.57c-0.21-0.17-0.42-0.29-0.66-0.38c-0.53-0.2-0.98-0.37-1.44-0.73
			c-0.47-0.37-0.94-0.6-1.49-0.85c-1.22-0.54-2.51-1.06-3.51-1.99c-1.04-0.97-1.22-2.55-1.8-3.82c-0.23-0.49-0.19-1.1-0.44-1.57
			c-0.19-0.34-0.44-0.35-0.98-0.48c0.31,1.1,0.15,2.3,0.65,3.34C105.34,122.3,106.14,123.47,107.04,124.46z"/>
	</g>
	<g id="roots_x5F_ascent1">
		<g>
			<path d="M79.83,145.01c0.1,0,0.21,0,0.31,0c0-2.48-0.1-5.42,0.85-7.73c0.64-0.89,1.64-0.98,2.47-1.57
				c0.79-0.56,1.5-1.87,1.82-2.8c-1.05,2.03-4.28,2.22-5.36,4.25c-0.65,1.23-0.64,3.23-0.82,4.59c-0.13,0.98-0.2,2.13-0.37,3.2
				C79.1,144.98,79.46,145,79.83,145.01z"/>
			<path d="M80.68,123.78c-0.25-0.04-0.51-0.15-0.71-0.31c-0.93,1.04-1.45,2.7-2.13,3.94c-0.69,1.25-1.48,2.38-0.65,3.63
				c0.51,0.76,1.09,1.33,1.1,2.31c0,1.48-0.87,3.09-1.22,4.52c0.61-0.91,1.04-1.97,1.61-2.91c0.48-0.8,0.87-1.01,0.72-1.82
				c-0.24-1.21-1.37-2.32-1.48-3.51c-0.1-1.14,1.25-2.46,1.61-3.53C79.99,125.64,80.41,124.7,80.68,123.78z"/>
			<path d="M77.99,122.01c1.22-0.32,1.78-1.36,2.55-2.31c-0.32-0.74-4.11,1.13-4.84,1.31c-1.46,0.37-2.79,0.51-4.28,0.55
				c-0.42,0.01-0.83,0.19-1.21,0.05c-0.68-0.26-0.88-1.03-1.19-1.64c-0.1-0.19-0.2-0.36-0.34-0.5c-0.43,0.88-0.21,2.58,0.38,3.35
				c0.62,0.8,2.62,0.08,3.39-0.07c0.87-0.17,1.71-0.44,2.59-0.49C76.04,122.2,77.02,122.26,77.99,122.01z"/>
			<path d="M52.99,137.53c0.57,0.22,1.14,0.43,1.71,0.65c0.24,0.09,0.48,0.19,0.72,0.28c0.57-0.62,1.92-3.39,2.06-3.64
				c0.43-0.72,0.93-1.47,1.04-2.32c-0.82,0.38-1.12,1.37-1.92,1.77c-0.76,0.38-1.66-0.13-1.63-1.07c0.01-0.14,0.02-0.27,0.04-0.41
				c0.08-0.47,0.22-0.93,0.16-1.4c-1.37,1.01-2.65,3.18-2.82,4.89C52.31,136.8,52.58,137.21,52.99,137.53z"/>
			<path d="M44.6,125.89c-0.64,0.36-1.86,1.27-2.6,1.35c-0.55,0.06-0.48-0.11-0.79-0.54c-0.95-1.3-1.51-2.79-2.59-4.01l0.46,1.08
				c-0.08-0.15-0.17-0.3-0.25-0.45c0.8,1.84,1.83,3.62,2.19,5.61c1.02-0.12,2.26-1.52,3.18-2c2.87-1.5,5.79-3.15,7.82-5.73
				c-0.8,0.49-1.62,0.62-2.47,1.18C47.87,123.51,46.36,124.9,44.6,125.89z"/>
			<path d="M38.84,123.33c-0.13-0.31-0.26-0.62-0.38-0.93C38.52,122.72,38.67,123.03,38.84,123.33z"/>
			<path d="M107.7,140.6c0.3-0.12,0.6-0.23,0.91-0.35c-0.05-0.58-0.2-1.12-0.28-1.7c-0.13-0.92,0.01-1.9-0.31-2.78
				C107.92,137.21,108.17,139.1,107.7,140.6z"/>
			<path d="M122.79,132.68c-0.37-0.35-0.61-0.77-1.04-1.1c0.32,0.15,0.07-0.06-0.2-0.24c0.25,0.67,0.26,1.4,0.38,1.96
				C122.21,133.09,122.5,132.89,122.79,132.68z"/>
			<path d="M128.94,124.32c0.64,0.39,1.01,0.93,1.21,1.64c0.11,0.41,0.41,0.88,0.82,0.81c0.21-0.03,0.37-0.2,0.52-0.36
				c2.58-2.88,4.95-6.04,6.25-9.68c0.04-0.12,0.08-0.24,0.06-0.36c-0.02-0.13-0.11-0.24-0.19-0.34c-0.84-0.98-1.88-1.8-3.03-2.4
				c-0.57,2.03-1.3,4-2.34,5.84c-0.74,1.31-1.19,2.83-1.95,4.08c-0.52-0.14-0.97-0.16-1.53-0.07c0.15,0-0.4-0.08-0.85,0.09
				C128.06,123.97,128.57,124.09,128.94,124.32z"/>
		</g>
	</g>
	<path id="curve" d="M144.03,58.1c3.72,13.79,3.27,20.65,3.27,22.07c0,34.56-27.85,62.58-62.21,62.58
		c-31.42,0-57.4-23.44-61.6-53.88c-0.36-2.62-1.84-9.74-0.61-21.58c-1.44,5.32-2.21,10.91-2.21,16.67
		c0,35.38,28.84,64.06,64.42,64.06s64.42-28.68,64.42-64.06C149.51,74.76,147.55,66.01,144.03,58.1z"/>
</g>
<g>
	<g>
		<path d="M33.55,178.53c0,3.01-2.42,5.15-6.82,5.15c-3.03,0-5.71-1.09-7.72-3.21l1.39-1.92c1.76,1.92,3.82,2.78,6.43,2.78
			c2.88,0,4.47-0.93,4.47-2.58c0-1.63-1.63-2.06-4.88-2.4c-3.57-0.36-6.93-1.33-6.93-4.57c0-3.14,2.97-4.88,6.69-4.88
			c2.81,0,5.19,1.02,6.74,2.62l-1.4,1.85c-1.33-1.42-3.16-2.1-5.3-2.13c-2.05-0.02-4.49,0.59-4.49,2.35c0,1.67,2.16,1.97,4.99,2.24
			C30.74,174.23,33.55,175.23,33.55,178.53z"/>
		<path d="M48.31,169.76h-5.89v13.45H40.2v-13.45h-5.86v-2.37h13.97V169.76z"/>
		<path d="M62.31,183.21l-4.01-5.74h-5.45v5.74h-2.22v-15.83h8.79c3.01,0,5.23,1.76,5.23,5.04c0,2.74-1.55,4.41-3.81,4.91l4.19,5.88
			H62.31z M59.28,175.14c1.85,0,3.1-0.72,3.1-2.69c0-1.97-1.26-2.69-3.1-2.69h-6.45v5.38H59.28z"/>
		<path d="M66.76,175.29c0-5.22,3.07-8.39,8.04-8.39c4.97,0,8.04,3.17,8.04,8.39c0,5.22-3.07,8.39-8.04,8.39
			C69.83,183.68,66.76,180.52,66.76,175.29z M80.57,175.29c0-3.84-2.25-5.99-5.76-5.99c-3.51,0-5.78,2.15-5.78,5.99
			c0,3.84,2.25,5.99,5.78,5.99C78.31,181.29,80.57,179.14,80.57,175.29z"/>
		<path d="M100.06,167.38v15.83H98.1l-10.11-12.48v12.48h-2.14v-15.83h2.36l9.68,12v-12H100.06z"/>
		<path d="M118.5,179.66c-1.18,2.33-3.75,4.02-7.3,4.02c-5.1,0-8.15-3.17-8.15-8.39c0-5.22,3.05-8.39,8.11-8.39
			c3.18,0,5.36,1.45,6.65,3.14l-1.81,1.58c-1.15-1.58-2.66-2.35-4.82-2.35c-3.64,0-5.88,2.03-5.88,6.01c0,3.98,2.27,6.01,5.99,6.01
			c2.27,0,4.12-0.72,5.06-2.53v-1.81h-5.4v-2.33h7.54V179.66z"/>
		<path d="M134.37,180.83v2.37h-12.88v-15.83h12.69v2.37h-10.49v4.23h8.83v2.37h-8.83v4.48H134.37z"/>
		<path d="M148.94,183.21l-4.01-5.74h-5.45v5.74h-2.22v-15.83h8.79c3.01,0,5.23,1.76,5.23,5.04c0,2.74-1.55,4.41-3.81,4.91
			l4.19,5.88H148.94z M145.91,175.14c1.85,0,3.1-0.72,3.1-2.69c0-1.97-1.26-2.69-3.1-2.69h-6.45v5.38H145.91z"/>
	</g>
	<g>
		<path d="M34.25,209.75c0,2.34-2.06,3.44-5.36,3.44h-9.8v-12.67h9.59c2.68,0,4.73,1.05,4.73,3.15c0,1.5-1.12,2.81-3.18,2.97
			C32.45,206.74,34.25,207.52,34.25,209.75z M20.18,206.26h8.39c2.14,0,3.76-0.74,3.76-2.48c0-1.74-1.62-2.41-3.76-2.41h-8.39
			V206.26z M33.13,209.7c0-1.85-1.64-2.57-4.4-2.57h-8.55v5.2h8.55C31.49,212.32,33.13,211.54,33.13,209.7z"/>
		<path d="M52.89,200.52v6.7c0,3.64-2.57,6.35-7.45,6.35c-4.9,0-7.47-2.72-7.47-6.35v-6.7h1.08v6.64c0,3.37,2.35,5.52,6.39,5.52
			c4.03,0,6.37-2.15,6.37-5.52v-6.64H52.89z"/>
		<path d="M71.97,209.66c0,2.21-2.62,3.91-7.37,3.91c-3.36,0-6.37-0.92-8.26-2.72l0.79-0.67c1.78,1.72,4.42,2.5,7.51,2.5
			c4.01,0,6.23-1.25,6.23-2.97c0-1.76-2.43-2.24-6.6-2.59c-3.76-0.31-7.41-1-7.41-3.39c0-2.32,3.49-3.6,7.22-3.6
			c3.16,0,5.6,0.89,7.12,2.23l-0.85,0.62c-1.45-1.36-3.65-1.94-6.23-1.96c-2.8-0.02-6.14,0.83-6.14,2.7c0,1.76,3.03,2.23,6.66,2.52
			C68.98,206.56,71.97,207.29,71.97,209.66z"/>
		<path d="M75.68,213.19v-12.67h1.08v12.67H75.68z"/>
		<path d="M96.94,200.52v12.67h-0.96l-12.97-11.48v11.48h-1.06v-12.67h1.2l12.72,11.28v-11.28H96.94z"/>
		<path d="M115.81,212.3v0.89h-13.68v-12.67h13.47v0.87h-12.39v4.91h10.63v0.89h-10.63v5.12H115.81z"/>
		<path d="M133.78,209.66c0,2.21-2.62,3.91-7.37,3.91c-3.36,0-6.37-0.92-8.26-2.72l0.79-0.67c1.79,1.72,4.42,2.5,7.51,2.5
			c4.01,0,6.23-1.25,6.23-2.97c0-1.76-2.43-2.24-6.6-2.59c-3.76-0.31-7.41-1-7.41-3.39c0-2.32,3.49-3.6,7.22-3.6
			c3.15,0,5.6,0.89,7.12,2.23l-0.85,0.62c-1.45-1.36-3.65-1.94-6.23-1.96c-2.8-0.02-6.14,0.83-6.14,2.7c0,1.76,3.03,2.23,6.66,2.52
			C130.8,206.56,133.78,207.29,133.78,209.66z"/>
		<path d="M151.68,209.66c0,2.21-2.62,3.91-7.37,3.91c-3.36,0-6.37-0.92-8.26-2.72l0.79-0.67c1.79,1.72,4.42,2.5,7.51,2.5
			c4.01,0,6.23-1.25,6.23-2.97c0-1.76-2.43-2.24-6.6-2.59c-3.76-0.31-7.41-1-7.41-3.39c0-2.32,3.49-3.6,7.22-3.6
			c3.15,0,5.6,0.89,7.12,2.23l-0.85,0.62c-1.45-1.36-3.65-1.94-6.23-1.96c-2.8-0.02-6.14,0.83-6.14,2.7c0,1.76,3.03,2.23,6.66,2.52
			C148.69,206.56,151.68,207.29,151.68,209.66z"/>
	</g>
	<g>
		<path d="M33.01,228.25c0,2.36-1.97,3.81-5.07,3.81h-7.92v4.75h-1.01v-12.35h8.93C31.04,224.45,33.01,225.9,33.01,228.25z
			 M31.98,228.25c0-1.89-1.56-2.95-4.1-2.95h-7.86v5.91h7.86C30.42,231.21,31.98,230.15,31.98,228.25z"/>
		<path d="M45.96,233.15h-9.66l-2.24,3.65h-1.13l7.65-12.35h1.13l7.65,12.35h-1.13L45.96,233.15z M45.45,232.3l-4.33-7.01
			l-4.31,7.01H45.45z"/>
		<path d="M65.35,236.8l-4.78-4.96h-7.31v4.96h-1.03v-12.35h8.95c3.04,0,5.07,1.38,5.07,3.69c0,2.17-1.76,3.51-4.43,3.69l4.86,4.98
			H65.35z M61.12,231c2.52,0,4.1-1.01,4.1-2.86c0-1.84-1.58-2.84-4.1-2.84h-7.88v5.7H61.12z"/>
		<path d="M81.99,225.28h-6.67v11.52H74.3v-11.52h-6.65v-0.83h14.34V225.28z"/>
		<path d="M99,224.45v12.35h-0.9l-12.19-11.19v11.19h-0.99v-12.35h1.13L98,235.45v-10.99H99z"/>
		<path d="M116.72,235.94v0.86h-12.85v-12.35h12.66v0.85h-11.65v4.78h9.99v0.86h-9.99v4.99H116.72z"/>
		<path d="M133.52,236.8l-4.78-4.96h-7.31v4.96h-1.03v-12.35h8.95c3.04,0,5.07,1.38,5.07,3.69c0,2.17-1.76,3.51-4.43,3.69l4.86,4.98
			H133.52z M129.29,231c2.52,0,4.1-1.01,4.1-2.86c0-1.84-1.58-2.84-4.1-2.84h-7.88v5.7H129.29z"/>
		<path d="M151.68,233.36c0,2.15-2.46,3.81-6.92,3.81c-3.16,0-5.99-0.9-7.76-2.65l0.74-0.65c1.68,1.68,4.15,2.43,7.06,2.43
			c3.76,0,5.85-1.22,5.85-2.89c0-1.71-2.28-2.19-6.2-2.52c-3.53-0.3-6.96-0.97-6.96-3.3c0-2.26,3.28-3.51,6.79-3.51
			c2.96,0,5.27,0.86,6.69,2.17l-0.8,0.6c-1.37-1.32-3.43-1.89-5.85-1.91c-2.63-0.02-5.77,0.81-5.77,2.63c0,1.71,2.85,2.17,6.26,2.45
			C148.87,230.35,151.68,231.05,151.68,233.36z"/>
	</g>
	<g>
		<path d="M154.92,163.04h-1.49v2.75h-1.04v-2.75h-1.48v-0.83h4.01V163.04z"/>
		<path d="M160.37,162.2v3.58h-1.04v-2.29l-1.43,1.75h-0.05l-1.43-1.75v2.29h-1.01v-3.58h1.14l1.35,1.72l1.36-1.72H160.37z"/>
	</g>
	<rect x="17.28" y="189.82" width="135.63" height="0.96"/>
</g>
</svg>
