<?xml version="1.0" encoding="utf-8"?>
<!-- Generator: Adobe Illustrator 27.8.0, SVG Export Plug-In . SVG Version: 6.00 Build 0)  -->
<svg version="1.1" id="Layer_1" xmlns="http://www.w3.org/2000/svg" xmlns:xlink="http://www.w3.org/1999/xlink" x="0px" y="0px"
	 viewBox="0 0 737.08 723.01" style="enable-background:new 0 0 737.08 723.01;" xml:space="preserve">
<style type="text/css">
	.st0{fill:#FFFFFF;}
</style>
<g>
	<path class="st0" d="M356.91,128.84c0.2-0.14,0.4-0.29,0.59-0.44c-0.22-0.05-0.43-0.1-0.64-0.17c0,0.07,0,0.15,0.01,0.22
		C356.88,128.58,356.9,128.71,356.91,128.84z"/>
	<path class="st0" d="M308.71,194.7C308.54,194.74,308.42,194.83,308.71,194.7L308.71,194.7z"/>
	<path class="st0" d="M383.03,195.41c0.09,0.01,0.17,0.02,0.26,0.03c0-0.05-0.01-0.09-0.01-0.14
		C383.19,195.33,383.11,195.37,383.03,195.41z"/>
	<path class="st0" d="M421.78,164.71C421.87,164.66,421.94,164.57,421.78,164.71C421.78,164.71,421.78,164.71,421.78,164.71z"/>
	<path class="st0" d="M393.17,187.44c-0.01,0.03-0.03,0.05-0.04,0.08c0.08,0.07,0.15,0.12,0.23,0.2c0,0,0.01,0.01,0.01,0.01
		c-0.05-0.14-0.09-0.27-0.13-0.41C393.22,187.36,393.19,187.4,393.17,187.44z"/>
	<path class="st0" d="M389.17,193.3c0.51,0.06,1.02,0.13,1.52,0.22c-0.28-0.22-0.56-0.43-0.84-0.64
		C389.63,193.03,389.4,193.17,389.17,193.3z"/>
	<polygon class="st0" points="254.56,92.14 254.56,92.15 254.56,92.15 	"/>
	<path class="st0" d="M229.63,594.54c0.96-5.4,1.94-11.17,0.94-16.58c6.82-1.25,14.29-1.48,21.23-2.1
		c4.82-0.44,9.74-2.63,14.44-2.75c-3.12-1.98-8.32-1.23-11.77-0.83c-5.07,0.59-9.83,0.84-14.98,0.61
		c-5.17-0.23-10.56-0.87-15.53-1.09c0.73,2.25,0.15,4.42,0.03,6.66c-0.02,0.4-0.03,0.81-0.01,1.21c0.37,7.62,1.05,14.84,0.19,22.5
		c-0.91,8.12-2.61,16.12-3.72,24.21c0.29-2.14,2.44-5.03,3.12-7.25c0.78-2.56,1.74-5.27,2.34-7.85
		C227.18,605.81,228.65,600.08,229.63,594.54z"/>
	<path class="st0" d="M458.82,657.86c-2.6-0.55-8.08-0.31-9.89-2.27c-0.62-0.67-0.91-2.42-1.39-3.29c-0.8-1.45-1.85-2.74-2.59-4.25
		c-2.89-5.89-5.65-11.72-8.31-17.74c-1.74-3.93-3.78-7.72-5.79-11.51c-0.82-1.55-1.63-3.1-2.42-4.66c-1.23-2.46-2.1-5.06-3.3-7.54
		c-0.7-1.45-1.57-4.19-3.11-4.93c0.21,4.91,3.72,10.52,5.46,15.08c2.62,6.88,6.07,13.35,8.52,20.38c1.62,4.63,3.59,9.36,4.51,14.18
		c0.87,4.55,0.16,10.25-0.6,14.8c-0.23,1.4-0.52,2.78-0.85,4.16c1.28-0.29,2.56-0.59,3.83-0.9c1.22-2.03,2.48-4.23,3.98-5.77
		c2.88-2.95,7.56-1.64,11.17-1.23c2.49,0.29,4.93,0.52,7.37,0.71c1.75-0.56,3.5-1.12,5.23-1.71c-0.09-0.03-0.18-0.05-0.28-0.08
		C466.61,660.02,462.73,658.68,458.82,657.86z"/>
	<path class="st0" d="M242.81,281.66c0.06,0.24,0.07,0.21,0.05,0.08C242.84,281.72,242.83,281.69,242.81,281.66z"/>
	<path class="st0" d="M171.72,571.98c5.97-2.56,11.31-5.74,15.28-10.78c-6.16,1.9-11.54,5.7-17.37,8.37
		c-3.43,1.57-7.29,2.44-10.83,3.78c-4.42,1.67-6.37-0.28-8.69-3.8c-0.24-0.37-0.48-0.75-0.71-1.13c-4-6.59-5.19-15.46-11.54-20.39
		c0.13,12.93,8.6,24.61,11.85,36.79c2.07-0.24,4.21-3.07,5.97-4.31c2.91-2.04,6.01-3.59,9.17-5.2
		C167.14,574.14,169.36,572.99,171.72,571.98z"/>
	<path class="st0" d="M263.45,293.9c0.04,0.1,0.08,0.2,0.12,0.3c-0.03-0.58-0.04-1.16-0.01-1.75
		C263.53,292.94,263.49,293.42,263.45,293.9z"/>
	<path class="st0" d="M263.29,290.4c0.18,0.1,0.31,0.26,0.35,0.5c0.02-0.68,0-1.36,0-2.03C263.51,289.38,263.39,289.89,263.29,290.4
		z"/>
	<path class="st0" d="M469.54,197.81c0.1-0.25,0.2-0.5,0.3-0.75c-0.25,0.03-0.51,0.02-0.76-0.01c0.01,0.01,0.02,0.03,0.03,0.05
		C469.27,197.33,469.4,197.57,469.54,197.81z"/>
	<path class="st0" d="M510.43,129.72c-0.06-0.01-0.12-0.02-0.18-0.04c-0.07-0.03-0.14-0.07-0.22-0.1c0.08,0.08,0.14,0.16,0.21,0.25
		C510.31,129.79,510.37,129.75,510.43,129.72z"/>
	<path class="st0" d="M450.26,316.33c0.7-0.23,1.44-0.34,2.2-0.43c-0.59-0.02-1.18-0.05-1.77-0.08c-0.29,0.13-0.57,0.26-0.86,0.38
		c0.01,0.09,0.02,0.17,0.02,0.26C449.99,316.42,450.12,316.38,450.26,316.33z"/>
	<path class="st0" d="M507.53,126.66c-0.05-0.03-0.09-0.06-0.14-0.09c0.04,0.06,0.08,0.13,0.12,0.19
		C507.52,126.72,507.52,126.69,507.53,126.66z"/>
	<path class="st0" d="M521.8,289.72c-0.29,0.31-0.58,0.63-0.87,0.94c0.19-0.04,0.37-0.08,0.56-0.12
		C521.57,290.26,521.68,289.99,521.8,289.72z"/>
	<path class="st0" d="M503.54,131.11c-0.01-0.01-0.01-0.02-0.02-0.03c0,0.04,0.01,0.09,0.01,0.13
		C503.53,131.18,503.53,131.14,503.54,131.11z"/>
	<path class="st0" d="M554.73,210.84c-0.61,0.57-1.18,1.17-1.68,1.87c0.12-0.05,0.25-0.08,0.38-0.08
		C553.83,212.01,554.26,211.4,554.73,210.84z"/>
	<path class="st0" d="M439.89,246.19c0.14-0.21,0.29-0.39,0.45-0.59c-0.27-0.11-0.54-0.24-0.81-0.36c0.11,0.33,0.22,0.67,0.32,1.01
		C439.86,246.23,439.87,246.21,439.89,246.19z"/>
	<path class="st0" d="M438.44,302.12c0-0.01-0.01-0.01-0.01-0.02C438.43,302.11,438.43,302.12,438.44,302.12
		C438.44,302.12,438.44,302.12,438.44,302.12z"/>
	<path class="st0" d="M473.27,627.65c-5.37-2.31-10.37-5.45-15.86-7.59c0.03,0.11,0.06,0.21,0.1,0.31
		c1.27,3.37,7.89,6.19,10.82,7.96c1.72,1.04,5.22,2.4,6.41,4.05c1.86,2.57,0.77,8.37,0.5,11.32c-0.2,2.09-1.08,4.35-0.92,6.36
		c1.17-3.39,2.84-6.58,4.36-9.82c1.37-2.92,3.29-5.66,1.23-8.68C478.39,629.34,475.53,628.62,473.27,627.65z"/>
	<path class="st0" d="M486.64,158.19c-0.21-0.01-0.41-0.03-0.62-0.04c-0.45-0.03-0.9-0.07-1.34-0.1c0.2,0.19,0.41,0.34,0.64,0.39
		C485.7,158.51,486.17,158.38,486.64,158.19z"/>
	<path class="st0" d="M486.73,163.11c0.11-0.11,0.23-0.25,0.36-0.39c-0.16,0.07-0.31,0.12-0.47,0.16
		C486.66,162.96,486.7,163.03,486.73,163.11z"/>
	<path class="st0" d="M494.11,105.12c0.36,0.48,0.71,0.96,1.05,1.45c-0.07-0.14-0.14-0.27-0.22-0.4
		C494.69,105.81,494.41,105.46,494.11,105.12z"/>
	<path class="st0" d="M466.88,228.18c-0.01-0.01-0.02-0.02-0.02-0.02c-0.07,0.21-0.13,0.42-0.2,0.62c0.19-0.12,0.37-0.22,0.56-0.34
		C467.11,228.35,466.99,228.28,466.88,228.18z"/>
	<path class="st0" d="M331.72,546.17c-0.39-0.38-0.78-0.8-1.17-1.25c-1.89-2.17-3.82-4.93-6.42-5.82
		c-0.26,5.15,4.12,10.02,4.82,14.88c-3.17,1.36-6.86,1.76-10.24,2.39c-4.01,0.75-7.76,1.68-11.57,3.17
		c-3.69,1.45-8.7,3.8-12.76,3.31c6.84,0.83,13.47-0.98,20.25-1.12c6-0.12,11.07-3.03,16.67-5.02c2.13-0.76,4.38-1.09,6.45-2
		C337.11,551.2,334.16,548.52,331.72,546.17z"/>
	<path class="st0" d="M263.72,538.87c-2.59,0.12-5.2-0.08-7.79,0.04c-2.86,0.13-5.7,0.66-8.31-0.81c2.41-0.47,4.29-2.09,6.49-3.06
		c2.17-0.95,4.55-1.49,6.77-2.36c0.55-0.22,3.55-1.99,3.74-1.93c-2.53-0.86-5.41,0.58-7.9,0.96c-2.43,0.37-4.88,0.88-7.2,1.75
		c-0.6,0.23-1.19,0.48-1.77,0.76c-3.11,1.51-4.59,2.7-8.27,2.5c-2.71-0.15-5.4,1.34-8.19,1.56c-2.59,0.2-5.27-0.08-7.85,0.21
		c-3.77,0.42-8.44,1.72-11.77,1.35c3.2,0.75,6.6,0.2,9.87,0.21c3.8,0.01,7.62-0.09,11.42,0c5.84,0.14,11.56,0.04,17.34,0.39
		c2.4,0.15,4.77,0.2,7.19,0.2c5.51,0,11.4,0.03,16.5-2.39C272.58,536.78,265.84,538.77,263.72,538.87z"/>
	<path class="st0" d="M536.37,580.52c-7.57-4.18-14.82-8.72-22.6-12.5c-3.11-1.51-6.15-3.09-9.36-4.39
		c-2.6-1.06-5.96-3.01-8.72-3.14c2.05,3.09,6.42,4.73,9.5,6.53c0.37,0.22,0.75,0.44,1.12,0.67c3.76,2.26,7.42,4.7,11.3,6.76
		c6.55,3.48,13.35,6.54,19.76,10.24c5.07,2.92,11.83,5.6,15.61,10.26c4.15,5.12,6.47,11.73,8.09,18.27c0.7-0.54,1.4-1.08,2.1-1.62
		c-0.26-1.98-0.72-4.54,0.3-5.84c2.16-2.76,6.19-2.85,10.26-2.7c1.06-0.9,2.13-1.79,3.18-2.71c-6.75-1.66-12.68-4.45-18.65-8.11
		C551.16,587.89,543.64,584.53,536.37,580.52z"/>
	<path class="st0" d="M0,0v723.01h737.08V0H0z M639.71,147.38c4.78,0.41,8.95,3.35,13.7,3.97c-4.51,5.51-9.97,10.21-16.09,13.42
		c-6.12,3.21-12.92,4.88-19.52,4.46c0.1-0.61,0.62-1.06,1.1-1.43c5.71-4.47,11.51-9,18.06-11.69c2.57-1.06,5.25-1.83,7.62-3.37
		c-4.76,0.2-9.48,1.72-13.91,3.87c-4.43,2.15-8.6,4.92-12.72,7.73c0.25-0.17,0.45-1.71,0.61-2.07c0.22-0.48,0.55-0.96,0.8-1.43
		c0.58-1.08,1.22-2.13,1.93-3.13c1.48-2.08,3.21-3.97,5.16-5.57C630.28,149,635,146.97,639.71,147.38z M600.76,411.94
		c-6.47-3.51-12.27-8.28-16.64-14.2c-4.37-5.92-7.27-13-7.97-20.43c0.65-0.06,1.2,0.4,1.67,0.83c5.61,5.12,11.29,10.32,15.2,16.85
		c1.53,2.56,2.8,5.33,4.79,7.54c-1.02-5.22-3.41-10.05-6.4-14.38c-2.98-4.33-6.56-8.2-10.18-12.01c0.22,0.23,1.85,0.03,2.25,0.12
		c0.53,0.12,1.08,0.35,1.61,0.51c1.22,0.35,2.41,0.78,3.56,1.29c2.41,1.07,4.66,2.49,6.64,4.21c3.91,3.39,6.81,8.08,7.21,13.41
		C602.91,401.09,600.59,406.5,600.76,411.94z M591.86,348.7c0.64-0.27,1.35,0.04,1.98,0.34c7.42,3.57,14.94,7.22,21.09,12.82
		c2.41,2.2,4.62,4.7,7.39,6.38c-2.77-5.16-6.81-9.46-11.29-13.05c-4.48-3.59-9.42-6.51-14.37-9.34c0.3,0.17,1.9-0.56,2.33-0.6
		c0.58-0.05,1.22,0.02,1.82,0.01c1.36-0.03,2.72,0.04,4.07,0.21c2.81,0.35,5.58,1.12,8.17,2.28c5.11,2.3,9.63,6.3,11.8,11.77
		c2.2,5.56,1.62,11.99,3.6,17.65c-7.77-1.61-15.27-4.76-21.69-9.57C600.34,362.8,595.03,356.29,591.86,348.7z M588.21,301.77
		c-3.35,4.8-6.06,9.92-8.68,15.04c0.16-0.31-0.56-1.7-0.6-2.1c-0.05-0.54,0.01-1.16-0.02-1.71c-0.05-1.28,0-2.57,0.14-3.87
		c0.29-2.71,0.98-5.44,2.05-8.07c2.12-5.19,5.85-10.09,11.03-13c5.26-2.96,11.39-3.45,16.75-6.21c-1.42,7.58-4.3,15.16-8.79,21.98
		c-4.49,6.82-10.6,12.86-17.78,17.06c-0.27-0.56,0.01-1.28,0.29-1.92c3.29-7.56,6.65-15.24,11.9-21.94c2.06-2.63,4.4-5.11,5.96-7.98
		C595.6,292.48,591.57,296.97,588.21,301.77z M564.53,275.52c-4.35-1.99-8.99-3.38-13.63-4.7c0.28,0.08,1.55-0.76,1.91-0.87
		c0.49-0.14,1.05-0.2,1.56-0.31c1.16-0.26,2.33-0.44,3.51-0.55c2.46-0.22,4.93-0.11,7.32,0.33c4.7,0.88,9.14,3.18,11.77,7.03
		c2.68,3.91,3.1,8.98,5.6,13c-6.88,0.12-13.75-1-19.92-3.6c-6.18-2.59-11.65-6.69-15.44-11.99c0.51-0.32,1.16-0.21,1.74-0.09
		c6.86,1.46,13.82,2.96,19.88,6.21c2.38,1.27,4.62,2.82,7.23,3.63C572.94,280.12,568.87,277.51,564.53,275.52z M595.24,252.61
		c-4.13-2.62-8.68-4.59-13.25-6.48c0.28,0.12,1.74-0.73,2.14-0.82c0.53-0.12,1.12-0.13,1.67-0.22c1.25-0.2,2.5-0.3,3.73-0.32
		c2.58-0.04,5.13,0.29,7.52,1c4.71,1.4,8.88,4.38,10.9,8.96c2.06,4.65,1.57,10.43,3.41,15.2c-7.14-0.45-14.04-2.3-19.96-5.77
		c-5.92-3.46-10.83-8.56-13.79-14.89c0.59-0.32,1.24-0.14,1.82,0.05c6.83,2.24,13.76,4.53,19.44,8.72c2.23,1.65,4.27,3.59,6.82,4.73
		C603.11,258.54,599.38,255.23,595.24,252.61z M604.26,209.98c-4.59-3.5-9.76-6.31-14.95-9.03c0.32,0.17,2.16-0.63,2.64-0.68
		c0.65-0.07,1.35-0.02,2.01-0.05c1.51-0.08,3-0.04,4.48,0.08c3.07,0.26,6.06,0.95,8.81,2.05c5.42,2.17,10.01,6.09,11.86,11.58
		c1.87,5.58,0.58,12.14,2.19,17.83c-8.43-1.38-16.41-4.33-23.02-9.01c-6.61-4.68-11.82-11.12-14.56-18.73
		c0.74-0.29,1.49-0.01,2.15,0.28c7.84,3.39,15.79,6.85,22.03,12.34c2.45,2.15,4.63,4.62,7.53,6.24
		C612.88,217.72,608.85,213.48,604.26,209.98z M626.81,185c-3.66-2.79-7.77-5.02-11.9-7.19c0.25,0.13,1.72-0.5,2.1-0.54
		c0.51-0.05,1.07-0.01,1.6-0.04c1.2-0.06,2.39-0.04,3.56,0.07c2.45,0.21,4.82,0.76,7.01,1.63c4.32,1.73,7.97,4.85,9.44,9.22
		c1.49,4.44,0.46,9.67,1.74,14.2c-6.71-1.1-13.06-3.45-18.33-7.18c-5.26-3.73-9.41-8.86-11.59-14.92c0.59-0.23,1.19-0.01,1.71,0.22
		c6.24,2.7,12.57,5.45,17.54,9.83c1.95,1.72,3.69,3.68,5.99,4.97C633.67,191.17,630.46,187.79,626.81,185z M608.43,324.21
		c0.26-0.62,0.92-0.93,1.53-1.17c7.2-2.92,14.52-5.86,22.16-6.61c3-0.29,6.05-0.25,8.96-1.12c-5.11-1.34-10.52-1.25-15.78-0.4
		c-5.26,0.85-10.39,2.45-15.48,4.12c0.31-0.1,0.91-1.68,1.17-2.01c0.36-0.44,0.83-0.84,1.22-1.26c0.89-0.97,1.84-1.87,2.84-2.71
		c2.1-1.74,4.42-3.19,6.89-4.27c4.86-2.11,10.4-2.73,15.31-0.77c4.99,1.99,8.68,6.48,13.58,8.7c-6.19,4.41-13.18,7.66-20.5,9.09
		C623,327.23,615.35,326.81,608.43,324.21z M606.31,147.6c0.02-0.99,0.11-1.98,0.26-2.96c0.32-2.05,0.92-4.06,1.79-5.94
		c1.71-3.71,4.56-6.96,8.36-8.48c3.85-1.55,8.23-1.06,12.14-2.45c-1.31,5.65-3.67,11.09-7.13,15.72
		c-3.46,4.63-8.05,8.44-13.31,10.67c-0.17-0.47,0.06-0.99,0.28-1.44c2.64-5.37,5.34-10.82,9.33-15.25c1.57-1.74,3.33-3.32,4.56-5.32
		c-3.59,1.97-6.64,4.87-9.22,8.1c-2.57,3.23-4.7,6.8-6.77,10.39c0.13-0.22-0.33-1.39-0.34-1.71
		C606.24,148.5,606.31,148.04,606.31,147.6z M587.87,163.61c-2.57,3.23-4.7,6.8-6.77,10.39c0.13-0.22-0.33-1.39-0.34-1.71
		c-0.02-0.42,0.05-0.89,0.06-1.32c0.02-0.99,0.11-1.98,0.26-2.96c0.32-2.05,0.92-4.06,1.79-5.94c1.71-3.71,4.56-6.96,8.36-8.48
		c3.85-1.55,8.23-1.06,12.14-2.45c-1.31,5.65-3.67,11.09-7.13,15.72c-3.46,4.63-8.05,8.43-13.31,10.67
		c-0.17-0.47,0.06-0.99,0.28-1.44c2.64-5.37,5.34-10.82,9.33-15.25c1.57-1.74,3.33-3.32,4.56-5.32
		C593.49,157.48,590.44,160.38,587.87,163.61z M591.73,137.22c-5.97,5.77-13.3,10.09-21.18,12c-0.11-0.71,0.33-1.4,0.75-1.99
		c5.02-7.03,10.13-14.16,16.79-19.52c2.61-2.1,5.46-3.93,7.66-6.49c-5.49,1.94-10.45,5.33-14.84,9.32
		c-4.39,3.99-8.24,8.57-12.01,13.19c0.23-0.28-0.11-2.07-0.05-2.52c0.08-0.61,0.29-1.26,0.41-1.88c0.27-1.41,0.64-2.81,1.1-4.17
		c0.95-2.85,2.29-5.58,3.97-8.05c3.31-4.88,8.08-8.83,13.74-10.08c5.75-1.27,11.71,0.49,17.5-0.52
		C602.34,124.25,597.7,131.45,591.73,137.22z M548.21,127.29c-3.66,3.52-6.86,7.54-9.98,11.58c0.19-0.25-0.14-1.77-0.1-2.16
		c0.06-0.52,0.22-1.09,0.31-1.62c0.2-1.22,0.48-2.42,0.84-3.6c0.75-2.46,1.83-4.83,3.21-6.99c2.72-4.26,6.72-7.76,11.54-8.97
		c4.89-1.24,10.04,0.12,14.97-0.89c-2.59,6.71-6.39,12.99-11.37,18.08c-4.98,5.09-11.16,8.97-17.86,10.8
		c-0.11-0.61,0.25-1.2,0.6-1.72c4.13-6.14,8.35-12.37,13.93-17.12c2.19-1.86,4.59-3.5,6.41-5.75
		C556.05,120.74,551.87,123.77,548.21,127.29z M565.04,78.82c0.13-0.79,0.31-1.56,0.54-2.33c0.48-1.59,1.18-3.12,2.07-4.52
		c1.75-2.75,4.33-5.02,7.45-5.81c3.16-0.8,6.49,0.07,9.68-0.59c-1.67,4.34-4.12,8.4-7.33,11.69c-3.21,3.29-7.2,5.8-11.53,6.99
		c-0.07-0.39,0.16-0.78,0.39-1.11c2.67-3.97,5.38-8,8.98-11.07c1.41-1.21,2.96-2.27,4.14-3.72c-3.01,1.16-5.7,3.13-8.07,5.41
		c-2.37,2.28-4.42,4.88-6.44,7.49c0.12-0.16-0.09-1.14-0.07-1.39C564.88,79.53,564.99,79.17,565.04,78.82z M585.9,93.59
		c2.73,0.32,5.41,0.97,8.22,0.74c-4.14-2.23-8.95-3.22-13.83-3.48c-4.88-0.26-9.86,0.19-14.81,0.72c0.3-0.03,1.27-1.36,1.59-1.61
		c0.43-0.33,0.97-0.61,1.42-0.92c1.05-0.71,2.14-1.35,3.26-1.92c2.33-1.18,4.79-2.05,7.26-2.55c4.88-0.98,9.94-0.45,13.74,2.31
		c3.85,2.81,5.87,7.65,9.58,10.65c-6.69,2.82-13.76,4.42-20.62,4.28c-6.86-0.13-13.5-2.03-18.89-5.78c0.4-0.52,1.07-0.67,1.67-0.77
		C571.66,94.02,578.94,92.76,585.9,93.59z M547.36,69.26c5.04-1.89,10.63-1.07,15.73-2.73c-2,7.37-5.32,14.42-10.02,20.37
		c-4.7,5.95-10.8,10.77-17.69,13.5c-0.19-0.63,0.13-1.29,0.44-1.88c3.69-6.95,7.46-14.01,12.83-19.67c2.11-2.22,4.46-4.23,6.15-6.81
		c-4.73,2.45-8.8,6.13-12.29,10.28c-3.48,4.14-6.41,8.75-9.27,13.38c0.17-0.28-0.35-1.84-0.35-2.26c0-0.56,0.11-1.17,0.15-1.74
		c0.08-1.3,0.24-2.6,0.49-3.88c0.52-2.68,1.4-5.29,2.62-7.73C538.56,75.28,542.4,71.12,547.36,69.26z M520.1,74.02
		c0.01-0.71,0.08-1.42,0.19-2.13c0.23-1.47,0.66-2.92,1.28-4.27c1.23-2.66,3.28-5,6.01-6.1c2.77-1.11,5.91-0.76,8.72-1.76
		c-0.94,4.06-2.64,7.97-5.12,11.29c-2.49,3.33-5.78,6.06-9.57,7.67c-0.12-0.34,0.04-0.71,0.2-1.03c1.9-3.86,3.84-7.78,6.71-10.96
		c1.13-1.25,2.4-2.39,3.27-3.83c-2.58,1.41-4.77,3.5-6.62,5.82c-1.85,2.32-3.38,4.89-4.87,7.46c0.09-0.16-0.24-1-0.25-1.23
		C520.04,74.67,520.09,74.33,520.1,74.02z M517.2,91.4c2.97,0.33,5.43,2.11,8.37,2.57c-3.11,3.07-6.78,5.65-10.78,7.36
		c-4,1.71-8.34,2.53-12.46,2.15c0.09-0.35,0.44-0.59,0.76-0.8c3.81-2.45,7.68-4.92,11.92-6.33c1.66-0.55,3.39-0.94,4.95-1.77
		c-2.99,0.01-6.03,0.79-8.92,1.93c-2.89,1.14-5.64,2.64-8.37,4.17c0.17-0.09,0.37-0.97,0.49-1.17c0.16-0.27,0.4-0.54,0.58-0.8
		c0.42-0.61,0.88-1.2,1.37-1.75c1.03-1.16,2.22-2.21,3.52-3.09C511.21,92.13,514.27,91.07,517.2,91.4z M516.03,71.92
		c-2.35,4.01-5.43,7.6-9.13,10.3c-3.7,2.7-8.04,4.48-12.49,4.89c-0.01-0.4,0.29-0.74,0.56-1.03c3.28-3.47,6.61-6.98,10.66-9.39
		c1.59-0.95,3.29-1.72,4.68-2.96c-3.15,0.62-6.12,2.09-8.82,3.93c-2.7,1.84-5.15,4.05-7.57,6.29c0.15-0.14,0.09-1.15,0.16-1.39
		c0.09-0.33,0.26-0.67,0.37-1c0.26-0.76,0.56-1.5,0.92-2.21c0.74-1.49,1.67-2.89,2.78-4.12c2.18-2.42,5.09-4.21,8.28-4.44
		C509.65,70.55,512.78,72.01,516.03,71.92z M492.35,52.77c3.85-1.55,8.23-1.06,12.14-2.45c-1.31,5.65-3.67,11.09-7.13,15.72
		c-3.46,4.63-8.05,8.43-13.31,10.67c-0.17-0.47,0.06-0.99,0.28-1.44c2.64-5.37,5.34-10.82,9.33-15.25c1.57-1.74,3.33-3.32,4.56-5.32
		c-3.59,1.97-6.64,4.87-9.22,8.1c-2.57,3.23-4.7,6.8-6.77,10.39c0.13-0.22-0.33-1.39-0.34-1.71c-0.02-0.42,0.05-0.89,0.06-1.32
		c0.02-0.99,0.11-1.98,0.26-2.96c0.32-2.05,0.92-4.06,1.79-5.94C485.71,57.54,488.56,54.29,492.35,52.77z M471.17,103.14
		c4.87,0.85,9.33,3,13.71,5.12c0.37,0.18,0.77,0.39,0.88,0.78c-4.71,1.18-9.7,1.02-14.3-0.22c-4.6-1.24-8.82-3.55-12.41-6.5
		c3.37-1.06,6.17-3.53,9.58-4.45c3.36-0.9,6.88-0.24,9.82,1.28c1.5,0.77,2.86,1.76,4.06,2.91c0.57,0.55,1.1,1.14,1.59,1.76
		c0.21,0.27,0.48,0.54,0.67,0.82c0.14,0.21,0.38,1.18,0.57,1.26c-3.14-1.26-6.31-2.49-9.63-3.28c-3.32-0.79-6.81-1.13-10.24-0.61
		C467.28,102.67,469.26,102.81,471.17,103.14z M459.09,49.67c0.07-0.38,0.22-0.78,0.31-1.15c0.21-0.87,0.48-1.73,0.8-2.56
		c0.67-1.74,1.58-3.41,2.7-4.9c2.2-2.95,5.29-5.3,8.86-5.96c3.63-0.67,7.3,0.55,10.95,0.04c-2.23,4.74-5.32,9.1-9.21,12.55
		c-3.89,3.45-8.58,5.97-13.56,6.99c-0.05-0.45,0.25-0.86,0.52-1.22c3.33-4.25,6.71-8.56,11.02-11.74c1.69-1.25,3.52-2.32,4.97-3.86
		c-3.48,1.08-6.68,3.09-9.53,5.47c-2.85,2.38-5.38,5.14-7.86,7.92C459.21,51.07,459.04,49.95,459.09,49.67z M449.16,86.3
		c0.08-1.21,0.25-2.42,0.5-3.62c0.52-2.49,1.38-4.91,2.58-7.16c2.35-4.43,6.08-8.22,10.87-9.83c4.87-1.64,10.26-0.75,15.19-2.17
		c-1.97,6.84-5.23,13.34-9.8,18.78c-4.57,5.44-10.49,9.79-17.15,12.18c-0.18-0.59,0.14-1.21,0.44-1.74
		c3.61-6.41,7.28-12.9,12.5-18.06c2.05-2.02,4.33-3.85,5.97-6.22c-4.57,2.17-8.53,5.52-11.91,9.3c-3.39,3.79-6.24,8.02-9.03,12.27
		c0.17-0.26-0.32-1.73-0.32-2.11C449.01,87.39,449.12,86.82,449.16,86.3z M447.17,164.3c0.26,2.97,0.92,5.86,1.61,8.73
		c-0.04-0.17-0.85-0.51-1.01-0.65c-0.22-0.2-0.41-0.46-0.62-0.68c-0.48-0.5-0.92-1.03-1.32-1.59c-0.84-1.18-1.52-2.48-1.99-3.87
		c-0.93-2.74-1.06-5.87,0.14-8.65c1.22-2.83,3.7-4.94,5.04-7.72c2.09,3.48,3.54,7.41,4.03,11.54c0.49,4.13,0,8.46-1.61,12.39
		c-0.32-0.14-0.45-0.52-0.56-0.86c-1.27-4.06-2.56-8.18-2.68-12.5c-0.05-1.69,0.08-3.42-0.27-5.06
		C447.06,158.27,446.91,161.33,447.17,164.3z M431.58,70.22c0.17-3.87,1.58-7.79,4.57-10.58c3.03-2.83,7.35-4.11,10.5-6.82
		c0.97,5.4,0.88,11.02-0.58,16.36c-1.46,5.35-4.29,10.42-8.39,14.39c-0.34-0.34-0.33-0.88-0.3-1.35c0.39-5.67,0.8-11.43,2.84-16.81
		c0.8-2.11,1.85-4.17,2.22-6.37c-2.62,3.1-4.36,6.79-5.53,10.58c-1.16,3.79-1.78,7.71-2.33,11.61c0.03-0.24-0.86-1.08-0.99-1.34
		c-0.18-0.36-0.3-0.79-0.46-1.17c-0.37-0.86-0.68-1.76-0.92-2.66C431.72,74.15,431.49,72.18,431.58,70.22z M430.29,133.6
		c3.79,1.89,6.92,4.78,10,7.64c0.26,0.24,0.54,0.52,0.53,0.88c-4.15-0.11-8.2-1.43-11.67-3.59c-3.47-2.16-6.37-5.13-8.6-8.52
		c3.02-0.1,5.92-1.56,8.93-1.54c2.97,0.02,5.7,1.43,7.74,3.43c1.04,1.01,1.92,2.18,2.62,3.45c0.34,0.61,0.63,1.24,0.87,1.89
		c0.11,0.28,0.26,0.57,0.35,0.86c0.07,0.21,0.03,1.1,0.16,1.21c-2.27-1.83-4.57-3.63-7.1-5.09c-2.53-1.46-5.31-2.59-8.25-2.95
		C427.21,132.27,428.8,132.86,430.29,133.6z M419.7,27.78c2.3-3.45,6.21-5.68,8.66-9.05c2.19,5.03,3.38,10.52,3.19,16.06
		c-0.19,5.54-1.79,11.12-4.86,15.93c-0.41-0.26-0.52-0.78-0.6-1.25c-0.92-5.61-1.84-11.31-1.09-17.02c0.29-2.24,0.84-4.48,0.7-6.71
		c-1.84,3.61-2.69,7.61-2.96,11.56c-0.26,3.96,0.04,7.91,0.4,11.83c-0.02-0.24-1.08-0.85-1.27-1.08c-0.26-0.31-0.47-0.7-0.72-1.03
		c-0.56-0.76-1.06-1.55-1.5-2.38c-0.92-1.73-1.59-3.6-1.96-5.53C416.96,35.32,417.44,31.18,419.7,27.78z M423.21,69.43
		c0.88,2.53,1.37,5.26,1.48,8.04c0.05,1.33,0.02,2.68-0.11,4.04c-0.06,0.59-0.04,1.23-0.13,1.81c-0.07,0.43-0.86,2.05-0.72,2.35
		c-2.23-4.81-4.53-9.6-7.48-13.91c-2.96-4.31-6.6-8.15-11.12-10.69c1.33,2.68,3.46,4.78,5.29,7.09c4.67,5.89,7.45,13.23,10.17,20.46
		c0.23,0.61,0.45,1.3,0.16,1.95c-6.72-2.84-12.29-7.85-16.22-14.04c-3.93-6.19-6.25-13.52-7.14-21.18
		c5.04,1.73,10.99,0.88,15.92,2.85C418.16,60.11,421.48,64.43,423.21,69.43z M408.92,103.63c-2.37,2.05-4.48,4.39-6.56,6.74
		c0.13-0.14,0.01-1.02,0.05-1.24c0.06-0.3,0.19-0.63,0.27-0.93c0.18-0.7,0.42-1.39,0.69-2.08c0.58-1.42,1.34-2.79,2.28-4.04
		c1.84-2.47,4.41-4.51,7.35-5.25c2.98-0.75,5.98,0,8.97-0.63c-1.89,3.88-4.49,7.52-7.73,10.49c-3.23,2.97-7.12,5.24-11.21,6.35
		c-0.04-0.35,0.21-0.69,0.45-0.99c2.79-3.56,5.62-7.18,9.2-9.96c1.4-1.09,2.92-2.05,4.12-3.36
		C413.93,99.8,411.29,101.58,408.92,103.63z M385.95,31.43c1.05-3.3,3.15-6.51,6.28-8.57c3.18-2.1,7.06-2.72,10.31-4.7
		c-0.46,4.73-1.87,9.54-4.33,13.97c-2.47,4.43-6.01,8.46-10.34,11.43c-0.2-0.33-0.07-0.79,0.07-1.19c1.66-4.82,3.36-9.72,6.31-14.11
		c1.16-1.72,2.51-3.37,3.34-5.22c-2.9,2.37-5.22,5.34-7.07,8.47c-1.86,3.13-3.29,6.41-4.66,9.7c0.08-0.2-0.46-1.02-0.5-1.26
		c-0.07-0.33-0.06-0.71-0.11-1.05c-0.1-0.78-0.15-1.58-0.13-2.39C385.14,34.82,385.42,33.1,385.95,31.43z M382.49,76.13
		c0.6,1.73,0.93,3.59,1.01,5.49c0.04,0.91,0.01,1.83-0.08,2.76c-0.04,0.4-0.03,0.84-0.09,1.23c-0.04,0.29-0.59,1.4-0.49,1.6
		c-1.52-3.29-3.09-6.55-5.11-9.5c-2.02-2.94-4.5-5.56-7.59-7.3c0.91,1.83,2.36,3.26,3.61,4.84c3.19,4.02,5.09,9.03,6.94,13.96
		c0.16,0.41,0.31,0.89,0.11,1.33c-4.59-1.94-8.39-5.36-11.07-9.58c-2.68-4.22-4.27-9.23-4.87-14.46c3.44,1.18,7.5,0.6,10.86,1.94
		C379.04,69.77,381.31,72.72,382.49,76.13z M360.92,101.04c-1.42,2.39-2.51,4.9-3.56,7.41c0.06-0.15-0.35-0.78-0.39-0.96
		c-0.05-0.25-0.05-0.54-0.08-0.8c-0.08-0.6-0.11-1.21-0.1-1.82c0.02-1.28,0.24-2.59,0.64-3.87c0.8-2.52,2.4-4.97,4.8-6.55
		c2.43-1.6,5.39-2.08,7.88-3.59c-0.35,3.62-1.43,7.29-3.31,10.67c-1.88,3.38-4.59,6.47-7.9,8.73c-0.15-0.25-0.05-0.6,0.06-0.91
		c1.27-3.68,2.57-7.42,4.82-10.78c0.88-1.32,1.92-2.58,2.55-3.99C364.11,96.38,362.34,98.65,360.92,101.04z M356.65,46.81
		c0.18-3.68,1.43-7.35,4.03-9.89c2.64-2.58,6.37-3.62,9.11-6.07c0.79,5.18,0.66,10.52-0.64,15.55c-1.3,5.03-3.79,9.74-7.35,13.37
		c-0.29-0.34-0.28-0.85-0.24-1.3c0.39-5.38,0.79-10.85,2.59-15.89c0.71-1.98,1.63-3.89,1.97-5.98c-2.29,2.84-3.82,6.29-4.86,9.85
		c-1.04,3.56-1.6,7.26-2.11,10.96c0.03-0.22-0.73-1.06-0.84-1.32c-0.15-0.35-0.25-0.77-0.39-1.13c-0.31-0.84-0.57-1.7-0.77-2.57
		C356.73,50.56,356.56,48.68,356.65,46.81z M333.01,84.41c-3.62,4.31-6.67,9.1-9.64,13.91c0.18-0.29-0.36-1.91-0.36-2.35
		c0-0.58,0.12-1.22,0.15-1.81c0.08-1.35,0.25-2.7,0.51-4.04c0.54-2.78,1.46-5.51,2.72-8.04c2.5-4.99,6.49-9.32,11.65-11.25
		c5.24-1.96,11.05-1.12,16.36-2.84c-2.07,7.66-5.53,15-10.42,21.18c-4.89,6.18-11.23,11.19-18.39,14.03
		c-0.19-0.65,0.14-1.35,0.46-1.95c3.84-7.23,7.75-14.57,13.34-20.46c2.19-2.31,4.64-4.4,6.39-7.09
		C340.87,76.27,336.63,80.1,333.01,84.41z M321.93,62.03c0.05-0.89,0.17-1.78,0.34-2.66c0.36-1.84,0.96-3.63,1.8-5.3
		c1.65-3.29,4.28-6.14,7.68-7.42c3.45-1.29,7.29-0.74,10.79-1.87c-1.37,5.05-3.65,9.89-6.87,13.97c-3.22,4.08-7.41,7.38-12.13,9.25
		c-0.13-0.43,0.09-0.89,0.3-1.29c2.53-4.77,5.11-9.6,8.8-13.49c1.44-1.52,3.06-2.9,4.21-4.67c-3.24,1.68-6.03,4.21-8.42,7.05
		c-2.39,2.84-4.4,6-6.36,9.17c0.12-0.19-0.24-1.26-0.24-1.55C321.83,62.84,321.91,62.42,321.93,62.03z M290.51,150.27
		c-4.09,3.47-7.76,7.48-11.36,11.53c0.22-0.25,0.05-1.84,0.14-2.24c0.12-0.54,0.35-1.12,0.49-1.66c0.34-1.25,0.76-2.48,1.26-3.69
		c1.03-2.52,2.39-4.92,4.02-7.09c3.22-4.28,7.64-7.72,12.63-8.74c5.07-1.04,10.1,0.62,15.18-0.18c-3.37,6.84-7.9,13.16-13.49,18.19
		c-5.59,5.03-12.25,8.75-19.21,10.32c-0.05-0.64,0.39-1.24,0.8-1.75c4.86-6.17,9.8-12.42,15.96-17.07c2.41-1.82,5.02-3.41,7.11-5.65
		C299.15,143.86,294.6,146.8,290.51,150.27z M272.99,131.07c-2.08,4.16-3.62,8.57-5.09,12.99c0.09-0.27-0.64-1.43-0.72-1.77
		c-0.1-0.46-0.13-0.98-0.21-1.46c-0.18-1.08-0.29-2.19-0.33-3.29c-0.08-2.31,0.14-4.65,0.68-6.91c1.07-4.46,3.44-8.71,7.17-11.32
		c3.79-2.64,8.56-3.2,12.45-5.67c-0.24,6.48-1.64,12.99-4.38,18.89c-2.74,5.9-6.85,11.18-12.01,14.93
		c-0.27-0.47-0.14-1.09,0.01-1.64c1.72-6.51,3.47-13.11,6.82-18.93c1.31-2.28,2.87-4.44,3.77-6.93
		C277.73,122.99,275.07,126.91,272.99,131.07z M308.24,69.2c-1.84,7.13-5.37,13.93-10.43,19.31c-0.42-0.45-0.39-1.16-0.35-1.79
		c0.54-7.53,1.09-15.18,3.64-22.37c1-2.82,2.31-5.57,2.78-8.51c-3.25,4.18-5.42,9.12-6.89,14.18c-1.47,5.06-2.25,10.27-2.97,15.46
		c0.04-0.32-1.04-1.4-1.2-1.75c-0.22-0.47-0.36-1.04-0.56-1.54c-0.45-1.14-0.81-2.31-1.1-3.51c-0.6-2.5-0.85-5.1-0.73-7.71
		c0.24-5.14,2.02-10.37,5.71-14.15c3.75-3.84,9.06-5.65,12.96-9.33C310.25,54.61,310.08,62.07,308.24,69.2z M277.39,34.81
		c1.07-4.46,3.44-8.71,7.17-11.32c3.79-2.64,8.56-3.2,12.45-5.67c-0.24,6.48-1.64,12.99-4.38,18.89
		c-2.74,5.9-6.85,11.18-12.01,14.93c-0.27-0.47-0.14-1.09,0.01-1.64c1.72-6.51,3.47-13.11,6.82-18.93c1.31-2.28,2.87-4.44,3.77-6.93
		c-3.43,3.04-6.09,6.95-8.17,11.11c-2.08,4.16-3.62,8.57-5.09,12.99c0.09-0.27-0.64-1.43-0.72-1.77c-0.1-0.46-0.13-0.98-0.21-1.46
		c-0.18-1.08-0.29-2.19-0.33-3.29C276.62,39.41,276.84,37.07,277.39,34.81z M264.7,62.63c5.05,0.84,9.09,4.21,14.07,5.27
		c-5.55,5.24-12,9.57-18.96,12.32c-6.96,2.74-14.43,3.86-21.41,2.84c0.19-0.62,0.8-1.03,1.36-1.37c6.69-4.07,13.49-8.2,20.83-10.38
		c2.88-0.85,5.85-1.41,8.58-2.78c-5.1-0.22-10.34,0.93-15.36,2.74c-5.01,1.81-9.83,4.28-14.6,6.79c0.29-0.15,0.71-1.72,0.93-2.06
		c0.3-0.47,0.72-0.93,1.05-1.39c0.76-1.06,1.59-2.07,2.48-3.03c1.85-2,3.96-3.78,6.24-5.24C254.42,63.46,259.73,61.8,264.7,62.63z
		 M232.24,44.84c1.07-4.46,3.44-8.71,7.17-11.32c3.79-2.64,8.56-3.2,12.45-5.67c-0.24,6.48-1.64,12.99-4.38,18.89
		c-2.74,5.9-6.85,11.18-12.01,14.93c-0.27-0.47-0.14-1.09,0.01-1.64c1.72-6.51,3.47-13.11,6.82-18.93c1.31-2.28,2.87-4.44,3.77-6.93
		c-3.43,3.04-6.09,6.95-8.17,11.11c-2.08,4.16-3.62,8.57-5.09,12.99c0.09-0.27-0.64-1.43-0.72-1.77c-0.1-0.46-0.13-0.98-0.21-1.46
		c-0.19-1.08-0.29-2.19-0.33-3.29C231.47,49.45,231.7,47.11,232.24,44.84z M218.78,74.51c5.07-1.04,10.1,0.62,15.18-0.18
		c-3.37,6.84-7.9,13.16-13.49,18.19c-5.59,5.03-12.25,8.75-19.21,10.32c-0.05-0.64,0.39-1.24,0.8-1.75
		c4.86-6.17,9.8-12.42,15.96-17.07c2.41-1.82,5.02-3.41,7.11-5.65c-4.89,1.63-9.44,4.57-13.53,8.05
		c-4.09,3.47-7.76,7.48-11.36,11.53c0.22-0.25,0.05-1.84,0.14-2.24c0.12-0.54,0.35-1.12,0.49-1.66c0.34-1.25,0.76-2.48,1.26-3.69
		c1.03-2.52,2.39-4.92,4.02-7.09C209.36,78.97,213.79,75.53,218.78,74.51z M187.57,67.72c0.24-5.15,2.01-10.35,5.69-14.02
		c3.73-3.73,9.03-5.36,12.92-8.93c1.14,7.2,0.97,14.68-0.86,21.79c-1.83,7.1-5.35,13.81-10.4,19.05c-0.41-0.46-0.39-1.17-0.35-1.81
		c0.53-7.55,1.09-15.22,3.63-22.35c1-2.8,2.3-5.52,2.77-8.45c-3.24,4.09-5.4,8.97-6.87,14.01c-1.46,5.03-2.25,10.24-2.96,15.43
		c0.04-0.32-1.04-1.45-1.2-1.8c-0.22-0.48-0.36-1.06-0.56-1.56c-0.45-1.16-0.81-2.35-1.1-3.56
		C187.7,72.96,187.45,70.33,187.57,67.72z M159.95,32.21c5.14,3.95,9.63,8.87,12.84,14.53c3.22,5.66,5.13,12.07,5.19,18.44
		c-0.54-0.05-0.97-0.52-1.33-0.96c-4.3-5.18-8.66-10.44-11.46-16.54c-1.1-2.39-1.95-4.92-3.46-7.09c0.48,4.56,2.13,8.99,4.31,13.1
		c2.18,4.11,4.88,7.92,7.63,11.69c-0.17-0.23-1.54-0.31-1.86-0.45c-0.43-0.18-0.88-0.47-1.31-0.67c-0.99-0.48-1.95-1.03-2.87-1.64
		c-1.93-1.27-3.7-2.81-5.23-4.57c-3.01-3.46-5.1-7.86-5.05-12.41C157.39,41.02,159.71,36.82,159.95,32.21z M165.02,78.24
		c6.04,0.13,11.24,3.08,14.91,7.23c1.86,2.1,3.37,4.52,4.48,7.14c0.53,1.25,0.97,2.55,1.31,3.89c0.15,0.58,0.39,1.18,0.5,1.77
		c0.08,0.43-0.22,2.26,0.03,2.49c-4.16-3.8-8.4-7.55-13.18-10.62c-4.79-3.06-10.16-5.44-16.05-6.27c2.42,2.09,5.51,3.33,8.35,4.89
		c7.24,3.97,12.9,9.98,18.46,15.91c0.47,0.5,0.96,1.08,0.87,1.81c-8.42-0.34-16.33-3.15-22.86-7.66
		c-6.53-4.51-11.69-10.68-15.38-17.67C152.63,81.01,158.89,78.11,165.02,78.24z M156.55,182.44c5.86-1.75,11.89-1.74,17.82-1.71
		c0.5,0,1.05,0.03,1.37,0.42c-4.68,4.05-10.32,6.68-16.06,7.82c-5.74,1.13-11.58,0.8-17.05-0.66c3.24-3.15,5.14-7.65,8.49-10.66
		c3.3-2.96,7.55-4.17,11.59-4.04c2.05,0.06,4.06,0.45,5.96,1.14c0.91,0.33,1.79,0.72,2.64,1.19c0.37,0.2,0.8,0.36,1.15,0.59
		c0.26,0.17,1.01,1.18,1.26,1.16c-4.12,0.28-8.26,0.63-12.36,1.57c-4.09,0.95-8.15,2.51-11.72,5.07
		C151.98,184.08,154.26,183.12,156.55,182.44z M176.49,287.31c8.36-2.46,16.97-2.47,25.45-2.46c0.71,0,1.51,0.04,1.95,0.58
		c-6.68,5.66-14.74,9.35-22.94,10.95c-8.2,1.6-16.54,1.16-24.34-0.85c4.63-4.4,7.35-10.68,12.14-14.88
		c4.71-4.14,10.79-5.83,16.55-5.68c2.92,0.08,5.8,0.62,8.51,1.56c1.3,0.45,2.56,1,3.77,1.64c0.53,0.28,1.14,0.5,1.64,0.81
		c0.37,0.23,1.44,1.64,1.8,1.61c-5.89,0.41-11.8,0.91-17.64,2.24c-5.84,1.33-11.64,3.53-16.74,7.1
		C169.96,289.62,173.21,288.28,176.49,287.31z M176.51,317.71c-3.96,3.78-7.38,8.07-10.73,12.39c0.2-0.26-0.2-1.86-0.17-2.27
		c0.05-0.55,0.22-1.15,0.3-1.71c0.19-1.28,0.47-2.56,0.84-3.8c0.77-2.61,1.9-5.12,3.37-7.42c2.9-4.53,7.22-8.3,12.51-9.67
		c5.37-1.39,11.09-0.06,16.51-1.22c-2.69,7.12-6.73,13.8-12.1,19.25c-5.37,5.45-12.09,9.65-19.45,11.71
		c-0.14-0.64,0.25-1.27,0.62-1.82c4.41-6.55,8.9-13.19,14.94-18.29c2.37-2,4.98-3.77,6.94-6.18
		C185,310.66,180.47,313.93,176.51,317.71z M152.17,269.91c-8.2,1.6-16.54,1.16-24.34-0.85c4.63-4.4,7.35-10.68,12.14-14.88
		c4.71-4.14,10.79-5.83,16.55-5.68c2.92,0.08,5.8,0.62,8.51,1.56c1.3,0.45,2.56,1,3.77,1.64c0.53,0.28,1.14,0.5,1.64,0.81
		c0.37,0.23,1.44,1.64,1.8,1.61c-5.89,0.41-11.8,0.91-17.64,2.24c-5.84,1.33-11.64,3.53-16.74,7.1c3.34-0.32,6.58-1.66,9.86-2.62
		c8.36-2.46,16.97-2.47,25.45-2.46c0.71,0,1.51,0.04,1.95,0.58C168.43,264.62,160.37,268.31,152.17,269.91z M131.45,412.71
		c8.15-2.59,16.73-2.8,25.18-3c0.71-0.02,1.5,0,1.98,0.52c-6.24,5.66-14,9.43-22.05,11.18c-8.06,1.75-16.4,1.52-24.32-0.24
		c4.29-4.38,6.54-10.54,11-14.74c4.39-4.13,10.32-5.92,16.08-5.91c2.92,0.01,5.82,0.46,8.59,1.31c1.33,0.41,2.62,0.91,3.88,1.5
		c0.55,0.26,1.18,0.46,1.69,0.75c0.39,0.21,1.56,1.55,1.91,1.52c-5.84,0.54-11.69,1.17-17.42,2.6c-5.72,1.43-11.34,3.71-16.16,7.3
		C125.12,415.11,128.26,413.73,131.45,412.71z M164.95,432.7c5.15-7.32,12.3-13.19,19.36-18.95c0.59-0.48,1.28-1,2.05-0.94
		c-1.41,8.28-5.4,16.2-11.05,22.84c-5.65,6.64-12.91,12.03-20.87,16.02c0.62-6.05-1.72-12.05-0.82-18.08
		c0.88-5.94,4.7-11.19,9.6-15.02c2.49-1.94,5.27-3.54,8.22-4.77c1.41-0.59,2.86-1.09,4.33-1.49c0.64-0.17,1.32-0.45,1.96-0.58
		c0.48-0.1,2.4,0.1,2.68-0.16c-4.59,4.28-9.15,8.64-13.03,13.5c-3.88,4.86-7.09,10.26-8.71,16.08
		C161.21,438.67,162.92,435.57,164.95,432.7z M188.51,546.7c-1.26,0.42-2.5,0.31-2.85,0.16c-5.95,0.96-10.57,2.38-16.12,4.93
		c-3.09,1.42-3.51,1.84-5.95-0.21c-2.89-2.43-5.48-8.01-7.78-11.2c-2.03-2.82-3.12-2.74-0.94-4.78c2.15-2.02,12.22-2.09,14.95-1.17
		c2.39,0.8,4.71,3.76,7.02,5.21C180.67,542.04,184.8,544.23,188.51,546.7z M123.59,161.72c8.36-2.46,16.97-2.47,25.45-2.46
		c0.71,0,1.51,0.04,1.95,0.58c-6.68,5.66-14.74,9.35-22.94,10.95c-8.2,1.6-16.54,1.16-24.34-0.85c4.63-4.4,7.35-10.68,12.14-14.88
		c4.71-4.14,10.79-5.83,16.55-5.68c2.92,0.08,5.8,0.62,8.51,1.56c1.3,0.45,2.56,1,3.77,1.64c0.53,0.28,1.14,0.5,1.64,0.81
		c0.37,0.23,1.44,1.64,1.8,1.61c-5.89,0.41-11.8,0.91-17.64,2.24c-5.84,1.33-11.64,3.53-16.74,7.1
		C117.07,164.03,120.31,162.69,123.59,161.72z M143.47,194.78c7.21,3.5,13.69,8.49,18.59,14.89c4.9,6.39,8.18,14.22,9.01,22.61
		c-0.72,0.11-1.33-0.36-1.86-0.82c-6.26-5.39-12.61-10.89-17.01-18.01c-1.72-2.79-3.15-5.84-5.38-8.2
		c1.18,5.85,3.87,11.15,7.22,15.85c3.35,4.7,7.35,8.83,11.4,12.88c-0.25-0.25-2.05,0.1-2.49,0.03c-0.59-0.09-1.2-0.32-1.8-0.45
		c-1.36-0.3-2.68-0.71-3.97-1.2c-2.68-1.04-5.19-2.48-7.41-4.28c-4.37-3.56-7.63-8.67-8.11-14.69
		C141.17,207.26,143.7,200.94,143.47,194.78z M106.79,184.18c5.55-1.13,10.92,0.41,15.15,3.32c2.15,1.47,4.03,3.3,5.59,5.38
		c0.75,1,1.42,2.05,2.01,3.16c0.26,0.48,0.61,0.96,0.83,1.46c0.16,0.37,0.27,2.04,0.55,2.19c-4.6-2.5-9.26-4.94-14.28-6.66
		c-5.02-1.72-10.43-2.71-15.99-2.23c2.65,1.35,5.73,1.81,8.66,2.6c7.45,2.01,13.89,6.15,20.21,10.25c0.53,0.34,1.11,0.76,1.17,1.42
		c-7.77,1.43-15.59,0.58-22.51-2.06c-6.91-2.64-12.92-7.02-17.76-12.43C96.04,189.17,101.16,185.33,106.79,184.18z M109.6,219.76
		c6.36-1.91,12.75-0.69,17.92,2.26c2.62,1.49,4.97,3.43,6.97,5.69c0.96,1.08,1.83,2.25,2.61,3.48c0.34,0.54,0.79,1.06,1.09,1.61
		c0.22,0.41,0.49,2.35,0.83,2.5c-5.57-2.43-11.2-4.79-17.19-6.26c-5.99-1.48-12.37-2.05-18.8-0.9c3.2,1.29,6.83,1.5,10.3,2.11
		c8.85,1.56,16.69,5.71,24.41,9.82c0.65,0.35,1.35,0.77,1.48,1.53c-8.92,2.5-18.1,2.34-26.37-0.01
		c-8.27-2.35-15.64-6.83-21.74-12.63C97.51,226.74,103.14,221.7,109.6,219.76z M122.97,277.12c3.04,0.52,5.96,1.53,8.65,2.96
		c1.29,0.69,2.52,1.47,3.69,2.35c0.51,0.38,1.12,0.72,1.59,1.13c0.35,0.31,1.26,2,1.63,2.03c-6.21-0.42-12.45-0.75-18.75-0.16
		c-6.3,0.59-12.68,2.14-18.54,5.29c3.53,0.15,7.12-0.84,10.69-1.41c9.1-1.45,18.08-0.18,26.93,1.08c0.74,0.11,1.57,0.26,1.95,0.92
		c-7.82,5.2-16.79,8.04-25.59,8.58c-8.8,0.54-17.44-1.18-25.28-4.54c5.49-4.13,9.28-10.59,14.9-14.48
		C110.38,277.05,116.98,276.09,122.97,277.12z M116.62,308.35c7.11-1.08,13.99,1.44,19.41,5.73c2.75,2.18,5.16,4.81,7.17,7.76
		c0.96,1.41,1.82,2.9,2.58,4.46c0.33,0.68,0.78,1.36,1.06,2.04c0.21,0.51,0.35,2.79,0.71,3.02c-5.9-3.77-11.87-7.46-18.3-10.2
		c-6.43-2.74-13.37-4.52-20.49-4.32c3.4,2.04,7.35,2.92,11.09,4.23c9.55,3.33,17.8,9.48,25.91,15.55c0.68,0.51,1.42,1.12,1.5,2.02
		c-9.95,1.31-19.98-0.48-28.84-4.62c-8.86-4.14-16.56-10.58-22.77-18.32C102.85,314.26,109.4,309.45,116.62,308.35z M116.65,359.43
		c5.66-1.88,11.74-0.85,16.9,1.79c2.62,1.34,5.04,3.09,7.18,5.15c1.02,0.99,1.98,2.05,2.86,3.18c0.38,0.49,0.86,0.97,1.21,1.47
		c0.26,0.38,0.75,2.17,1.08,2.3c-5.47-2.16-10.99-4.24-16.73-5.51c-5.74-1.26-11.73-1.69-17.55-0.52c3.13,1.14,6.52,1.28,9.82,1.78
		c8.4,1.29,16.2,5,23.87,8.68c0.64,0.31,1.35,0.69,1.57,1.39c-7.96,2.47-16.5,2.47-24.46,0.44c-7.97-2.03-15.36-6.05-21.75-11.33
		C106.32,366.1,110.9,361.34,116.65,359.43z M135.8,102.33c7,1.55,12.69,6.43,16.46,12.46c1.91,3.06,3.37,6.43,4.35,9.95
		c0.47,1.69,0.82,3.41,1.05,5.16c0.1,0.76,0.31,1.57,0.37,2.32c0.04,0.56-0.53,2.77-0.26,3.12c-4.38-5.71-8.85-11.37-14.05-16.3
		c-5.19-4.93-11.16-9.13-17.9-11.52c2.56,3.17,6,5.43,9.11,8.03c7.94,6.62,13.8,15.43,19.55,24.12c0.48,0.73,0.99,1.57,0.79,2.46
		c-9.74-2.36-18.6-7.69-25.64-14.83c-7.04-7.13-12.3-16.03-15.76-25.61C121.06,102.94,128.68,100.76,135.8,102.33z M98.49,124.37
		c4.42-0.36,8.53,1.25,11.67,3.79c1.59,1.29,2.96,2.82,4.06,4.51c0.53,0.81,0.99,1.66,1.39,2.54c0.17,0.38,0.42,0.77,0.56,1.16
		c0.11,0.29,0.09,1.55,0.3,1.69c-3.45-2.27-6.96-4.5-10.79-6.22c-3.83-1.72-8.01-2.93-12.4-3.05c2,1.24,4.39,1.85,6.63,2.69
		c5.72,2.15,10.52,5.81,15.23,9.42c0.4,0.3,0.82,0.66,0.83,1.16c-6.18,0.4-12.26-0.92-17.52-3.49c-5.26-2.57-9.71-6.37-13.18-10.84
		C89.76,127.17,94,124.74,98.49,124.37z M79.58,242.34c5.55-1.13,10.92,0.41,15.15,3.31c2.15,1.47,4.03,3.3,5.59,5.38
		c0.75,1,1.42,2.05,2.01,3.16c0.26,0.48,0.61,0.96,0.83,1.46c0.16,0.37,0.27,2.04,0.55,2.19c-4.6-2.5-9.26-4.94-14.28-6.66
		c-5.02-1.72-10.43-2.71-15.99-2.23c2.65,1.35,5.73,1.81,8.66,2.6c7.45,2.01,13.89,6.15,20.21,10.25c0.53,0.34,1.11,0.76,1.17,1.42
		c-7.77,1.43-15.59,0.58-22.51-2.06c-6.91-2.64-12.92-7.02-17.76-12.43C68.83,247.33,73.94,243.48,79.58,242.34z M368.54,705.19
		c-182.7,0-330.81-147.28-330.81-328.96c0-29.62,3.95-58.32,11.34-85.62c-6.31,60.82,1.26,97.36,3.11,110.82
		c7.93,57.4,30.95,109.93,64.86,153.45c5.06-4.14,9.83-8.76,15.06-12.55c2.72-1.97,7.42-7.52,11.31-6.06
		c2.53,0.95,4.78,6.3,6.15,8.42c3.89,6.02,8.01,11.86,10.93,18.39c3.5,0.51,8.41-2.35,11.67-3.56c4.97-1.85,9.75-4.38,14.85-5.82
		c2.25-0.63,6.19-2.2,7.65-0.07c0.6,0.87,6.44,11.72,6.2,11.87c-1.4,0.87-2.62,1.86-3.78,2.9c0.56-0.28,1.11-0.58,1.66-0.92
		c-8.48,10.77-19.98,18.36-31.88,24.97c-2.86,2.09-5.77,4.14-8.69,6.15c4.27,3.76,8.65,7.4,13.12,10.94
		c5.51-2.98,10.47-7.02,15.39-10.84c3.02-2.34,5.55-5.07,8.48-7.58c2.26-1.94,3.1-3.68,6.23-2.13c-0.03,0.13-0.1,0.25-0.15,0.38
		c0,0,0.01,0,0.01,0c1.39,0.52,2.73,1.25,4.05,1.96c0.04,0.02,0.08,0.04,0.12,0.06v0c0.4,0.22,0.79,0.43,1.19,0.64
		c-0.1,0.64-0.25,1.28-0.41,1.93c0,0,0,0,0,0c0,0,0,0,0,0c-0.64,2.68-1.62,5.41-2.36,8c-1.03,3.64-1.86,7.44-3.15,11.01
		c-1.65,4.55-4.09,8.94-5.86,13.51c3.18,2.08,6.39,4.1,9.65,6.07c2.73-5.16,6.51-9.92,10.44-12.8c0,0.03,0,0.05,0,0.08
		c1.5-2.36,2.91-4.76,4.02-7.33c6.72-15.56-16.31-30.37-2.61-44.33c10.22-10.42,23.47-5.49,35.73-4.25
		c3.9,0.39,14.95-3.12,17.95-1.03c1.73,1.21,1.8,3.68,2.31,5.52c1.12,4.05,2.24,7.75-0.23,11.51c-2.63,4-7.47,5.23-11.47,7.55
		c-3.41,1.99-6.85,3.95-10.22,6.02c-0.21,0.13-0.41,0.25-0.62,0.38c-2.92,1.82-4.38,4.13-6.08,7.13
		c-3.56,6.25-5.37,13.29-7.79,20.01c-1.74,4.82-4.69,9.38-7.11,13.85c-1.45,2.67-3.13,5.21-4.78,7.77
		c-0.11,0.21-0.21,0.41-0.32,0.62c3.12,1.6,6.27,3.16,9.45,4.65c1.43-3.03,2.92-6.03,4.28-9.09c1.74-3.92,4.27-6.78,6.71-10.32
		c2.08-3.02,3.55-6.42,5.61-9.43c0.79-1.16,1.84-1.87,2.72-2.93c1.3-1.58,2.06-3.63,3.21-5.33c1.61-2.38,3.52-4.65,5.06-7.07
		c0.72-1.14,1.28-2.7,2.29-3.71c-0.09-0.59,0.07-1.22,0.66-1.87c1.48-1.66,5.07-0.64,6.99-0.65c4.17-0.01,13.45-0.82,16.38,3.03
		c1.44,1.9,0.18,6.03-0.04,8.22c-0.36,3.54-0.74,7.21-1.58,10.66c-2.35,9.64-4.03,19.21-7.79,28.44c-0.45,1.09-0.93,2.23-1.43,3.4
		c-0.01,0.03-0.02,0.06-0.03,0.09c-0.59,1.86-4.69,9.66-3.18,10.85c1-1.1,1.94-2.88,2.57-4.3c0.91-2.07,2.02-3.9,2.86-6.02
		c1.96-4.92,4.35-9.66,6.67-14.42c3.38-6.92,5.61-14.48,8.52-21.62c0.65-1.58,1.23-3.17,1.76-4.78c0.45-2,0.88-4,1.3-5.98
		c0.44-2.06,0.25-2.74-0.45-4.54c-0.56-0.98-1.15-1.94-1.47-2.76c-0.45-1.13-1.84-3.18-1.52-4.39c0.24-0.91,0.42-0.93,0.84-1.03
		c0.54-1.21,1.08-1.18,2.66-1.4c1.64-0.23,3.28-0.36,4.92-0.49c2.72-0.52,5.49-0.81,8.26-0.98c0.68-0.09,1.37-0.16,2.05-0.16
		c2.12-0.22,4.63-0.54,5.9,1.18c1.49,2.03,1.89,5.81,2.38,8.22c0.59,2.92,0.99,5.88,1.3,8.85c0.4,3.93,0.7,7.87,1.03,11.81
		c0.24,2.84,0.49,5.68,0.81,8.51c1.12,9.9-5.53,20.77-10.15,29.13c-0.64,1.16-1.3,2.32-1.97,3.46c-2.21,3.78-4.55,7.47-6.96,11.12
		c5.14,1.06,10.33,1.98,15.56,2.79c2.4-5.68,4.64-11.43,6.4-17.48c0.45-1.56,0.97-3.1,1.5-4.64c-0.16,0.25-0.31,0.5-0.47,0.74
		c1.84-7.32,6.31-15.59,6.29-23.21c-0.02-5.04-3.02-7.95-5.63-11.87c-4.26-6.4-0.19-12.18,3.33-18.62c1.3-2.37,2.48-5.04,3.7-7.73
		c0.9-3.11,1.89-6.19,3.57-8.98c1.07-1.78,2.2-2.75,3.47-3.27c0.06-0.07,0.12-0.15,0.18-0.23c0.04,0.04,0.1,0.06,0.14,0.1
		c1.87-0.66,4.05-0.45,6.8-0.45c0.78,0,2.82-0.39,3.55,0c1.88,1,0.36,4.34-0.04,6.32c-0.59,2.95-1.46,5.87-2.29,8.75
		c-0.68,2.35-2.61,5-2.87,7.41c-0.14,1.33,0.59,2.11,1.25,3.37c1.39,2.66,2.48,5.48,3.96,8.1c1.48,2.61,2.97,5.94,4.83,8.09
		c-0.42-5.39-2.2-10.06-3.39-15.26c-0.43-1.89-0.68-3.82-1.6-5.54c2.53-1.93,6.68-4.22,8.41-6.99c0.1-0.16,8.76,10.48,9.48,11.31
		c4.04,4.68,6.49,5.9,4.42,12.34c-3.1,9.64-8.02,21.09-16.75,26.86c-2.86,1.89-7.67,3.45-9.98,6.33c-0.2,0.24-0.37,0.5-0.53,0.76
		c-2.24,3.75-2.27,9.87-2.97,14.06c-0.62,3.72-1.52,7.63-1.04,11.39c0.05,0.37,0.07,0.72,0.11,1.09c1.92,0.15,3.84,0.28,5.77,0.39
		c0.3-5.93,4.37-11.16,8.84-14.78c6.26-5.07,14.8-8.6,19.46-15.51c5.18-7.68,5.66-20.43,6.47-29.46c0.09-0.98,0.12-1.94,0.11-2.89
		c-0.19-7.58-3.3-14.02-6.91-20.86c-3.76-7.12-6.71-17.08-14.05-21.34c-3.26-1.89-10.52-3.69-11.71-7.51
		c-0.66-2.11,0.23-4.79,1.58-7.39c0.05-0.35,0.11-0.7,0.17-1.05c2.2-12.58,8.81-24.3,12.16-36.71c6.17-22.85,4.32-48.77-3.33-69.86
		c-0.26-0.73-0.57-1.46-0.87-2.2c-0.94-1.98-1.77-4-2.48-6.1c-0.22-0.66-0.42-1.34-0.63-2.01c-0.07-0.25-0.15-0.49-0.23-0.74
		c-0.02-0.07-0.09-0.28-0.15-0.46c-0.1-0.27-0.3-0.81-0.35-0.94c-0.21-0.56-0.44-1.11-0.67-1.67c-1.82-4.36-4.05-8.5-6.03-12.77
		c-1.87-4.02-3.4-8.19-5.24-12.23c-1.4-1.99-2.65-3.99-3.87-6.11c-0.21-0.37-0.39-0.75-0.57-1.13c-0.18-0.17-0.36-0.34-0.53-0.52
		c-5.86-5.77-11.43-9.13-19.82-10.01c-7.55-0.79-15.2,0.07-22.67,1.17c-10.92,1.62-21.03,6.12-31.74,8.44
		c-4.3,0.93-8.81,1.12-13.05,2.25c-8.08,2.15-15.24,6.97-23.37,9.16c-2.32,0.62-4.67,1.01-7.03,1.32c-2.41,0.31-4.71,0.59-7.08,0.23
		c-2.36-0.36-5.04-0.15-7.29-1.03c-2.04-0.8-3.89-2.38-5.96-3.26c-4.41-1.88-9.13-2.85-13.82-3.73c-8.84-1.66-18.37-2.85-25.58-8.73
		c-3.4-2.77-7.27-4.88-11.19-7.07c-1.8-1-2.18-3.58-1-5.35c1.26-1.89,3.68-2.38,5.5-1.4c2.03,1.09,4.09,2.11,6.08,3.26
		c5.9,3.4,9.81,7.12,16.68,8.63c6.79,1.49,13.8,1.92,20.46,4.02c8.89,2.81,15.76,7.18,25.38,4.85c1.1-0.27,2.18-0.57,3.26-0.92
		c0.53-0.17,1.06-0.36,1.59-0.56c0.29-0.12,0.51-0.22,0.73-0.32c0.46-0.21,0.91-0.44,1.35-0.69c7.14-4.08,14.51-9.35,22.22-12.19
		c8.67-3.19,18.74-4.16,27.7-6.61c8.31-2.27,16.92-6.41,25.39-7.36c0.57-0.06,1.14-0.12,1.71-0.17c0.38-0.04,0.76-0.07,1.14-0.11
		c0,0,0.25-0.03,0.42-0.05c0.23-0.04,0.85-0.14,0.88-0.14c-0.41-1.2-0.9-2.37-1.59-3.51c-0.65-1.08-1.18-2.23-1.8-3.33
		c-0.16-0.28-0.34-0.53-0.53-0.77c-2.04-1.4-3.83-3.08-5.69-4.82c-0.47-0.44-0.94-0.86-1.43-1.28c-0.18-0.13-0.64-0.5-0.73-0.57
		c-0.27-0.21-0.54-0.42-0.81-0.63c-5.34-4.25-9.67-9.35-15.55-13.13c-5.56-3.57-11.59-6.4-17.89-8.38
		c-12.59-3.95-23.31-0.39-34.88,5.08c-7.18,3.39-14.19,7.26-21.76,9.67c-8.87,2.83-18.8,3.09-27.57-0.29
		c-1.35-0.52-3.08-0.41-4.79-0.72c-3.54-0.64-6.93-2.37-10.31-3.49c-4.56-1.52-2.05-8.75,2.61-7.37c3.7,1.1,7.62,2.98,11.36,3.13
		c3.84,0.16,7.45,1.38,11.34,1.33c3.71-0.04,7.39-0.69,10.95-1.71c5.98-1.72,11.61-4.45,17.2-7.17c4.78-2.33,9.56-4.65,14.34-6.98
		c4.27-2.08,8.1-4.51,12.99-4.38c0.34,0.01,0.69,0.01,1.03,0.03c0.18-0.04,0.3-0.07,0.43-0.11c0.69-0.32,1.47-0.55,2.19-0.81
		c1.85-0.66,3.72-0.9,5.58-0.92c-0.09-0.1-0.19-0.2-0.28-0.3c-1.69-1.97-2.95-4.28-4.76-6.12c-1.94-1.98-4-3.8-5.82-5.91
		c-5.37-6.2-9.9-13.06-14.45-19.87c-4.15-6.2-7.89-12.84-12.76-18.52c-5.33-6.2-11.49-11.38-19.18-14.42
		c-2.51-1-4.82-2.35-7.31-3.36c-3.93-1.6-8.48-2.1-11.9-4.65c-3.03-2.26-5.56-5.46-5.24-9.55c0.25-3.28,3.63-0.93,5.17-0.2
		c2.22,1.06,4.45,2.11,6.67,3.17c6.77,3.21,14.25,5.68,20.74,9.32c0.35,0.13,0.71,0.26,1.06,0.39c3.28,1.28,6.69,2.3,10.04,3.45
		c0.85,0.29,1.79,0.59,2.64,0.28c2.26-0.83,1.71-6.11,1.68-7.91c-0.08-3.94-0.23-7.88-0.48-11.81c-0.5-7.85-1.49-15.71-3.61-23.3
		c-1.32-4.73-3.37-9.19-5.41-13.64c-1.01-2.2-1.81-4.61-2.97-6.72c-0.82-1.5-2.03-2.44-3.16-3.74
		c-5.96-6.88-13.55-11.63-21.04-16.65c-4.91-3.29-9.74-6.84-13.72-11.24c-1.95-2.15-3.69-4.51-5.04-7.09
		c-1.02-1.94-3.14-3.85-3.61-5.96c-0.48-2.15,2.99-3.61,3.8-1.54c0.5,1.29,2.21,1.8,3.18,2.71c1.45,1.35,2.4,3.12,3.74,4.5
		c1.25,1.3,2.96,2,4.53,2.87c3.95,2.17,7.87,4.4,11.7,6.77c7.5,4.63,14.77,9.79,20.96,16.1c0.06,0.06,0.43,0.38,0.5,0.46
		c0.27,0.2,0.57,0.37,0.85,0.55c1.37,0.84,2.7,1.64,3.92,2.7c0.19,0.16,0.35,0.35,0.52,0.52c0.09-0.33,0.18-0.67,0.28-1
		c0.25-0.82,0.28-1.55,0.34-2.39c0.12-1.66,0.66-3.27,0.85-4.92c0.82-7.27,1.84-14.22,0.12-21.49c-1.65-6.94-5-13.41-9.25-19.11
		c-1.11-1.49-2.35-2.72-3.75-3.83c-0.96-0.21-1.9-0.51-2.83-0.86c1.88,1.5,3.75,3.03,5.96,4.03c-6.3,4.12-13.24,7.16-20.31,8.55
		c-7.07,1.38-14.26,1.07-20.54-1.26c0.31-0.57,0.97-0.86,1.56-1.09c7.11-2.75,14.33-5.53,21.63-6.28c2.86-0.3,5.75-0.28,8.58-1.11
		c-4.69-1.18-9.82-1.05-14.88-0.21c-5.06,0.83-10.07,2.35-15.06,3.93c0.3-0.1,1.03-1.56,1.32-1.86c0.38-0.4,0.87-0.78,1.28-1.17
		c0.94-0.9,1.93-1.74,2.96-2.52c2.16-1.62,4.51-2.98,6.95-3.99c4.29-1.77,8.97-2.45,13.08-1.33c-0.91-0.72-1.77-1.47-2.57-2.25
		c-2.34-2.29-3.82-5.13-5.98-7.53c-0.48-0.53-1.12-0.96-1.67-1.42c-1.19-1.01-2.36-2.01-3.47-3.1c-1.01-0.99-0.79-2.82,0.3-3.82
		c1.21-1.12,2.76-0.9,3.84,0c3.39,2.83,7.02,5.44,10.5,8.18c3.42,2.68,7.33,5.49,11.72,6.21c0.08,0.01,0.21,0.02,0.33,0.02
		c1.53,0.07,2.92,0.22,4.31,0.78c0.15-0.22,0.29-0.45,0.45-0.66c3.45-4.52,6.68-9.17,9.94-13.83c1.08-1.54,2.07-3.25,3.28-4.69
		c0.86-1.02,1.95-1.74,2.54-3.01c0.07-0.15,0.11-0.3,0.17-0.45c0.16-0.67,0.33-1.34,0.55-2.01c0.13-0.73,0.22-1.48,0.34-2.19
		c0.25-1.56,2.42-1.55,2.44,0c0.02,1.84,0.01,3.69-0.12,5.54c-0.23,3.29-2.21,5.4-3.79,8.16c-1.61,2.82-2.97,5.79-4.05,8.86
		c-0.87,2.44-1.56,4.95-2.07,7.49c-0.53,2.63-0.22,3.86,0.35,6.37c0.15,0.64,0.12,1.32,0.28,1.95c0.24,1.01,0.96,1.82,1.37,2.76
		c0.47,1.08,0.42,2.32,0.9,3.35c0.54,1.18,1.31,2.03,1.66,3.33c0.27,0.97,0.36,2,0.72,2.94c0.18,0.45,0.38,0.88,0.59,1.31
		c-0.09-0.19,6.48-5.12,7.03-5.63c2.27-2.11,4.37-4.41,6.27-6.86c5.78-7.44,10.31-16.54,10.7-26.09c0.25-6.04-2-11.57-0.46-17.57
		c0.02-0.43,0.05-0.85,0.05-1.28c0.01-1.97,0.14-3.69,1.25-5.47c0.56-0.91,1.89-0.27,1.57,0.68c-0.02,0.07-0.03,0.13-0.05,0.2
		c0.15-0.22,0.29-0.45,0.44-0.67c0.29-0.44,0.74-0.7,1.24-0.77c2.06-0.27,2.67,2.85,2.49,4.28c-0.14,1.16-0.56,2.27-0.82,3.4
		c-0.82,3.6-0.45,7.02,1.01,10.29c0.3,0.68,0.68,1.15,1.15,1.61c1.63,0.49,3.98,0.37,5.5,0.1c2.11-0.37,4.02-1.39,6.06-1.87
		c2.48-0.59,5.1-0.46,7.6-1.13c3.6-0.97,5.57-3.29,8.61-5.06c1.44-0.84,3.61-1.94,4.57-0.08c0.16,0.31,0.22,0.65,0.23,0.98
		c0.26,0.37,0.31,0.86-0.08,1.34c-0.12,0.15-0.23,0.3-0.35,0.45c-0.5,2.27-2.62,4.15-4.47,5.46c-4.81,3.85-13.17,3.96-18.99,5.35
		c-3.41,0.81-6.94,0.56-8.64,4.21c-1.77,3.79-2.15,8.64-3.45,12.65c-1.9,5.88-4.53,11.4-8.35,16.28
		c-3.31,4.24-8.11,6.51-10.95,11.38c-3.44,5.89-2.91,13.46-3.79,20c-0.72,5.3-1.28,10.66-2,15.92c-0.78,5.7,0.38,12.28,0.59,18.03
		c0.44,12.28,0.89,24.55,1.7,36.81c0.24,3.66-0.64,6.79,0.14,10.4c0.79,3.7,1.94,7.31,3.37,10.81c2.74,6.7,6.52,13.31,10.65,19.13
		c0.07,0.1,0.22,0.32,0.27,0.37c0.31,0.4,0.61,0.81,0.93,1.21c0.36,0.46,0.74,0.9,1.12,1.34c-0.88-1.03,3.64-7.41,4.26-8.36
		c1.95-2.99,3.78-6.05,5.44-9.21c3.25-6.16,5.92-12.68,7.44-19.49c0.36-1.62,0.57-3.13,0.47-4.73c-0.04-0.12-0.09-0.23-0.12-0.35
		c-0.25-0.84-0.28-1.76-0.8-2.47c-1.23-1.67-2.96-2.76-4.41-4.19c-7.6-4.02-13.57-8.51-17.36-16.6c-2.25-4.81-5.94-15.76-1.2-19.95
		c2.03-1.79,4.45,0.53,3.29,2.54c1.43,1.67,1.87,3.45,2.15,5.74c1.24,10.06,8.01,15.77,16.58,20.05c1.88,0.94,3.77,1.88,5.65,2.82
		c0.18,0.09,0.33,0.2,0.51,0.3c-0.01-0.25-0.02-0.62-0.02-0.67c-0.02-0.2-0.03-0.4-0.06-0.6c-0.08-0.72-0.2-1.44-0.36-2.14
		c-0.05-0.22-0.61-1.69-0.21-0.8c-0.12-0.26-0.24-0.53-0.35-0.79c-1.53-3.62-0.82-7.27-0.61-11.16c0.05-0.97,0.11-1.97,0.52-2.86
		c0.48-1.06,1.53-1.79,2.7-1.77c1.46,0.02,1.64,1.51,2.46,1.73c0.22,0.06,0.42,0.18,0.56,0.42c4.2,7.05,5.32,17.23,4.15,25.3
		c-0.58,4.03-1.07,8.1-2.41,12.03c-1.24,3.64-2.51,7.3-4,10.87c-1.05,2.53-2.31,4.93-3.67,7.27c-0.3,1.15-0.62,2.3-0.99,3.44
		c-0.71,2.17-1.49,4.38-1.69,6.62c-0.19,2.16-0.33,4.29-0.4,6.45c-0.06,1.89-0.1,3.8,0.07,5.67c0.37,3.98,2.57,7.94,4.31,11.53
		c1.91,3.92,4.11,7.72,6.84,11.14c2.56,3.2,5.58,6.04,8.93,8.41c3.01,2.13,6.54,3.68,9.36,6c0.45,0.37,0.41,0.4,1.04,0.7
		c0.23,0.11,0.45,0.21,0.67,0.32c0.74,0.11,1.47,0.24,2.19,0.46c0.58,0.18,1.17,0.43,1.75,0.7c1.46-2.44,2.14-5.28,3.64-7.69
		c1.34-2.17,2.06-3.76,2.7-6.32c1.62-6.44,3.24-12.87,4.86-19.31c1.87-7.44,3.76-14.94,4.17-22.6c0.27-5.14-0.14-10.37-1.63-15.31
		c-1.46-4.83-4.38-8.59-6.56-13.05c-2.83-5.79-4.76-12.03-5.66-18.41c-1.08-7.7-0.69-15.54-1.47-23.28
		c-0.55-5.44-1.72-10.94-4.27-15.82c-5.06-9.67-16.83-9.97-25.23-15c-3.35-2-5.87-5.27-7.14-8.95c-1.18-3.45-0.43-7.39-2.13-10.67
		c-0.66-1.27-0.73-2.68-1.13-4.05c-0.5-1.68,2.39-2.84,3.01-1.22c2.34,6.15,5.18,13.69,10.43,18.02c2.97,2.45,6.67,3.81,10.33,4.99
		c3.66,1.18,7.41,2.26,10.7,4.26c2.98,1.81,4.59,4.11,6.31,7.03c1.29,2.2,3.34,3.81,4.85,5.9c1.17-0.54,2.49-0.64,3.61-1.3
		c2.81-1.67,4.62-7.48,5.91-10.37c1.71-3.81,3.16-7.73,4.34-11.73c1.09-3.66,1.95-7.39,2.58-11.16c0.83-4.94,0.37-10.48-2.57-14.54
		c-3.62-5-6.54-10.47-8.6-16.29c-2.88-8.17-3.57-16.26-2.05-24.74c0.38-2.09-0.01-3.88,1.14-5.86c0.65-1.12,2.29-1.45,3.27-0.84
		c1.11,0.69,1.21,2.03,0.59,3.19c-0.43,0.81-0.08,2.23-0.12,3.08c-0.02,0.57-0.12,1.13-0.26,1.69c-0.02,0.07-0.16,0.49-0.24,0.65
		c0.1,0.15,0.17,0.24,0.23,0.34c0.6,1.17,0.21,2.42,0.34,3.68c0.13,1.19,0.47,2.34,0.57,3.54c0.22,2.55,0.3,5.14,0.66,7.67
		c0.35,2.5,1.27,4.81,1.99,7.19c0.65,2.11,1.7,4.08,2.76,5.98c1.05,1.9,2.4,3.44,3.68,5.16c1.28,1.71,2.35,3.38,4.04,4.74
		c1.69,1.36,3.24,2.65,4.62,4.34c0.33,0.41,0.63,0.85,1.01,1.17c2.19-3.64,7.04-5.01,9.57-8.54c2.86-3.99,4.78-8.62,5.66-13.45
		c0.51-2.82,0.67-5.7,0.45-8.56c-0.2-2.54-0.29-5.81-0.97-8.23c-0.15-0.52-0.39-0.98-0.45-1.53c-0.04-0.36,0.21-1.16,0.07-1.46
		c-0.87-1.83,1.81-3.21,2.88-1.6c0.12,0.18,0.2,0.37,0.26,0.56c0.38-0.01,0.75,0.13,0.98,0.54c0.11,0.2,0.2,0.41,0.28,0.62
		c0.31,0.14,0.54,0.43,0.51,0.88c-0.03,0.43-0.06,0.86-0.09,1.29c0.08,1.21,0,2.47,0.17,3.66c0.19,1.29,0.55,2.62,0.99,3.82
		c0.23,0.62,0.56,1.2,0.78,1.83c0.2,0.55,0.35,1.12,0.59,1.65c0.43,0.92,0.86,1.16,1.56,1.15c0.3,0,0.61-0.03,0.91-0.03
		c0.96,0,3.32-1.67,4.18-2.27c1.71-1.18,3.29-2.67,4.82-4.08c2.98-2.77,5.72-5.8,8.18-9.05c2.04-2.69,3.88-5.53,5.51-8.5
		c1.35-2.45,2.44-5.31,4.44-7.23c0.71-0.68,1.55-0.74,2.24-0.45c0.09-0.15,0.17-0.31,0.29-0.45c1.72-2.07,5.1-0.03,3.36,2.05
		c-0.41,0.49-0.27,1.12-0.36,1.73c-0.71,4.84-5.29,10.13-8.09,13.98c-3.28,4.5-6.92,8.74-10.88,12.66
		c-3.58,3.54-7.83,6.45-11.19,10.16c-3.12,3.44-4.62,7.91-7.06,11.79c-1.33,2.13-2.84,4.08-5.05,5.34
		c-2.16,1.24-4.39,2.99-6.28,4.65c-2.02,1.78-3.68,4.18-5.23,6.36c-1.57,2.21-2.96,4.48-4.33,6.81c-1.23,2.1-3.16,3.78-4.22,5.97
		c-0.28,0.57-0.54,1.15-0.79,1.73c-0.14,0.37-0.3,0.73-0.43,1.11c-0.11,0.32-0.23,0.64-0.36,0.95c-0.25,0.83-0.51,1.66-0.74,2.5
		c-1.37,4.99-3.35,9.81-4.87,14.77c-0.84,2.73-1.6,5.47-2.3,8.23c-0.08,0.97-0.22,1.92-0.47,2.91c-0.36,1.42-0.44,2.81-0.65,4.24
		c-0.17,1.2-0.57,2.37-0.74,3.56c-0.21,1.43-0.13,2.86-0.42,4.29c-0.26,1.23-0.7,2.44-0.88,3.68c0.05,1.2,0.22,2.36,0.19,3.57
		c-0.02,0.89,0.04,1.66,0.26,2.51c0.54,2.11,1.37,4.15,2.08,6.2c0.37,1.08,0.64,2.23,1.1,3.27c0.29,0.65,0.73,1.22,1.03,1.87
		c0.39,0.85,0.75,1.64,1.24,2.44c0.57,0.93,0.8,1.89,1.16,2.91c1.14,3.22,4.46,5.48,7.8,6.02c6.43,1.05,11.87,0.22,18.11-1.88
		c6.08-2.05,11.86-4.88,17.61-7.71c4.19-2.06,8.42-4.17,12.14-7.03c1.77-1.36,3.42-2.87,4.83-4.61c0.67-0.82,1.17-1.69,1.72-2.57
		c0.1-0.16,1.39-1.9,1.35-1.73c0.02-0.08,0.05-0.15,0.07-0.23c0.38-1.48,0.86-2.99,1.18-4.47c0.29-1.31,0.29-2.26,1.33-3.32
		c1.75-1.77,4.57,0.56,3.11,2.54c0.17-0.23,0.08,0.36,0.08,0.57c0.01,0.35-0.02,0.7-0.08,1.05c-0.11,0.76-0.2,1.48-0.24,2.24
		c-0.08,1.63-0.22,3.33-0.52,4.95c-0.29,1.57-0.87,2.9-1.38,4.41c-0.51,1.49-0.97,2.79-2,4.06c-4.02,4.94-8.64,9.24-14.46,12.04
		c-4.9,2.36-10.13,3.94-15.12,6.09c-5.06,2.18-9.86,4.96-14.28,8.24c-2.22,1.65-4.25,3.48-6.33,5.3c-1.63,1.41-4.23,3.17-5.02,5.27
		c-0.64,1.73-1.25,3.47-1.97,5.17c-0.22,0.52-0.42,1.04-0.63,1.55c-0.23,0.86-0.46,1.71-0.67,2.57c-0.78,3.25-1.69,6.49-2.66,9.7
		c-0.91,3.02-1.15,6.17-1.81,9.24c-0.68,3.2-1.73,6.33-2.41,9.53c-0.06,0.29-0.11,0.58-0.16,0.87c-0.18,2.95-0.19,5.9-0.35,8.86
		c-0.42,8.04,0.86,14.22,4.42,21.34c3.44,6.87,7.37,13.5,11.76,19.81c3.06,4.4,6.33,8.64,9.81,12.71c3.43,4.01,5.97,7.95,9.03,12.18
		c1.37,1.89,2.58,3.84,3.77,5.81c0.36,0.61,0.67,1.25,1.01,1.87c-0.04-0.11,0.6,0.89,0.72,1.13c0.3,0.59,0.42,1.28,0.61,1.92
		c0.16,0.54,0.41,1.12,0.69,1.69c0.83-1.65,1.67-3.29,2.48-4.95c0.46-0.95,0.94-2.02,1.21-3.03c0.39-1.47,0.36-2.96,0.89-4.42
		c0.89-2.46,1.83-4.94,2.84-7.37c2.46-5.96,4.99-11.66,7.99-17.43c6.96-13.39,14.31-26.59,22.02-39.56
		c3.86-6.49,7.81-12.92,11.85-19.29c2.02-3.18,4.17-6.3,6.13-9.52c1.54-2.52,2.13-5.53,3.06-8.34c1.78-5.41,2.7-11.73,3.43-17.37
		c0.77-5.96,0.95-11.99,0.54-17.99c-0.69-10.18-3.56-19.18-6.79-28.72c-1.02-3.01-1.74-6.15-2.69-9.19
		c-0.18-0.29-0.36-0.57-0.53-0.86c-0.13-0.11-0.25-0.23-0.38-0.34c-1.06-0.94-1.66-2.25-2.76-3.15c-1-0.83-2.22-1.43-3.4-1.97
		c-2.23-1.02-4.49-2.03-6.92-2.57c-2.56-0.57-5.31-0.77-7.94-1.07c-9.75-1.1-19.4-1.38-29.22-1.85c-3.77-0.14-7.55-0.27-11.32-0.41
		c-3.11-0.11-5.97-0.87-9.06-1.24c-1.12-0.13-1.43-1.32-1.03-2.09c-0.46-0.93,0.08-2.32,1.53-2.42c2.15-0.16,4.18,0.08,6.26,0.34
		c4.18,0.48,8.31,0.8,12.53,0.65c4.9-0.18,8.91,0.33,11-4.97c2.25-5.75-1.33-12.16-3.69-17.32c-1.11-2.43-2.17-5.64-4.13-7.54
		c-2.87-2.78,2.25-6.67,5.1-3.64c0.81,0.87,1.34,1.96,1.85,3.03c1.97,4.13,3.94,8.26,5.91,12.4c1.14,2.39,2.77,8.34,6.73,6.35
		c1.09-0.55,1.62-1.79,2.06-2.93c1.25-3.23,2.75-6.44,3.86-9.7c0.32-0.94,0.63-1.85,0.98-2.76c0.21-0.56,0.29-1.42,0.62-2.1
		c0.56-1.15,1.66-1.95,2.95-1.59c1.17,0.33,1.81,1.62,1.39,2.81c-0.27,0.76-0.27,1.67-0.5,2.49c-0.25,0.89-0.38,1.81-0.59,2.72
		c-0.47,2.01-1.37,3.89-1.98,5.86c-1.36,4.44-4.74,8.32-0.13,12.29c2.29,1.97,5.4,2.66,8.38,3.14c1.31,0.21,9.33,1.1,9.64,2.63
		c0-2.92-1.63-6.57-2.27-9.42c-0.81-3.61-1.68-7.21-2.6-10.8c-1.84-7.17-3.89-14.29-6.15-21.35c-1.98-6.17-4.11-12.3-6.4-18.36
		c-1.8-4.77-5.86-10.98-5.19-16.21c0.35-2.68,4.23-4.05,5.44-1.43c0.32,0.69,0.78,0.81,1.31,1.2c1.44,1.06,1.56,2.22,2.22,3.78
		c1.85,4.38,3.22,8.75,4.64,13.31c7.39-9.63,12.1-20.55,18.66-30.61c1.04-1.6,1.3-3.21,1.5-5.07c0.23-2.19-0.04-4.31,0.03-6.48
		c0.06-1.82,3.08-2.25,3.26-0.43c0.11,1.1,0.46,2.14,0.56,3.24c0.11,1.22,0.22,2.45,0.27,3.68c0.08,2.06,0.62,4.16,0.14,6.24
		c-0.51,2.2-2.12,4.16-3.13,6.2c-1.07,2.16-2.3,4.26-3.32,6.44c-1.05,2.25-2.31,4.49-3.6,6.64c-1.23,2.05-2.79,3.89-4.15,5.87
		c-0.84,1.22-1.63,2.48-2.43,3.73c-0.23,0.62-0.45,1.23-0.65,1.85c-0.79,2.43-0.99,5.06-0.85,7.53c0.31,5.76,2.27,11.56,4.53,16.84
		c0.47,1.1,1.07,2.29,2.19,2.73c3.38,1.32,7-5.59,8.64-7.44c1.07-1.21,1.98-2.34,2.83-3.71c0.41-0.67,0.96-1.19,1.46-1.8
		c0.46-0.57,0.7-1.24,1.08-1.86c0.89-1.49,1.73-3.02,2.64-4.5c1.27-2.06,3.96-0.24,2.94,1.79c-0.77,1.53-1.49,3.12-2.21,4.67
		c-0.3,0.65-0.53,1.32-0.92,1.94c-0.32,0.51-0.77,0.94-1.08,1.45c-0.85,1.4-1.45,2.78-2.49,4.09c-1.04,1.3-1.88,2.68-2.81,4.06
		c-0.79,1.17-1.41,2.43-2.41,3.46c-0.04,0.04-0.22,0.24-0.36,0.38c-0.58,1.25-1.1,2.51-1.18,3.86c-0.02,0.3-0.06,0.6-0.12,0.89
		c-0.06,1.06-0.12,2.12-0.2,3.19c-0.11,1.63,0.14,3.08,0.23,4.67c0.09,1.52-0.21,3.07-0.16,4.6c0.05,1.65,0.27,3.27,0.44,4.89
		c0.21,1.98,0.25,4.03,0.32,6.07c0.04,0.15,0.08,0.3,0.12,0.45c0.61,2.55,1.26,5.14,1.78,7.75c0.21,0.7,0.41,1.4,0.65,2.08
		c1.58,4.58,2.95,9.13,4.06,13.84c1.02,4.33,3.33,9.76,3.33,14.19c0.46,1.97,0.98,4.04,2.39,5.5c6.03,6.2,16.6-13.02,18.63-17.24
		c3.35-6.94,4.83-13.49,4.39-21.14c-0.09-1.68-0.54-3.25-1.06-4.8c-0.45-0.41-0.92-0.79-1.34-1.23c-1.32-1.37-2.92-3.02-3.77-4.73
		c-0.37-0.73-0.5-1.57-0.82-2.32c-0.35-0.81-0.75-1.59-1.22-2.33c-1.01-1.62-1.64-3.37-2.31-5.17c-0.94-2.52,2.83-4.75,3.97-2.21
		c0.86,1.91,1.76,3.64,2.92,5.36c0.53,0.79,1.03,1.62,1.39,2.5c0.18,0.43,0.29,0.83,0.43,1.21c0.07-0.61,0.98-0.99,1.32-0.34
		c0.59,1.14,1.34,2.15,2.13,3.15c0.66,0.84,1.29,1.84,2.05,2.59c0.65,0.64,1.27,1.48,2.1,1.92c4.1,2.19,11.01-14.28,11.77-17.07
		c1.62-5.99,0.78-13.04-3.7-17.33c-4.05-3.87-10.19-4.81-14.4-8.51c-3.54-3.1-5.3-7.85-5.72-12.53c-0.43-4.7,0.15-9.4,0.66-14.07
		c0.39-3.6,1.8-7.5-0.51-10.75c-1.43-2.02-4.45-4.29-6.47-5.49c-0.49-0.29-0.66-0.74-0.62-1.19c-0.12-0.45-0.07-0.96,0.14-1.38
		c0.38-0.77,1.46-1.43,2.29-1.08c4.18,1.77,8.83,3.29,10.78,7.8c2.17,5.02,0.34,11.14-0.28,16.32c-0.42,3.47-0.44,7.08,0.88,10.38
		c3.09,7.74,12.05,11.2,18.34,15.78c0.34,0.12,0.68,0.21,1.03,0.23c1.13,0.05,2.3-0.32,3.44-0.33c2.05-0.02,4.22,0.2,6.15-0.85
		c0.3-0.16,0.58-0.35,0.86-0.54c0.02-0.03,0.04-0.06,0.06-0.1c1.61-4.06,4.24-7.59,5.58-11.85c1.34-4.23,1.88-8.72,1.55-13.15
		c-0.71-9.34-5.18-20.72-11.62-27.62c-0.52-0.56-0.9-1.12-1.05-1.88c-0.06-0.31,0.05-0.55,0.24-0.72c-1.02-1.41,1.06-3.4,2.23-2.02
		c1.22,1.45,2.42,2.71,3.84,3.96c1.24,1.09,2.61,2.03,3.82,3.14c1.14,1.06,2.26,2.51,2.84,3.97c0.67,1.66,0.89,3.56,1.31,5.31
		c0.48,2.03,0.8,4.3,1.45,6.37c0.04,0.05,0.09,0.09,0.12,0.15c0.14,0.28,0.25,0.58,0.34,0.88c0.38,0.55,0.76,1.11,1.12,1.7
		c0.33,0.54,0.59,1.12,0.81,1.72c0.69,0.37,1.5,0.61,2.16,0.9c0.63,0.28,1.2,0.63,1.8,0.93c0.1,0.01,0.19,0.02,0.29,0.05
		c0.37,0.11,0.75,0.19,1.14,0.25c0.21,0.03,0.41,0.09,0.6,0.2c0.07,0.05,0.13,0.11,0.2,0.16c1.09,0.06,2.12-0.23,3.25-0.41
		c7.94-1.25,15.98-6.78,21.92-12c3.07-2.7,5.87-5.7,8.33-8.97c1.88-2.49,5.44-6.26,5.9-9.38c0.28-1.87,2.89-1.85,2.91,0
		c0.02,2.87-1.58,4.94-2.92,7.45c-1.3,2.44-3.03,4.7-4.25,7.16c-0.47,0.96-1.15,1.66-1.8,2.5c-0.7,0.89-1.31,1.86-2.05,2.72
		c-1.64,1.91-3.69,3.79-5.71,5.29c-4.02,2.99-8.51,5.08-12.74,7.68c-0.99,0.61-1.93,1.38-2.9,2.03c-0.93,0.62-1.97,0.88-2.88,1.49
		c-1.86,1.24-4.08,1.73-5.91,2.97c-1.56,1.06-3.13,2.85-4.34,4.28c-1.57,1.85-2.34,4.09-3.55,6.13c-0.51,0.86-0.94,1.73-1.45,2.59
		c-0.5,0.86-1.17,1.61-1.67,2.47c-1.1,1.9-1.98,3.97-2.99,5.93c-0.1,0.77-0.12,1.55-0.25,2.33c-0.23,1.4-1.13,2.61-1.52,3.98
		c-0.71,2.51-1.52,5.1-2.07,7.63c-0.01,0.06-0.04,0.12-0.05,0.19c0.18,0.32,0.39,0.62,0.6,0.92c1.76,2.53,7.3-1.53,9.57-2.7
		c3.81-1.96,7.44-4.26,10.85-6.85c2.74-2.09,5.34-4.36,7.77-6.81c2.16-2.18,3.08-4.4,4.76-6.9c0.57-0.85,0.9-1.73,1.56-2.52
		c0.68-0.82,1.31-1.42,2.19-2.04c1.08-0.76,1.85,0.79,1.12,1.61c-0.75,0.85-1.11,1.59-1.2,2.65c-0.09,1.06-0.78,2.06-1.18,3.05
		c-0.46,1.13-0.97,2.33-1.67,3.36c-0.68,1.01-1.32,1.92-1.9,2.99c-0.3,0.57-0.61,1.13-0.93,1.7c0.27-0.14,0.53-0.28,0.8-0.41
		c1.66-0.81,3.5-1.21,5.1-2.07c3.92-2.11,7.46-4.1,12.09-4.01c3.08,0.06,6.1,0.87,9.07,1.68c5.45,1.48,10.89,3.07,16.37,4.45
		c1.3,0.33,4.41-0.1,5.27,1.07c0.89,1.21-0.03,2.73-1.45,2.81c-2.87,0.17-5.31-1.14-8.08-1.49c-2.73-0.35-5.53-0.09-8.24-0.54
		c-1.29-0.21-2.51-0.02-3.8-0.1c-0.53-0.03-1.05-0.1-1.52-0.32c-0.06-0.03-0.41-0.2-0.54-0.3c-0.15,0.02-0.35,0.03-0.35,0.03
		c-1.28,0.13-2.51-0.44-3.77-0.49c-1.29-0.05-2.61-0.14-3.91,0.03c-2.41,0.32-5.06,1.23-7.39,2.03c-2.37,0.81-4.67,1.86-7.05,2.66
		c-2.3,0.77-4.49,1.99-6.73,2.95c-0.17,0.07-0.35,0.15-0.52,0.22c-0.4,0.23-0.81,0.46-1.21,0.67c-1.61,0.86-3.26,1.62-4.89,2.45
		c-3.03,1.53-6.07,3.21-8.99,4.97c-0.28,0.17-0.56,0.3-0.84,0.45c-1.12,0.76-2.26,1.5-3.48,2.1c-3.71,1.81-7.59,3.48-10.72,6.22
		c-0.99,1.05-1.77,2.06-2.46,3.44c-0.55,1.08-1.09,2.13-1.75,3.15c-0.63,0.97-1.43,1.79-2.11,2.72c-0.38,0.52-0.69,1.05-1.17,1.49
		c-0.08,0.08-0.17,0.15-0.27,0.22c-0.06,0.17-0.13,0.33-0.2,0.51c-0.92,2.34-2.17,4.61-3.25,6.9c-1.09,2.31-2.02,4.68-3.23,6.94
		c-1.22,2.28-2.82,4.34-3.92,6.69c-0.51,1.09-0.85,2.24-1.44,3.3c-0.52,0.93-1.18,1.77-1.78,2.65c-1,1.46-0.86,3.49,1.1,4.3
		c1.57,0.64,4.31-0.47,5.9-0.77c5.35-1.01,10.69-2.02,16.04-3.03c2.59-0.49,5.27-1.01,7.64-2.2c2.29-1.15,3.81-3.1,5.83-4.61
		c1.68-1.26,3.31-2.55,4.69-4.13c1.85-2.11,4.76,0.6,3.39,2.77c-2.62,4.15-6.68,7.75-10.64,10.62c-2.13,1.55-4.68,2.54-7.12,3.47
		c-1.25,0.48-2.45,0.49-3.64,0.45c-0.05,0.02-0.09,0.05-0.14,0.07c-1.2,0.53-2.41,1.01-3.67,1.3c-3,0.7-5.98,0.93-8.97,1.83
		c-2.86,0.85-5.82,1.69-8.54,2.99c-2.81,1.34-5.36,3.27-7.76,5.25c-1.14,0.94-2.25,1.93-3.35,2.91c-1.65,2.36-3.59,4.52-5.9,6.39
		c-0.21,0.17-0.42,0.34-0.64,0.5c-0.16,0.2-0.32,0.4-0.47,0.6c-0.43,0.55-0.86,1.1-1.36,1.6c-0.05,0.05-0.28,0.27-0.46,0.45
		c-0.12,0.22-0.24,0.43-0.36,0.66c-1.28,2.29-2.71,4.54-3.83,6.9c-2.03,4.27-3.04,8.74-4.7,13.1c-0.46,1.2-0.41,2.33-0.58,3.56
		c-0.15,1.11-0.52,2.2-0.78,3.3c-0.21,0.88-0.36,1.76-0.5,2.64c-0.02,0.39-0.04,0.79-0.07,1.18c-0.1,1.48-0.18,2.97-0.28,4.45
		c0.08,0.73,0.2,1.47,0.42,2.21c0.61,2.04,0.41,4.07,0.7,6.17c0.91,6.69,8.34,8.9,13.96,9.2c2.44,0.13,4.89,0.15,7.33,0.04
		c12.42-0.53,24.54-4.2,35.3-10.4c5.39-3.1,10.42-6.81,15.05-10.96c4.44-4,9.51-8.07,9.29-14.63c-0.15-4.43-3.18-9.06-6.57-11.81
		c-1.1-0.89-2.42-1.53-3.41-2.57c-0.36-0.38-0.85-1.12-1.01-1.34c0.15,0.22-0.18-0.21-0.14-0.19c-0.25-0.23-0.56-0.42-0.83-0.64
		c-1.21-0.98-1.49-2.25-2.32-3.48c-0.76-1.13-0.05-2.82,1-3.61c1.16-0.86,2.76-0.75,3.67,0.22c0.96,1.01,2.03,1.83,2.92,2.65
		c0.9,0.83,1.18,1.7,1.9,2.31c1.04,0.89,2.19,1.62,3.2,2.55c0.82,0.76,1.65,1.79,2.42,2.35c0.61,0.44,1.26,0.84,1.76,1.41
		c0.14,0.17,0.26,0.35,0.39,0.54c0.34,0.5,3.27,0,3.69-0.27c0.71-0.46,1.2-1.19,1.64-1.91c2.98-4.94,3.8-10.83,5.48-16.27
		c1.82-5.92,3.68-11.83,4.96-17.9c1.97-9.41,3.28-18.94,4.27-28.49c0.3-2.91,0.2-5.68,0.28-8.57c0.04-1.41,1.46-2.61,2.83-2.61
		c1.52,0,2.39,1.21,2.42,2.61c0.09,3.43,0.35,6.87,0.13,10.3c-0.13,2.03-1.86,5.55,0.57,6.83c1.17,0.62,2.59,0.02,3.77-0.57
		c9.73-4.88,19.45-9.77,29.18-14.65c4.79-2.41,9.58-4.81,14.38-7.22c1.21-0.61,4.05-2.84,5.39-2.77c1.58,0.08,2.25,1.93,1.08,3.01
		c-1.69,1.56-3.48,2.86-5.39,4.14c-1.85,1.24-3.23,3.11-4.96,4.52c-1.72,1.4-3.57,2.34-5.41,3.52c-1.65,1.06-3.08,2.45-4.87,3.31
		c-5.78,2.77-12.09,4.46-17.78,7.55c-4.81,2.62-9.22,6.25-11.9,11.03c-2.11,3.75-3.07,8.01-4,12.21
		c-1.13,5.08-2.26,10.15-3.39,15.23c-0.58,2.6-1.16,5.2-1.74,7.81c7.9-3.54,15.76-7.73,23.8-10.79c1.87-0.71,3.67-1.61,5.44-2.58
		c2.97-1.63,5.06,2.58,2.22,4.34c-1.76,1.1-3.57,2.09-5.45,2.95c-1.65,0.75-3.19,1.33-4.63,2.45c-1.53,1.19-3.3,2.21-5.07,2.96
		c-1.7,0.71-3.47,1.14-5.12,1.94c-0.51,0.25-1.03,0.5-1.56,0.75c-2.21,1.53-4.87,2.86-6.74,4.75c-2.49,2.53-4.69,5.42-6.87,8.21
		c-4.41,5.62-8.51,11.48-12.6,17.34c-0.76,1.09-1.55,2.25-1.7,3.57c-0.31,2.75,2.37,5.11,5.12,5.48c2.92,0.39,5.41-1.24,8.25-1.21
		c2.25,0.02,4.86,0.48,7.04,1c1.34,0.32,2.01,1.86,1.56,3.15c-0.52,1.46-1.95,1.98-3.31,1.79c-2.22-0.3-4.2,0.07-6.4,0.6
		c-1.18,0.28-2.36,0.43-3.56,0.55c-1.01,0.1-1.97,0.46-2.99,0.55c-3.86,0.33-7.72,1.11-11.61,2.01c-4.96,1.15-9.4,3.33-14.27,4.88
		c-5.75,1.82-11.49,3.64-17.24,5.46c-11.49,3.64-22.99,7.28-34.48,10.93c-8.17,2.59-16.42,5.21-23.78,9.61
		c-5.45,3.26-10.32,7.47-14.37,12.36c-4.09,4.95-6.63,10.54-9.7,16.11c-10.1,18.3-14.9,40.67-11.51,61.39
		c0.63,3.85,1.54,7.65,2.72,11.36c0.25,0.78,2.87,9.34,3.29,9.37c0.35,0.02,0.67,0.14,0.91,0.38c1.43-0.97,2.86-1.92,4.3-2.86
		c10.88-7.09,22.68-12.43,34.34-18.09c3.84-1.87,7.69-3.73,11.53-5.6c3.36-1.63,6.99-2.94,9.76-5.47c3.2-2.93,5.21-6.91,7.15-10.79
		c9.28-18.6,17.72-38,28.63-55.56c1.79-2.87,5.82-0.34,4.17,2.54c-0.79,1.37-1.28,2.84-2.08,4.21c-0.77,1.32-1.53,2.6-2.26,3.94
		c-0.08,0.15-0.18,0.29-0.27,0.44c-0.53,1.36-1.05,2.72-1.62,4.06c-1.1,2.64-1.79,5.4-2.95,8.03c-1.12,2.53-2.39,5-3.51,7.53
		c-1.15,2.59-2.23,5.13-3.61,7.63c-1.86,3.38-6.83,11.74-2.85,15.12c2.86,2.43,7.39,1.34,10.67,0.57
		c5.69-1.34,11.39-2.67,17.08-4.01c13.28-3.12,25.57-6.42,36.95-14.41c10.1-7.09,16.55-18.19,17.39-30.62
		c0.37-5.53-0.41-11.12-2.22-16.35c-1.73-4.99-4.94-9.04-6.94-13.81c-0.36-0.85-0.4-1.8-0.65-2.69c-0.27-0.96-0.45-1.83-0.49-2.84
		c-0.03-0.61,0.3-1.07,0.75-1.34c0.14-1.4,2.5-1.65,2.67-0.23c0.67,5.48,4.63,10.42,7.7,14.8c0.99,1.41,11.47,15.19,11.01,15.71
		c3.96-4.34,7.92-8.69,11.88-13.03c3.51-3.85,7.46-7.42,10.74-11.45c1.09-1.33,3.09-0.2,2.16,1.32c-0.33,0.54-0.71,1.07-1.1,1.59
		c0.16,0.33,0.15,0.76-0.17,1.14c-0.88,1.01-1.74,2.09-2.44,3.23c-0.26,0.42-0.54,0.76-0.85,1.1c-0.6,0.91-1.24,1.8-1.86,2.65
		c-0.57,0.78-0.91,1.6-1.42,2.41c-0.5,0.81-1.2,1.35-1.84,2.02c-0.57,0.59-0.88,1.32-1.38,1.97c-1.08,2.15-3.39,4.24-4.82,6.21
		c-1.82,2.51-3.6,5.06-5.31,7.65c-3.36,5.05-6.51,10.23-9.45,15.54c-4.95,8.92-9.54,17.5-18.17,23.47
		c-5.89,4.08-12.54,6.92-19.18,9.59c-11.43,4.6-23.02,8.79-34.61,12.97c-7.92,2.86-15.83,5.72-23.75,8.58
		c-7.2,2.6-15.19,4.59-22.02,8.03c-2.06,1.04-3.53,2.85-5.45,4.12c-2.88,1.89-5.87,3.6-8.71,5.55
		c-11.29,7.71-21.54,16.91-30.44,27.29c-0.45,0.53-0.93,1.11-1.41,1.73c0.18,0.8,0.35,1.59,0.54,2.39
		c4.11,16.99,4.9,36.81,3.01,55.72c-0.08,6.38-0.16,12.77-0.23,19.15c-0.1,8.12,0.12,16.03-0.85,24.13
		c-0.8,6.65-2.17,13.99-6.25,19.52c-0.67,1.48-1.21,3.01-1.36,4.68c-0.16,1.87,0.07,3.53,0.46,5.32
		c2.44,11.12,6.59,22.01,8.11,33.33c0.47,3.5,1.87,8.42,0.86,11.94c-0.75,2.62-2.82,5.4-4.34,7.62
		c-3.55,6.65-10.53,12.35-15.94,17.11c-2.07,1.82-3.35,3.57-4.54,5.96c-0.88,1.77-2.98,5.8-4.8,6.95c0.02,0,0.04,0,0.07,0
		c4.81-2.53,10.04-6.03,14.23-9.45c5.53-4.52,14.07-7.89,18.14-13.82c2.11,1.15,3.41,2.37,4.11,3.67c0.04-0.06,0.09-0.12,0.13-0.18
		c0.32,0.68,0.47,1.39,0.51,2.11c0.59,4.38-3.92,9.43-6.61,14.74c3.89-0.56,7.77-1.18,11.62-1.89c0.58-4.25,1.11-8.48,1.38-12.8
		c0.48-7.49,2.35-15.73-0.58-22.91c-1.59-3.89-4.47-7.17-6.14-11.09c-2.22-5.23-4.01-10.77-4.56-16.45
		c-0.25-2.59,0.07-5.12-0.01-7.68c-0.06-1.96-0.95-5,0.24-6.79c1.87-2.81,5.93,1.1,8.63,2.45c2.21,1.1,5.38,1.61,7.29,3.1
		c1.97,1.53,2.8,4.67,3.55,6.91c1.44,4.29,2.73,8.51,3.7,12.94c0.92,4.21,1.25,10.98,4.07,14.46c1.42,1.76,3.6,3.05,5.42,4.34
		c2.92,2.07,5.65,4.35,8.62,6.34c4.09,2.73,7.5,6.15,11.89,8.36c-2.76-4.48-6.41-8.09-9.97-11.92c-3.63-3.91-8.54-6.96-11.41-11.6
		c-1.83-2.97-0.39-9.31-0.26-13.07c0.1-2.86,0.05-5.76,0.18-8.61c8.23,2.29,16.21,6.12,24.18,9.27c5.94,2.35,13.79,1.76,15.68,6.63
		c0.75,1.93-0.7,6.83-0.84,8.99c-0.2,3.2-0.31,6.4-0.35,9.6c0,0.13,0.01,0.27,0.01,0.4c0.89,3.62,0.62,7.48,0.96,11.21
		c4.2-1.7,8.36-3.47,12.46-5.34c-0.17-1.05-0.34-2.11-0.5-3.16c-0.49-3.39-0.93-6.77-1.46-9.95c-0.41-2.44-0.47-5.39-0.64-8.33
		c-0.18-3.08-0.46-6.14-1.38-8.56c-0.57-1.52-1.19-2.21-2.19-2.85c-0.6-0.39-1.33-0.75-2.28-1.28c-7.81-4.32-15.55-8.8-23.38-13.07
		c-1.42-0.77-2.88-1.5-4.35-2.2c-10.98-5.19-23.18-8.67-32.67-16.26c-4.78-3.82-4.37-8.29-3.8-14.13
		c0.52-5.39,0.12-13.69,2.09-18.59c1.59-3.95,6.34-3.94,9.93-2.6c1.58,0.33,3.06,0.91,4.16,1.95c2.53,2.38,2.29,6.69,2.86,9.87
		c0.53,2.95,1.22,5.87,1.7,8.86c0.44,2.78,0.18,6.06,1.84,8.33c1.26,1.72,3.66,3.86,5.84,5.36c0.8,0.41,1.56,0.84,2.26,1.34
		c-0.68-0.32-1.46-0.79-2.26-1.34c-0.89-0.45-1.81-0.86-2.75-1.27c4.72,3.34,12.87,6.21,17.31,7.9
		c-4.54-3.19-11.48-9.78-14.07-14.72c-3.22-6.13-2.04-17.49-1.6-24.49c-0.04,0.68,8.4-1.73,9.26-1.63c1.01,0.12,1.85,0.49,2.57,1
		c2.48,0.54,3.68,0.7,4.59,2.34c1.32,2.4,1.12,5.51,2.28,8.05c2.02,4.42,3.1,9.59,5.25,14.02c3.02,4.36,6.89,7.83,11.22,10.72
		c3.47,1.93,7.17,3.51,10.76,5.1c2.82,1.25,5.21,2.48,7.63,4.35c2.39,1.85,4.68,2.73,7.41,3.76c0.89,0.33,1.68,0.76,2.45,1.28
		c0.37,0.14,0.74,0.28,1.12,0.41c5.99,2.04,11.71,3.96,17.35,9.71c3.27,1.45,4.29,5.74,5.75,8.7c1,2.01,2.03,4.02,3.05,6.02
		c2.99-2.01,5.96-4.06,8.88-6.17c-1.77-5.1-3.05-10.93-6.32-14.68c-4.47-5.14-13.45-7.62-19.75-9.84
		c-8.02-2.82-16.42-6.07-23.38-11.08c-4.21-3.03-9.59-6.47-11.93-11.31c-3.11-6.42-2.24-14.75-2.26-21.57
		c6.88-0.63,15.7,6.11,21.64,8.8c9.48,4.3,18.28,9.19,27.4,14.24c7.64,4.23,15.27,8.78,23.03,12.77c5.81,2.99,12.72,7.31,17.31,6.38
		c1.47,0.78,2.69,1.51,3.76,2.24c3.48-3.2,6.9-6.48,10.24-9.83c-0.6-0.52-1.2-1.04-1.81-1.56c-1.63-0.79-3.34-1.52-3.89-3.15
		c0.04-0.02,0.08-0.03,0.12-0.04c-2.31-1.91-4.64-3.78-7.04-5.53c-3.04-2.22-11.42-4.09-10.42-9.19c0.9-4.6,11.8-9.75,15.49-11.55
		c-9.84-1.08-19.35,3.83-28.87,5.49c-7.62,1.33-17.54-4.55-24.73-7.41c-3.34-1.33-6.73-2.9-9.95-4.54
		c-1.54-0.78-10.02-4.65-10.4-6.45c-1.55-7.39,21.42-4.77,25.39-4.62c14.16,0.52,29.21,0.81,43.2-2.02
		c6.56-1.32,13.12-2.61,19.73-3.64c3.85-0.6,7.71-1.12,11.57-1.58c1.98-0.24,4.78-0.91,7.32-0.92c1.5-0.01,2.92,0.22,4.01,0.91
		c0.73,0.46,1.32,1.1,1.86,1.77c2.81,1.72,5.46,3.7,7.9,5.91c34.33-51.24,54.37-112.96,54.37-179.4c0-7.3,2.35-42.52-16.77-113.34
		c18.06,40.63,28.14,85.55,28.14,132.82C699.35,557.91,551.24,705.19,368.54,705.19z M345.14,559.69c-2.84,3.54-5.13,7.28-8.54,9.72
		c-1.63,1.43-3.36,2.77-4.98,4.39c-2.39-0.47-4.28-0.05-6.71,0.21c-4.96,0.53-9.92,0.5-14.86,1.2c-3.91,0.55-7.9,1.34-11.88,1.45
		c-4.47,1.04-9.79,1.81-11.92-0.96c-2.64-3.44-3.82-10.38-2.69-15.12c0.03-0.72,0.17-1.17,0.48-1.53c0.08-0.19,0.15-0.39,0.24-0.57
		c0.06,0.06,0.11,0.15,0.17,0.21c0.68-0.48,1.84-0.88,3.73-1.84c9.12-4.62,17.44-11.68,24.47-19.03c1.35-1.41,3.35-4.93,5.2-5.58
		c1.69-0.59,9.21,1.18,11.61,1.32c5.12,0.29,10.2,1.13,15.2,2.27c4.67,1.06,8.05,2.97,11.07,6.91c2.79,3.64-3.5,8.86-5.65,11.32
		c-1.61,1.84-3.33,3.66-5,5.53C345.09,559.63,345.12,559.65,345.14,559.69z M281.54,539.58c-3.34,1.72-6.5,3.77-9.87,5.45
		c-6.05,3-12.49,2.26-19.32,2.05c-15.83-0.48-31.49-2.5-47.33-2.5c-5.23,0-9.01-0.21-13.49-3.25c-1.7-1.15-3.32-5.32-1.73-7.21
		c1.38-1.64,7.9-0.21,10.06-0.06c7.72,0.53,15.46,1.13,23.21,0.83c7.71-0.3,14.32,0.23,18.62-6.75c1.29-2.1,1.73-4.58,3.94-5.53
		c4.71-2.03,15.79,2.26,20.33,3.38c4.41,1.09,8.79,2.32,13.2,3.42c2.44,0.61,7.05,1.78,7.16,5.27
		C286.38,536.92,283.16,538.75,281.54,539.58z M195.05,373.97c-6.34,1.78-12.46,4.44-18.52,7.18c0.37-0.17,0.94-2.18,1.24-2.61
		c0.39-0.58,0.93-1.14,1.36-1.71c0.99-1.3,2.06-2.54,3.2-3.7c2.39-2.42,5.08-4.51,7.99-6.16c5.73-3.25,12.44-4.79,18.64-3.09
		c6.3,1.72,11.26,6.67,17.46,8.68c-7.13,6.24-15.34,11.17-24.15,13.94c-8.81,2.77-18.2,3.33-26.92,1.14
		c0.25-0.79,1.04-1.26,1.75-1.64c8.51-4.56,17.16-9.17,26.43-11.15c3.64-0.78,7.37-1.15,10.84-2.62
		C207.99,371.33,201.39,372.2,195.05,373.97z M178.6,232.36c0.12-0.54,0.35-1.12,0.49-1.66c0.34-1.25,0.76-2.48,1.26-3.69
		c1.03-2.52,2.39-4.92,4.02-7.09c3.22-4.28,7.64-7.72,12.63-8.74c5.07-1.04,10.1,0.63,15.18-0.18c-3.37,6.84-7.9,13.16-13.49,18.19
		c-5.59,5.03-12.25,8.75-19.21,10.32c-0.05-0.64,0.39-1.24,0.8-1.75c4.86-6.17,9.8-12.42,15.96-17.07c2.41-1.82,5.02-3.41,7.11-5.65
		c-4.89,1.63-9.44,4.57-13.53,8.05c-4.09,3.47-7.76,7.48-11.36,11.53C178.68,234.36,178.52,232.76,178.6,232.36z M300.39,269.09
		c-2.98-4.33-6.56-8.2-10.18-12.01c0.22,0.23,1.85,0.03,2.24,0.12c0.53,0.12,1.08,0.35,1.61,0.51c1.22,0.35,2.41,0.78,3.56,1.29
		c2.41,1.07,4.66,2.49,6.64,4.21c3.91,3.39,6.81,8.08,7.21,13.41c0.4,5.41-1.92,10.83-1.75,16.26c-6.47-3.51-12.27-8.28-16.64-14.2
		c-4.37-5.92-7.27-13-7.97-20.43c0.65-0.06,1.2,0.4,1.67,0.83c5.61,5.12,11.29,10.32,15.2,16.85c1.53,2.56,2.8,5.33,4.79,7.54
		C305.77,278.25,303.38,273.42,300.39,269.09z M272.1,204.16c-5.59,5.03-12.25,8.75-19.21,10.32c-0.05-0.64,0.39-1.24,0.8-1.75
		c4.86-6.17,9.8-12.42,15.96-17.07c2.41-1.82,5.02-3.41,7.11-5.65c-4.89,1.63-9.44,4.57-13.53,8.05
		c-4.09,3.47-7.76,7.48-11.36,11.53c0.22-0.25,0.05-1.84,0.14-2.24c0.12-0.54,0.35-1.12,0.49-1.66c0.34-1.25,0.76-2.48,1.26-3.69
		c1.03-2.52,2.39-4.92,4.02-7.09c3.22-4.28,7.64-7.72,12.63-8.74c5.07-1.04,10.1,0.62,15.18-0.18
		C282.23,192.81,277.69,199.13,272.1,204.16z M373.6,142.49c-1.86,3.13-3.29,6.41-4.66,9.7c0.08-0.2-0.46-1.02-0.5-1.26
		c-0.07-0.33-0.06-0.71-0.11-1.05c-0.1-0.78-0.15-1.58-0.13-2.39c0.03-1.68,0.31-3.39,0.84-5.07c1.05-3.3,3.15-6.51,6.28-8.57
		c3.18-2.1,7.06-2.72,10.31-4.7c-0.46,4.73-1.87,9.54-4.33,13.97c-2.47,4.43-6.01,8.46-10.34,11.43c-0.2-0.33-0.07-0.79,0.07-1.19
		c1.66-4.82,3.36-9.72,6.31-14.11c1.16-1.72,2.51-3.37,3.34-5.22C377.77,136.39,375.45,139.37,373.6,142.49z M352.3,175.32
		c6.52,3.23,11.92,8.19,17.23,13.09c0.45,0.41,0.92,0.89,0.92,1.5c-7.14-0.18-14.1-2.43-20.08-6.12
		c-5.98-3.69-10.97-8.8-14.82-14.61c5.19-0.19,10.17-2.7,15.35-2.67c5.11,0.03,9.8,2.44,13.33,5.87c1.79,1.74,3.31,3.75,4.52,5.93
		c0.58,1.04,1.09,2.13,1.51,3.24c0.18,0.49,0.45,0.99,0.61,1.47c0.11,0.36,0.05,1.9,0.29,2.09c-3.9-3.13-7.87-6.22-12.23-8.73
		c-4.36-2.51-9.14-4.42-14.19-5.04C347.01,173.05,349.74,174.05,352.3,175.32z M353.19,213.68c6.52,3.23,11.92,8.19,17.23,13.09
		c0.45,0.41,0.92,0.89,0.92,1.5c-7.14-0.18-14.1-2.43-20.08-6.12c-5.97-3.69-10.97-8.8-14.82-14.61c5.19-0.19,10.17-2.7,15.35-2.67
		c5.11,0.03,9.8,2.44,13.33,5.87c1.79,1.74,3.31,3.75,4.52,5.93c0.58,1.04,1.09,2.13,1.51,3.24c0.18,0.49,0.45,0.99,0.61,1.47
		c0.11,0.36,0.05,1.9,0.29,2.09c-3.9-3.13-7.87-6.22-12.23-8.73c-4.36-2.51-9.14-4.42-14.19-5.04
		C347.9,211.41,350.63,212.42,353.19,213.68z M396.25,293.92c-6.47-3.51-12.27-8.28-16.64-14.2c-4.37-5.92-7.27-13-7.97-20.43
		c0.65-0.06,1.2,0.4,1.67,0.83c5.61,5.12,11.29,10.32,15.2,16.85c1.53,2.56,2.8,5.33,4.79,7.54c-1.02-5.22-3.41-10.05-6.4-14.38
		c-2.98-4.33-6.56-8.2-10.18-12.01c0.22,0.23,1.85,0.03,2.24,0.12c0.53,0.12,1.08,0.35,1.61,0.5c1.22,0.35,2.41,0.78,3.56,1.29
		c2.41,1.07,4.66,2.49,6.64,4.21c3.91,3.39,6.81,8.08,7.21,13.41C398.4,283.07,396.08,288.49,396.25,293.92z M386.38,242.12
		c0.62-0.25,1.29,0.01,1.88,0.27c7.04,3.08,14.18,6.21,19.99,11.11c2.28,1.92,4.36,4.11,6.98,5.57c-2.59-4.55-6.4-8.32-10.64-11.45
		c-4.24-3.13-8.92-5.66-13.61-8.11c0.29,0.15,1.82-0.52,2.23-0.56c0.55-0.05,1.17,0,1.73-0.02c1.3-0.04,2.59,0,3.88,0.13
		c2.68,0.27,5.31,0.91,7.77,1.92c4.85,1.98,9.12,5.47,11.14,10.31c2.05,4.91,1.44,10.65,3.26,15.65
		c-7.39-1.32-14.51-4.02-20.59-8.21C394.34,254.54,389.34,248.83,386.38,242.12z M369.13,311.82c-6.47-3.51-12.27-8.28-16.64-14.2
		c-4.37-5.92-7.27-13-7.97-20.43c0.65-0.06,1.2,0.4,1.67,0.83c5.61,5.12,11.29,10.32,15.2,16.85c1.53,2.56,2.8,5.33,4.79,7.54
		c-1.02-5.22-3.41-10.05-6.4-14.38c-2.98-4.33-6.56-8.2-10.18-12.01c0.22,0.23,1.85,0.03,2.24,0.12c0.53,0.12,1.08,0.35,1.61,0.5
		c1.22,0.35,2.41,0.78,3.56,1.29c2.41,1.07,4.66,2.49,6.64,4.21c3.91,3.39,6.81,8.08,7.21,13.41
		C371.28,300.97,368.96,306.38,369.13,311.82z M564.94,176.91c0.43-3.87,0.33-7.76,0.18-11.62c0.01,0.24,0.96,0.88,1.13,1.11
		c0.22,0.31,0.41,0.71,0.62,1.04c0.48,0.77,0.91,1.57,1.28,2.4c0.77,1.74,1.3,3.6,1.55,5.51c0.49,3.76-0.14,7.8-2.39,11.04
		c-2.28,3.29-6,5.31-8.42,8.5c-1.79-5.03-2.63-10.46-2.2-15.89c0.43-5.42,2.17-10.83,5.23-15.42c0.37,0.27,0.44,0.79,0.49,1.25
		c0.59,5.54,1.17,11.17,0.22,16.74c-0.37,2.18-0.98,4.36-0.95,6.55C563.54,184.66,564.51,180.78,564.94,176.91z M523.26,232.21
		c-1.86,3.13-3.29,6.41-4.66,9.7c0.08-0.2-0.46-1.02-0.51-1.26c-0.07-0.33-0.06-0.71-0.11-1.05c-0.1-0.78-0.15-1.58-0.13-2.39
		c0.03-1.68,0.31-3.39,0.84-5.07c1.05-3.3,3.15-6.51,6.28-8.57c3.18-2.1,7.06-2.72,10.31-4.7c-0.46,4.73-1.87,9.54-4.33,13.97
		c-2.47,4.43-6.01,8.46-10.34,11.43c-0.2-0.33-0.07-0.79,0.07-1.19c1.66-4.82,3.36-9.72,6.31-14.11c1.16-1.72,2.51-3.37,3.34-5.22
		C527.44,226.11,525.12,229.08,523.26,232.21z M528.54,207.57c-2.34-6.59-3.45-13.72-2.89-20.83c0.57-7.11,2.84-14.2,6.86-20.21
		c0.48,0.35,0.58,1.03,0.65,1.64c0.77,7.27,1.54,14.65,0.29,21.94c-0.49,2.86-1.29,5.71-1.25,8.59c2.45-4.54,3.72-9.63,4.28-14.7
		c0.56-5.08,0.43-10.17,0.24-15.24c0.01,0.31,1.26,1.15,1.48,1.46c0.3,0.41,0.53,0.93,0.81,1.37c0.63,1,1.19,2.06,1.67,3.15
		c1.01,2.28,1.71,4.71,2.04,7.22c0.65,4.93-0.19,10.23-3.13,14.47C536.58,200.73,531.7,203.38,528.54,207.57z M501.15,202.98
		c-1.86,3.13-3.29,6.41-4.66,9.7c0.08-0.2-0.46-1.02-0.51-1.26c-0.07-0.33-0.06-0.71-0.11-1.05c-0.1-0.78-0.15-1.58-0.13-2.39
		c0.03-1.68,0.31-3.39,0.84-5.07c1.05-3.3,3.15-6.51,6.28-8.57c3.18-2.1,7.06-2.72,10.31-4.7c-0.46,4.73-1.87,9.54-4.33,13.97
		c-2.47,4.43-6.01,8.46-10.34,11.43c-0.2-0.33-0.07-0.79,0.07-1.19c1.66-4.82,3.36-9.72,6.31-14.11c1.16-1.72,2.51-3.37,3.34-5.22
		C505.32,196.88,503.01,199.85,501.15,202.98z M483.61,244.58c4.38-0.42,8.71,0.31,12.96,1.05c0.36,0.06,0.75,0.15,0.94,0.44
		c-3.77,2.05-8.08,3.07-12.32,3.11c-4.24,0.04-8.39-0.88-12.17-2.49c2.64-1.65,4.47-4.33,7.18-5.87c2.67-1.52,5.84-1.78,8.73-1.21
		c1.46,0.29,2.87,0.78,4.16,1.45c0.62,0.32,1.21,0.68,1.77,1.08c0.24,0.18,0.54,0.33,0.77,0.52c0.17,0.14,0.6,0.88,0.79,0.9
		c-2.99-0.32-6-0.59-9.03-0.48c-3.03,0.12-6.11,0.64-8.93,1.86C480.16,245.09,481.89,244.75,483.61,244.58z M473.24,264.89
		c2.96-4.36,7.76-7.31,12.77-8.81c2.55-0.76,5.17-1.18,7.76-1.25c1.24-0.03,2.48,0.01,3.69,0.14c0.53,0.06,1.12,0.05,1.63,0.13
		c0.38,0.06,1.68,0.8,1.98,0.68c-4.97,1.96-9.95,3.98-14.63,6.6c-4.69,2.62-9.11,5.86-12.55,9.91c2.8-1.17,5.24-3.07,7.82-4.7
		c6.56-4.15,13.99-6.58,21.32-8.95c0.61-0.2,1.31-0.4,1.84-0.12c-4.26,6.03-10.23,10.99-16.88,14.47
		c-6.65,3.48-13.97,5.5-21.24,6.21C469.55,274.68,470.23,269.31,473.24,264.89z M522.46,324.78c-4.24,2.82-8.08,6.13-11.86,9.48
		c0.23-0.2,0.12-1.6,0.22-1.94c0.14-0.46,0.39-0.95,0.56-1.42c0.39-1.07,0.86-2.12,1.4-3.15c1.13-2.14,2.58-4.16,4.3-5.97
		c3.4-3.57,7.97-6.34,13.03-6.99c5.14-0.66,10.14,1.03,15.29,0.57c-3.64,5.78-8.44,11.06-14.25,15.17
		c-5.81,4.11-12.65,7.02-19.71,8.05c-0.02-0.56,0.44-1.06,0.87-1.49c5.11-5.13,10.32-10.33,16.69-14.08
		c2.5-1.47,5.18-2.72,7.36-4.57C531.39,319.62,526.7,321.96,522.46,324.78z M523.9,351.92c-4.45,1.36-8.75,3.34-13.01,5.37
		c0.26-0.12,0.68-1.55,0.88-1.86c0.28-0.42,0.66-0.82,0.96-1.23c0.7-0.94,1.46-1.82,2.27-2.66c1.69-1.74,3.59-3.26,5.64-4.48
		c4.04-2.39,8.74-3.58,13.06-2.49c4.39,1.11,7.83,4.52,12.15,5.83c-5.03,4.52-10.82,8.13-17,10.23c-6.18,2.1-12.76,2.65-18.84,1.25
		c0.18-0.56,0.74-0.9,1.24-1.18c5.99-3.36,12.08-6.75,18.58-8.3c2.55-0.61,5.17-0.93,7.6-2.02
		C532.98,349.84,528.35,350.56,523.9,351.92z M470.79,337.64c6.52,3.23,11.92,8.19,17.23,13.09c0.45,0.41,0.92,0.89,0.92,1.5
		c-7.14-0.18-14.1-2.43-20.08-6.12c-5.97-3.69-10.97-8.8-14.82-14.61c5.19-0.19,10.17-2.7,15.35-2.67c5.11,0.03,9.8,2.44,13.33,5.87
		c1.79,1.74,3.31,3.75,4.52,5.93c0.58,1.04,1.09,2.13,1.51,3.24c0.18,0.49,0.45,0.99,0.61,1.47c0.11,0.36,0.05,1.9,0.29,2.09
		c-3.9-3.13-7.87-6.22-12.23-8.73c-4.36-2.51-9.14-4.42-14.19-5.04C465.5,335.37,468.23,336.37,470.79,337.64z"/>
	<path class="st0" d="M591.26,540.86c-0.47,0.07-0.94,0.13-1.41,0.2c-7.36,1.03-14.9,1.95-22.32,2.19
		c-8.71,0.28-17.32,1.94-26.01,1.78c2.4,0.11,4.84,0.63,7.22,0.83c4.7,0.39,9.75,0.41,14.41-0.25c5.11-0.73,10.32-0.9,15.47-1.14
		c5.05-0.24,9.95-1.9,15.03-1.9c2.34,0,4.55,0.22,6.91,0.2c0.65-0.01,6.69,0.84,6.69,0.84c-2.63,3.84-5.22,8.46-8.61,11.71
		c-1.84,1.77-4.64,2.57-6.83,3.8c-4.18,2.34-8.77,5.71-13.53,6.64c3.73-0.49,7.7-2.32,11.34-3.58c4.06-1.41,8.83-1.43,12.05-4.62
		c0.18,5.55-3.1,11-2.7,16.74c1.94-3.44,3.22-7.41,4.31-11.27c1.47-5.21,3.8-10.24,6.11-15.13c1.67-3.54,4.75-8.02,4.17-12.19
		C606.79,538.7,598.73,539.82,591.26,540.86z"/>
</g>
</svg>
